<?xml version="1.0" standalone="no"?>
<!DOCTYPE svg PUBLIC "-//W3C//DTD SVG 1.1//EN" "http://www.w3.org/Graphics/SVG/1.1/DTD/svg11.dtd" >
<svg xmlns="http://www.w3.org/2000/svg" xmlns:xlink="http://www.w3.org/1999/xlink" version="1.1">
<metadata>
Created by FontForge 20201107 at Wed Jul 18 18:51:37 2018
 By Jimmy Wärting
Copyright 2008-2018 Adobe. All Rights Reserved.
</metadata>
<defs>
<font id="AdobeCleanUX-SemiLight" horiz-adv-x="407" >
  <font-face 
    font-family="Adobe Clean UX"
    font-weight="350"
    font-stretch="normal"
    units-per-em="1000"
    panose-1="2 11 4 3 2 4 4 2 2 4"
    ascent="730"
    descent="-270"
    x-height="483"
    cap-height="659"
    bbox="-152 -241 1085 955"
    underline-thickness="50"
    underline-position="-75"
    stemh="59"
    stemv="66"
    unicode-range="U+0020-FB00"
  />
<missing-glyph horiz-adv-x="520" 
d="M10 0v700h500v-700h-500zM90 50h340l-170 255zM289 350l171 -255v510zM60 605v-510l170 255zM90 650l170 -255l170 255h-340z" />
    <glyph glyph-name="f_f" unicode="ff" horiz-adv-x="489" 
d="M20 429v49c0 3 2 5 4 5h64v51c0 54 8 94 23 123c25 47 65 68 116 68c21 0 33 -3 42 -6c4 -2 4 -4 4 -8v-47c0 -4 -2 -6 -6 -5c-10 5 -24 6 -35 6c-44 0 -78 -23 -78 -127v-55h171v60c1 140 66 182 138 182c23 0 38 -3 47 -8c3 -2 3 -4 3 -7v-47c0 -4 -1 -7 -5 -5
c-10 4 -23 7 -38 7c-36 0 -79 -10 -79 -125v-57h95c4 0 5 -2 5 -5v-48c0 -3 -1 -5 -5 -5h-95v-419c0 -4 -1 -6 -6 -6h-55c-3 0 -5 2 -5 6v419h-171v-419c0 -4 -1 -6 -5 -6h-55c-4 0 -6 2 -6 6v419h-64c-3 0 -4 1 -4 4z" />
    <glyph glyph-name="f_t" unicode="ft" horiz-adv-x="528" 
d="M154 483h172c0 37 4 107 8 128c1 3 2 5 5 6l53 9c3 1 6 0 6 -3c-4 -34 -6 -89 -6 -140h106c4 0 6 -2 6 -6v-47c0 -4 -2 -5 -6 -5h-107v-302c0 -47 18 -75 62 -75c16 0 31 3 51 11c2 1 5 0 5 -4v-41c0 -4 -1 -7 -5 -9c-20 -10 -42 -14 -66 -14c-67 0 -113 33 -113 125v309
h-171v-419c0 -4 -1 -6 -5 -6h-55c-4 0 -6 2 -6 6v419h-63c-4 0 -5 0 -5 5v48c0 3 2 5 5 5h63v51c0 54 8 94 23 123c25 47 65 68 117 68c24 0 36 -4 44 -7c4 -2 5 -4 5 -8v-48c0 -3 -2 -6 -6 -4c-11 4 -27 7 -38 7c-46 0 -79 -22 -79 -126v-56z" />
    <glyph glyph-name="f_f_t" unicode="fft" horiz-adv-x="757" 
d="M20 429v49c0 3 2 5 4 5h64v51c0 54 8 94 23 123c25 47 65 68 116 68c21 0 33 -3 42 -6c4 -2 4 -4 4 -8v-47c0 -4 -2 -6 -6 -5c-10 5 -24 6 -35 6c-44 0 -78 -23 -78 -127v-55h171v60c1 140 66 182 138 182c23 0 38 -3 47 -8c3 -2 3 -4 3 -7v-47c0 -4 -1 -7 -5 -5
c-10 4 -23 7 -38 7c-36 0 -79 -10 -79 -125v-57h95h1h69c0 37 4 108 8 128c1 4 2 6 5 7l53 9c4 1 6 0 6 -3c-3 -34 -6 -90 -6 -141h105c5 0 6 -2 6 -6v-47c0 -4 -2 -5 -6 -5h-105v-303c0 -46 17 -74 61 -74c15 0 30 2 48 9c3 1 5 0 5 -4v-41c0 -3 0 -6 -4 -8
c-21 -10 -45 -13 -69 -13c-67 0 -107 33 -107 125v309h-69h-1h-95v-419c0 -4 -1 -6 -6 -6h-55c-3 0 -5 2 -5 6v419h-171v-419c0 -4 -1 -6 -5 -6h-55c-4 0 -6 2 -6 6v419h-64c-3 0 -4 1 -4 4z" />
    <glyph glyph-name="t_t" unicode="tt" horiz-adv-x="558" 
d="M355 424h-202v-301c0 -47 17 -75 61 -75c16 0 32 3 51 11c3 1 5 0 5 -4v-41c0 -4 0 -7 -4 -9c-21 -10 -48 -14 -72 -14c-67 0 -107 33 -107 125v309h-67c-5 0 -5 2 -5 7v45c0 4 1 6 6 6h66c0 37 4 107 8 128c1 3 3 5 6 6l52 9c4 1 6 0 6 -3c-3 -34 -6 -89 -6 -140h202
c0 37 4 107 8 128c1 3 3 5 6 6l52 9c3 1 6 0 6 -3c-4 -34 -6 -89 -6 -140h106c4 0 6 -2 6 -6v-47c0 -4 -2 -5 -6 -5h-107v-302c0 -47 18 -75 62 -75c16 0 32 3 51 11c3 1 5 0 5 -4v-41c0 -4 -1 -7 -5 -9c-20 -10 -47 -14 -71 -14c-67 0 -107 33 -107 125v308z" />
    <glyph glyph-name="T_h" unicode="Th" horiz-adv-x="999" 
d="M226 6v593h-208c-4 0 -5 2 -4 6l9 51c1 4 2 6 7 6h469c5 0 7 -2 8 -6v-51c1 -4 -1 -6 -5 -6h-210v-592c0 -5 -2 -7 -6 -7h-54c-4 0 -6 2 -6 6zM619 372v-366c0 -5 -1 -6 -5 -6h-55c-4 0 -6 2 -6 6v704c0 3 1 5 5 5h56c4 0 5 -1 5 -5l1 -277c40 39 88 59 145 59
c66 0 154 -31 154 -185v-301c0 -4 -2 -6 -6 -6h-53c-5 0 -7 2 -7 7v293c0 79 -33 133 -105 133c-50 0 -97 -22 -129 -61z" />
    <glyph glyph-name=".notdef" horiz-adv-x="520" 
d="M10 0v700h500v-700h-500zM90 50h340l-170 255zM289 350l171 -255v510zM60 605v-510l170 255zM90 650l170 -255l170 255h-340z" />
    <glyph glyph-name="A" unicode="A" horiz-adv-x="572" 
d="M407 224h-248l-74 -219c-2 -4 -3 -5 -8 -5h-52c-5 0 -6 2 -5 7l213 613c2 7 4 13 5 35c0 3 2 4 5 4h78c4 0 5 -1 6 -4l226 -649c1 -4 0 -6 -4 -6h-59c-4 0 -6 2 -7 5zM178 285h211c-21 65 -87 253 -105 321h-1c-17 -64 -66 -203 -105 -321z" />
    <glyph glyph-name="B" unicode="B" horiz-adv-x="548" 
d="M90 7v644c0 5 0 6 4 7c35 2 104 3 155 3c191 0 217 -110 217 -168c0 -77 -44 -121 -72 -141c43 -18 106 -64 106 -159c0 -133 -114 -195 -256 -195c-56 -1 -112 1 -149 2c-4 1 -5 3 -5 7zM154 320v-262c22 -1 54 -2 84 -2c112 -2 195 40 195 136c0 60 -35 103 -99 121
c-22 6 -51 7 -79 7h-101zM154 602v-223h95c37 0 75 -3 90 -6c32 20 62 55 62 111c0 82 -59 119 -156 119c-31 0 -73 -1 -91 -1z" />
    <glyph glyph-name="C" unicode="C" horiz-adv-x="542" 
d="M501 65v-48c0 -5 -2 -8 -5 -9c-31 -13 -73 -17 -126 -17c-152 0 -320 90 -320 341c0 200 133 337 333 337c62 0 99 -7 119 -17c3 -1 4 -3 4 -7v-53c0 -6 -3 -6 -6 -4c-25 13 -66 21 -119 21c-155 0 -263 -107 -263 -274c0 -226 160 -283 259 -283c48 0 83 3 118 17
c3 1 6 1 6 -4z" />
    <glyph glyph-name="D" unicode="D" horiz-adv-x="636" 
d="M90 8v643c0 4 1 6 5 7c23 1 68 3 160 3c214 0 331 -129 331 -319c0 -261 -187 -344 -343 -344c-51 0 -116 1 -148 2c-4 0 -5 3 -5 8zM156 601v-542c18 -1 55 -2 85 -2c159 0 277 89 277 283c1 178 -115 263 -264 263c-35 0 -71 -1 -98 -2z" />
    <glyph glyph-name="E" unicode="E" horiz-adv-x="500" 
d="M470 55l-9 -50c-1 -4 -3 -5 -7 -5h-357c-6 0 -7 2 -7 7v646c0 4 1 6 6 6h342c4 0 5 -1 6 -5l7 -49c1 -4 -1 -6 -6 -6h-289v-231h261c3 0 5 -1 5 -5v-50c0 -4 -2 -5 -6 -5h-260v-247h309c4 0 6 -2 5 -6z" />
    <glyph glyph-name="F" unicode="F" horiz-adv-x="479" 
d="M156 297v-291c0 -4 -2 -6 -6 -6h-55c-4 0 -5 2 -5 6v648c0 4 1 5 5 5h344c4 0 5 -1 6 -5l6 -49c1 -5 -1 -6 -5 -6h-290v-241h258c4 0 6 -1 6 -5v-50c0 -4 -3 -6 -6 -6h-258z" />
    <glyph glyph-name="G" unicode="G" horiz-adv-x="623" 
d="M490 286l-144 2c-4 0 -5 2 -5 6v48c0 3 2 5 5 5h204c5 0 6 -2 6 -6v-312c1 -4 0 -6 -4 -7c-60 -25 -120 -31 -172 -31c-216 0 -330 145 -330 337c0 209 140 341 342 341c63 0 114 -7 148 -24c4 -1 5 -4 5 -8v-53c0 -5 -3 -6 -6 -4c-42 23 -94 28 -147 28
c-166 1 -274 -104 -274 -278c0 -154 91 -280 265 -280c46 0 79 5 107 17v219z" />
    <glyph glyph-name="H" unicode="H" horiz-adv-x="647" 
d="M552 0h-55c-4 0 -6 1 -6 6v309h-335v-309c0 -4 -2 -6 -6 -6h-54c-4 0 -6 2 -6 6v647c0 5 2 6 6 6h54c5 0 6 -1 6 -5v-278h335v278c0 3 2 5 6 5h56c3 0 4 -1 4 -5v-648c0 -5 -1 -6 -5 -6z" />
    <glyph glyph-name="I" unicode="I" horiz-adv-x="246" 
d="M156 654v-648c0 -4 -2 -6 -6 -6h-54c-5 0 -6 2 -6 6v647c0 5 1 6 5 6h55c4 0 6 -1 6 -5z" />
    <glyph glyph-name="J" unicode="J" horiz-adv-x="284" 
d="M135 154v500c0 4 2 5 6 5h55c3 0 5 0 5 -5v-493c0 -32 -2 -63 -7 -86c-22 -97 -91 -127 -161 -127c-11 0 -25 0 -34 3c-5 1 -5 3 -5 8v48c0 5 2 6 6 5c11 -1 21 -2 26 -2c70 0 109 37 109 144z" />
    <glyph glyph-name="K" unicode="K" horiz-adv-x="549" 
d="M474 6l-307 321c-5 5 -5 8 0 13l292 315c3 3 4 4 9 4h62c5 0 6 -4 4 -7l-290 -308c-2 -2 -2 -4 0 -7l313 -329c3 -4 1 -8 -3 -8h-69c-4 0 -7 1 -11 6zM156 653v-647c0 -4 -2 -6 -6 -6h-54c-5 0 -6 2 -6 7v647c0 3 0 5 5 5h55c4 0 6 -1 6 -6z" />
    <glyph glyph-name="L" unicode="L" horiz-adv-x="470" 
d="M444 0h-347c-6 0 -7 2 -7 7v646c0 4 1 6 5 6h56c3 0 5 -1 5 -5v-593h301c4 0 6 -3 5 -6l-10 -50c-1 -4 -4 -5 -8 -5z" />
    <glyph glyph-name="M" unicode="M" horiz-adv-x="815" 
d="M122 654c1 5 3 5 6 5h88c4 0 5 -1 7 -5c34 -103 163 -486 184 -570h1c22 82 163 469 197 570c2 4 3 5 7 5h84c5 0 5 -1 6 -4l35 -649c0 -5 -2 -6 -5 -6h-57c-5 0 -6 1 -6 5c-11 232 -23 550 -23 607h-1c-24 -86 -163 -477 -206 -607c-1 -4 -4 -5 -7 -5h-56
c-6 0 -7 2 -8 6c-55 170 -167 516 -192 607h-1c-1 -78 -21 -394 -33 -607c0 -5 -2 -6 -6 -6h-53c-4 0 -6 1 -5 6z" />
    <glyph glyph-name="N" unicode="N" horiz-adv-x="658" 
d="M147 0h-51c-4 0 -6 1 -6 7v647c0 4 1 5 5 5h79c4 0 5 -1 8 -4c88 -154 286 -499 324 -574h1c-1 25 -2 73 -2 151v422c0 4 2 5 6 5h51c4 0 6 -2 6 -6v-646c0 -5 -2 -7 -7 -7h-72c-6 0 -8 1 -10 5c-41 81 -302 523 -330 590h-1c3 -33 4 -92 4 -174v-415c0 -4 -1 -6 -5 -6z
" />
    <glyph glyph-name="O" unicode="O" horiz-adv-x="665" 
d="M333 669c174 0 281 -142 281 -335c1 -222 -118 -343 -279 -343c-180 0 -285 141 -285 341c0 208 121 337 283 337zM118 332c0 -151 74 -281 218 -281c135 0 211 113 211 281c0 162 -85 277 -216 277c-118 0 -213 -94 -213 -277z" />
    <glyph glyph-name="P" unicode="P" horiz-adv-x="530" 
d="M90 5v647c0 4 0 6 5 6c28 1 87 3 148 3c163 0 242 -93 242 -207c0 -147 -114 -218 -253 -218c-42 0 -57 2 -77 2v-232c0 -4 -1 -6 -5 -6h-55c-3 0 -5 2 -5 5zM155 600v-302c17 -1 34 -2 77 -2c98 0 188 41 188 157c0 98 -75 150 -177 150c-40 0 -71 -2 -88 -3z" />
    <glyph glyph-name="Q" unicode="Q" horiz-adv-x="665" 
d="M125 332c0 -151 74 -281 218 -281c135 0 211 113 211 281c0 162 -85 277 -216 277c-118 0 -213 -94 -213 -277zM340 669c174 0 281 -142 281 -335c1 -157 -59 -264 -151 -312c53 -47 131 -117 171 -151c3 -2 2 -6 -1 -6h-85c-4 0 -8 3 -10 4c-29 24 -82 73 -145 128
c-19 -4 -38 -6 -58 -6c-180 0 -285 141 -285 341c0 208 121 337 283 337z" />
    <glyph glyph-name="R" unicode="R" horiz-adv-x="554" 
d="M149 0h-53c-5 0 -6 1 -6 6v645c0 4 1 7 5 7c42 2 97 3 157 3c137 0 233 -60 233 -186c0 -97 -65 -153 -137 -176c32 -46 169 -252 192 -292c2 -4 2 -7 -2 -7h-65c-5 0 -7 1 -9 4c-31 48 -116 181 -169 262c-7 11 -12 15 -22 15h-118v-275c0 -4 -2 -6 -6 -6zM155 339h108
c100 0 156 58 156 133c0 80 -58 131 -170 131c-37 0 -75 -2 -94 -3v-261z" />
    <glyph glyph-name="S" unicode="S" horiz-adv-x="473" 
d="M211 -9c-64 0 -122 13 -160 36c-4 3 -5 6 -5 11v58c0 3 3 5 7 3c49 -35 109 -48 160 -48c98 0 144 48 144 114c0 52 -26 90 -122 136l-39 17c-118 55 -144 116 -144 180c0 101 77 171 201 171c61 0 111 -10 138 -26c3 -2 4 -4 4 -9v-53c0 -4 -3 -7 -7 -4
c-32 22 -84 32 -137 32c-108 0 -135 -62 -135 -105c0 -50 26 -88 116 -129l41 -18c117 -54 151 -115 151 -186c0 -103 -75 -180 -213 -180z" />
    <glyph glyph-name="T" unicode="T" horiz-adv-x="506" 
d="M220 6v593h-208c-4 0 -6 1 -5 6l9 49c1 3 2 5 7 5h463c4 0 6 -1 7 -5l6 -49c1 -4 -1 -6 -5 -6h-208v-592c0 -5 -2 -7 -6 -7h-54c-4 0 -6 2 -6 6z" />
    <glyph glyph-name="U" unicode="U" horiz-adv-x="631" 
d="M147 654v-422c0 -114 63 -181 171 -181c84 0 166 37 166 184v419c0 4 1 5 5 5h55c5 0 6 -1 6 -5v-420c0 -178 -103 -243 -235 -243c-139 0 -234 74 -234 237v425c0 4 1 6 6 6h55c3 0 5 -1 5 -5z" />
    <glyph glyph-name="V" unicode="V" horiz-adv-x="583" 
d="M296 65h1c20 66 70 227 198 589c2 4 4 5 7 5h57c3 0 5 -1 4 -6l-230 -648c-2 -4 -3 -5 -8 -5h-63c-4 0 -6 1 -8 5l-234 648c-2 4 0 6 4 6h60c4 0 5 -1 7 -4c117 -324 188 -529 205 -590z" />
    <glyph glyph-name="W" unicode="W" horiz-adv-x="840" 
d="M468 654c46 -197 96 -399 137 -581h1c13 56 46 197 139 581c1 4 3 5 7 5h55c5 0 6 -1 5 -6l-168 -648c-2 -4 -3 -5 -8 -5h-66c-6 0 -7 1 -8 5c-29 122 -119 504 -136 585h-1c-16 -82 -121 -470 -151 -583c-1 -5 -3 -7 -8 -7h-64c-5 0 -6 2 -8 6l-166 647c-1 5 0 6 4 6h59
c4 0 6 0 7 -4c103 -419 132 -537 139 -582h1c12 52 47 179 149 582c2 4 5 4 8 4h67c4 0 5 -1 6 -5z" />
    <glyph glyph-name="X" unicode="X" horiz-adv-x="511" 
d="M488 653l-193 -314l208 -331c2 -4 1 -8 -3 -8h-64c-6 0 -9 2 -11 5c-59 96 -117 191 -177 288h-1c-55 -96 -111 -193 -167 -288c-2 -4 -4 -5 -9 -5h-61c-4 0 -5 4 -3 7l199 327l-194 319c-3 4 -1 6 4 6h63c4 0 6 0 8 -4c56 -92 111 -185 165 -279h1
c54 93 110 186 165 279c2 3 4 4 9 4h59c4 0 5 -2 2 -6z" />
    <glyph glyph-name="Y" unicode="Y" horiz-adv-x="508" 
d="M214 274l-213 379c-3 4 1 6 4 6h63c4 0 5 -1 7 -3c124 -227 166 -303 182 -337c16 34 56 109 179 336c2 3 4 4 7 4h61c4 0 4 -2 3 -5l-215 -382c-5 -8 -6 -14 -6 -24v-242c0 -4 -2 -6 -6 -6h-53c-6 0 -7 2 -7 6v244c0 11 -1 15 -6 24z" />
    <glyph glyph-name="Z" unicode="Z" horiz-adv-x="518" 
d="M480 0h-453c-3 0 -5 1 -5 6v34c0 4 1 6 3 10l379 549h-364c-3 0 -6 1 -5 6l10 49c2 5 3 5 7 5h431c3 0 4 -1 4 -4v-37c0 -3 -1 -6 -4 -11l-376 -546h387c4 0 5 -2 4 -6l-11 -50c-1 -4 -2 -5 -7 -5z" />
    <glyph glyph-name="a" unicode="a" horiz-adv-x="466" 
d="M220 492c118 0 166 -79 166 -180v-237c0 -15 0 -27 2 -41c0 -1 0 -3 -2 -4c-62 -30 -116 -39 -170 -39c-102 0 -175 53 -175 151c0 107 97 151 214 151c36 0 56 -1 67 -2v32c0 35 -14 110 -112 110c-46 0 -88 -12 -120 -29c-3 -2 -6 -1 -6 3v49c0 4 1 6 4 7
c35 18 81 29 132 29zM322 64v173c-13 2 -35 4 -65 4c-101 0 -151 -36 -151 -98c0 -47 30 -97 123 -97c34 0 64 5 93 18z" />
    <glyph glyph-name="b" unicode="b" horiz-adv-x="515" 
d="M86 715h55c4 0 6 -1 6 -5v-239c31 14 67 21 108 21c130 0 215 -95 215 -232c0 -178 -127 -269 -259 -269c-47 0 -86 5 -125 18c-4 1 -5 5 -5 8v693c0 4 1 5 5 5zM403 255c0 111 -62 178 -158 178c-43 0 -72 -7 -98 -19v-357c20 -6 40 -9 69 -9c97 0 187 69 187 207z" />
    <glyph glyph-name="c" unicode="c" horiz-adv-x="416" 
d="M383 61v-49c0 -3 0 -5 -3 -7c-31 -12 -67 -14 -102 -14c-156 0 -233 115 -233 248c0 144 97 253 245 253c48 0 74 -5 90 -12c3 -2 4 -5 4 -9l-1 -50c0 -4 -2 -4 -6 -3c-25 10 -49 15 -88 15c-104 0 -177 -75 -177 -191c0 -128 81 -191 176 -191c35 0 65 4 90 13
c4 2 5 0 5 -3z" />
    <glyph glyph-name="d" unicode="d" horiz-adv-x="515" 
d="M280 -9c-134 0 -235 83 -235 247c0 147 106 254 257 254c31 0 47 -2 66 -6v224c0 4 2 5 5 5h56c5 0 5 -2 5 -5v-639c0 -11 1 -24 2 -39c0 -4 -1 -5 -5 -7c-50 -25 -100 -34 -151 -34zM368 63v360c-17 8 -41 11 -68 11c-119 0 -188 -85 -188 -193c0 -139 85 -191 174 -191
c27 0 59 3 82 13z" />
    <glyph glyph-name="e" unicode="e" horiz-adv-x="473" 
d="M319 240h-208c-2 -110 54 -190 167 -190c40 0 81 7 117 26c3 1 5 0 5 -4v-45c0 -5 -1 -7 -4 -9c-31 -17 -73 -27 -130 -27c-161 0 -221 122 -221 246c0 142 78 255 206 255c135 0 182 -113 182 -193c0 -24 -2 -40 -4 -49c0 -3 -2 -6 -7 -6c-14 -2 -58 -4 -103 -4z
M113 292h190c52 0 62 1 65 2c1 3 1 9 1 13c0 39 -22 129 -120 129c-84 0 -127 -69 -136 -144z" />
    <glyph glyph-name="f" unicode="f" horiz-adv-x="252" 
d="M88 425h-64c-4 0 -5 2 -5 5v48c0 3 1 5 5 5h64v44c0 58 8 97 24 125c25 48 66 73 120 73c19 0 32 -2 42 -7c4 -1 4 -4 4 -7v-47c0 -4 -1 -6 -5 -5c-11 4 -25 6 -35 6c-49 0 -84 -27 -84 -131v-51h95c4 0 5 -2 5 -5v-48c0 -3 -2 -5 -5 -5h-95v-419c0 -4 -1 -6 -5 -6h-55
c-4 0 -6 2 -6 6v419z" />
    <glyph glyph-name="g" unicode="g" horiz-adv-x="480" 
d="M233 158c-20 0 -40 3 -58 8c-5 -13 -8 -27 -6 -41c1 -17 8 -34 21 -46l95 -5c116 -6 187 -46 187 -136c0 -97 -90 -174 -227 -174c-138 0 -209 76 -209 150c0 34 28 79 97 137c-17 21 -25 48 -25 75c1 22 7 44 17 63c-40 28 -65 74 -65 135c0 92 65 168 174 168
c29 0 51 -3 68 -7c8 -2 13 -2 19 -2h137c4 0 5 -2 5 -6v-46c0 -3 -1 -5 -5 -5c-29 0 -71 1 -95 3c20 -20 40 -55 40 -106c0 -110 -79 -165 -170 -165zM339 324c0 62 -33 116 -106 116c-65 0 -108 -46 -108 -115c0 -67 38 -115 107 -115c66 0 107 42 107 114zM410 -70
c0 63 -63 81 -138 85l-98 5c-46 -31 -75 -76 -75 -102c0 -49 57 -100 149 -100c110 0 162 57 162 112z" />
    <glyph glyph-name="g.alt" horiz-adv-x="512" 
d="M430 422v-386c0 -44 -3 -81 -9 -110c-26 -128 -120 -162 -217 -162c-41 0 -94 6 -131 26c-4 2 -5 3 -5 7v59c1 3 3 4 6 3c41 -24 89 -32 132 -32c119 0 157 63 158 177v11c-30 -15 -64 -19 -97 -19c-116 0 -222 80 -222 242c0 148 99 254 248 254c59 0 109 -13 138 -26
c2 -1 2 -2 2 -5c-2 -16 -3 -32 -3 -39zM364 74v347c-21 9 -49 13 -76 13c-118 0 -175 -90 -175 -195c0 -131 86 -183 162 -183c32 0 64 3 89 18z" />
    <glyph glyph-name="h" unicode="h" horiz-adv-x="527" 
d="M146 372v-366c0 -5 -1 -6 -5 -6h-55c-4 0 -6 2 -6 6v704c0 3 1 5 5 5h56c4 0 5 -1 5 -5l1 -277c40 39 88 59 145 59c66 0 154 -31 154 -185v-301c0 -4 -2 -6 -6 -6h-53c-5 0 -7 2 -7 7v293c0 79 -33 133 -105 133c-50 0 -97 -22 -129 -61z" />
    <glyph glyph-name="i" unicode="i" horiz-adv-x="228" 
d="M81 7v470c0 4 1 6 5 6h55c4 0 6 -1 6 -6v-471c0 -4 -1 -6 -6 -6h-54c-5 0 -6 2 -6 7zM113 590c-25 0 -41 17 -41 42s17 43 42 43c26 0 41 -19 41 -43c0 -25 -16 -42 -42 -42z" />
    <glyph glyph-name="j" unicode="j" horiz-adv-x="229" 
d="M88 483h55c4 0 6 -2 6 -6v-494c0 -107 -21 -143 -47 -172c-28 -31 -75 -39 -102 -39c-6 0 -8 0 -14 1c-4 1 -5 3 -5 7v46c0 3 1 6 6 6c50 2 96 15 96 136v509c0 4 1 6 5 6zM116 590c-26 0 -42 17 -42 42s17 43 42 43c26 0 41 -19 41 -43c0 -25 -16 -42 -41 -42z" />
    <glyph glyph-name="k" unicode="k" horiz-adv-x="453" 
d="M146 710v-453l1 1c42 42 186 192 213 220c3 3 5 5 9 5h63c5 0 6 -4 3 -7c-27 -29 -178 -177 -215 -214c-1 -2 0 -3 0 -4c63 -67 173 -179 244 -252c3 -2 1 -6 -3 -6h-74c-4 0 -6 2 -9 5c-55 56 -183 190 -231 240l-1 1v-240c0 -4 -1 -6 -5 -6h-55c-5 0 -6 2 -6 6v704
c0 3 1 5 6 5h54c4 0 6 -2 6 -5z" />
    <glyph glyph-name="l" unicode="l" horiz-adv-x="242" 
d="M80 90v620c0 4 2 5 6 5h54c5 0 6 -2 6 -5v-615c0 -39 16 -47 39 -47c7 0 11 0 20 2c3 1 3 -1 3 -5v-41c0 -5 0 -6 -4 -8c-8 -3 -23 -6 -40 -6c-41 0 -84 14 -84 100z" />
    <glyph glyph-name="m" unicode="m" horiz-adv-x="813" 
d="M141 0h-55c-5 0 -6 2 -6 7v372c0 44 -2 80 -4 98c0 4 1 6 6 6h49c3 0 5 -2 6 -5c4 -11 5 -34 6 -49c44 43 92 63 146 63c58 0 101 -23 127 -72c41 41 92 72 161 72s155 -34 155 -184v-302c0 -4 -3 -6 -7 -6h-53c-5 0 -6 2 -6 7v297c0 72 -32 129 -104 129
c-53 0 -95 -23 -128 -63c3 -12 5 -40 5 -65v-299c0 -4 -1 -6 -6 -6h-54c-4 0 -6 1 -6 6v301c0 78 -35 126 -102 126c-50 0 -87 -20 -125 -61v-366c0 -5 -1 -6 -5 -6z" />
    <glyph glyph-name="n" unicode="n" horiz-adv-x="527" 
d="M80 6v365c0 34 -2 90 -4 106c0 4 1 6 6 6h48c4 0 6 -2 7 -5c3 -9 4 -30 6 -52c42 44 93 66 149 66c66 0 154 -31 154 -185v-301c0 -4 -2 -6 -6 -6h-53c-5 0 -7 2 -7 7v294c0 77 -33 132 -105 132c-53 0 -96 -25 -129 -67v-360c0 -4 -1 -6 -6 -6h-54c-4 0 -6 2 -6 6z" />
    <glyph glyph-name="o" unicode="o" horiz-adv-x="517" 
d="M260 492c129 0 212 -101 212 -250c0 -151 -85 -251 -212 -251c-152 0 -215 130 -215 250c0 143 85 251 215 251zM256 434c-86 0 -145 -74 -145 -191c0 -106 53 -194 151 -194c72 0 143 57 143 191c0 99 -42 194 -149 194z" />
    <glyph glyph-name="p" unicode="p" horiz-adv-x="515" 
d="M249 492c136 0 221 -95 221 -234c0 -180 -136 -267 -269 -267c-26 0 -41 1 -55 3v-202c0 -4 -1 -6 -5 -7c-17 -2 -52 -6 -56 -6c-3 0 -5 1 -5 5v630c0 7 -1 25 -2 37c0 1 0 3 2 4c30 11 91 37 169 37zM240 433c-35 0 -67 -6 -94 -17v-361c18 -5 38 -6 59 -6
c102 0 198 68 198 205c0 109 -58 179 -163 179z" />
    <glyph glyph-name="q" unicode="q" horiz-adv-x="516" 
d="M272 -9c-124 0 -227 86 -227 245c0 150 103 256 256 256c60 0 105 -12 134 -25c3 -1 3 -2 3 -5c-2 -17 -3 -32 -3 -39v-632c0 -4 -1 -5 -6 -6c-19 -3 -53 -6 -56 -6s-4 2 -4 5v223c-31 -12 -64 -16 -97 -16zM369 65v358c-22 8 -46 11 -75 11c-116 0 -182 -84 -182 -195
c0 -129 85 -189 169 -189c35 0 62 4 88 15z" />
    <glyph glyph-name="r" unicode="r" horiz-adv-x="313" 
d="M80 483h50c4 0 6 -2 7 -6c4 -12 7 -49 7 -70c34 48 96 85 157 85c4 0 5 -1 5 -5v-58c0 -4 -1 -5 -6 -5c-66 0 -127 -36 -153 -79v-339c0 -5 -2 -6 -6 -6h-55c-5 0 -5 2 -5 6v347c0 43 -2 98 -6 124c0 4 1 6 5 6z" />
    <glyph glyph-name="s" unicode="s" horiz-adv-x="375" 
d="M307 408c-26 17 -68 28 -108 28c-68 0 -92 -36 -92 -69c0 -35 19 -58 96 -92c91 -38 132 -77 132 -147c0 -91 -75 -137 -166 -137c-52 0 -98 11 -125 28c-4 2 -5 4 -5 8v55c0 4 3 6 6 3c36 -26 83 -37 126 -37c66 0 99 32 99 73s-23 65 -94 97c-90 37 -132 76 -132 145
c0 71 59 129 157 129c52 0 90 -10 109 -21c3 -2 4 -5 4 -9v-50c0 -4 -3 -6 -7 -4z" />
    <glyph glyph-name="t" unicode="t" horiz-adv-x="293" 
d="M271 53v-41c0 -3 0 -6 -4 -8c-21 -10 -45 -13 -69 -13c-67 0 -107 33 -107 125v309h-69c-5 0 -6 2 -6 7v45c0 4 1 6 6 6h69c0 37 4 108 8 128c1 4 2 6 5 7l53 9c4 1 6 0 6 -3c-3 -34 -6 -90 -6 -141h105c5 0 6 -2 6 -6v-47c0 -4 -2 -5 -6 -5h-105v-303
c0 -46 17 -74 61 -74c15 0 30 2 48 9c3 1 5 0 5 -4z" />
    <glyph glyph-name="u" unicode="u" horiz-adv-x="520" 
d="M439 477v-375c0 -49 3 -76 5 -96c1 -5 -1 -6 -5 -6h-50c-4 0 -5 1 -7 5c-2 11 -5 30 -5 43c-40 -41 -91 -57 -141 -57c-76 0 -157 36 -157 180v306c0 4 2 6 6 6h55c4 0 5 -2 5 -6v-298c0 -82 38 -129 108 -129c50 0 90 19 120 55v372c0 4 2 6 6 6h55c4 0 5 -2 5 -6z" />
    <glyph glyph-name="v" unicode="v" horiz-adv-x="449" 
d="M255 0h-65c-5 0 -7 2 -8 5c-16 46 -144 420 -162 472c-1 3 0 6 4 6h59c4 0 6 -2 7 -5c88 -270 123 -377 135 -417h1c13 41 49 145 139 417c2 4 3 5 7 5h53c3 0 6 -2 4 -7c-23 -66 -149 -426 -166 -471c-1 -4 -3 -5 -8 -5z" />
    <glyph glyph-name="w" unicode="w" horiz-adv-x="702" 
d="M529 0h-64c-4 0 -6 2 -8 6c-77 281 -97 363 -107 410h-1c-16 -68 -53 -195 -115 -410c-1 -5 -4 -6 -9 -6h-62c-7 0 -8 2 -10 6l-126 470c-1 4 1 7 5 7h58c3 0 5 -1 6 -5c75 -280 95 -382 102 -416h2c8 37 28 124 115 414c1 5 2 7 7 7h65c3 0 4 -2 5 -6
c84 -299 101 -377 108 -415h2c9 42 24 123 108 416c1 3 3 5 6 5h55c3 0 5 -2 4 -6l-138 -471c-2 -4 -3 -6 -8 -6z" />
    <glyph glyph-name="x" unicode="x" horiz-adv-x="418" 
d="M165 242l-150 234c-2 4 -1 7 3 7h64c5 0 6 -2 8 -5l120 -196h1l125 196c2 3 3 5 7 5h58c4 0 5 -3 3 -7c-39 -59 -110 -168 -154 -230c36 -57 127 -192 159 -239c3 -3 2 -7 -3 -7h-65c-4 0 -7 2 -9 5l-126 199h-1l-126 -200c-2 -3 -4 -4 -8 -4h-58c-4 0 -6 3 -3 6
c45 68 110 170 155 236z" />
    <glyph glyph-name="y" unicode="y" horiz-adv-x="453" 
d="M23 483h61c3 0 5 -2 6 -5c88 -238 128 -349 141 -392c30 86 74 212 138 392c2 3 4 5 7 5h55c4 0 5 -3 4 -7c-73 -221 -168 -465 -265 -686c-1 -4 -4 -6 -9 -6l-58 -5c-5 0 -5 2 -3 7c28 60 64 144 96 223c2 3 2 6 0 11c-25 67 -118 301 -177 457c-2 4 0 6 4 6z" />
    <glyph glyph-name="z" unicode="z" horiz-adv-x="389" 
d="M360 0h-335c-4 0 -5 3 -5 7v30c0 3 1 5 3 8c69 108 231 335 262 380h-252c-4 0 -6 1 -5 6l9 47c1 3 3 5 7 5h315c4 0 4 -2 5 -5v-33c0 -4 -2 -8 -4 -11c-103 -157 -231 -339 -258 -376c32 1 74 0 120 0h151c3 0 5 -1 4 -6l-11 -47c-1 -4 -3 -5 -6 -5z" />
    <glyph glyph-name="A.sc" horiz-adv-x="494" 
d="M334 173h-183l-58 -168c-1 -4 -2 -5 -6 -5h-53c-4 0 -7 1 -5 6l165 479c2 6 4 13 4 27c1 3 1 5 4 5h75c4 0 5 -2 6 -5l181 -507c2 -3 -1 -5 -4 -5h-58c-4 0 -6 2 -7 5zM165 230h154c-17 54 -63 182 -78 233h-1c-12 -48 -50 -158 -75 -233z" />
    <glyph glyph-name="B.sc" horiz-adv-x="490" 
d="M88 7v503c0 5 1 6 5 7c37 1 90 2 139 2c151 0 182 -80 182 -139c0 -60 -36 -95 -51 -107c37 -17 80 -52 80 -120c0 -109 -95 -155 -216 -155c-50 0 -110 1 -134 2c-4 1 -5 3 -5 7zM151 246v-191c15 -1 54 -2 81 -2c82 0 143 27 143 99c0 60 -51 94 -147 94h-77zM151 462
v-161h77c41 0 68 -4 86 -8c17 13 37 40 37 79c0 59 -42 92 -123 92c-31 0 -59 -1 -77 -2z" />
    <glyph glyph-name="C.sc" horiz-adv-x="459" 
d="M417 6c-25 -10 -60 -15 -109 -15c-130 0 -259 76 -259 269c0 145 102 266 268 266c52 0 84 -6 100 -14c3 -2 3 -4 3 -7v-49c0 -5 -3 -6 -5 -4c-22 8 -55 16 -97 16c-116 0 -203 -76 -203 -207c0 -168 122 -211 198 -211c47 0 72 4 103 15c3 1 5 1 5 -3v-49
c0 -3 -1 -6 -4 -7z" />
    <glyph glyph-name="D.sc" horiz-adv-x="544" 
d="M88 7v502c0 5 2 6 5 7c25 0 77 2 133 2c183 0 269 -114 269 -256c0 -204 -162 -264 -281 -264c-48 0 -88 1 -121 2c-5 0 -5 3 -5 7zM154 462v-407c14 -1 39 -2 63 -2c122 0 211 69 211 209c0 139 -92 202 -201 202c-26 0 -57 -1 -73 -2z" />
    <glyph glyph-name="E.sc" horiz-adv-x="440" 
d="M395 0h-301c-5 0 -6 2 -6 6v505c0 4 1 6 6 6h287c4 0 5 -1 6 -5l6 -47c0 -5 -1 -6 -5 -6h-235v-167h210c4 0 6 -1 6 -5v-47c0 -4 -2 -6 -6 -6h-210v-176h252c4 0 5 -1 4 -5l-7 -48c-1 -3 -2 -5 -7 -5z" />
    <glyph glyph-name="F.sc" horiz-adv-x="428" 
d="M153 224v-219c0 -3 -1 -5 -5 -5h-55c-4 0 -5 2 -5 6v505c0 3 1 6 5 6h292c3 0 5 -1 6 -6l5 -46c1 -5 -1 -6 -6 -6h-237v-177h212c4 0 5 -2 5 -5v-47c0 -5 -1 -6 -5 -6h-212z" />
    <glyph glyph-name="G.sc" horiz-adv-x="533" 
d="M281 274h181c4 0 5 -2 5 -7v-241c0 -5 0 -8 -5 -10c-41 -18 -90 -25 -148 -25c-184 0 -265 125 -265 266c0 174 129 269 275 269c66 0 107 -9 130 -22c3 -1 4 -3 4 -7v-52c0 -4 -2 -6 -6 -4c-31 19 -79 27 -127 27c-130 0 -209 -86 -209 -210c0 -112 67 -209 199 -209
c36 0 62 3 87 12v156l-120 1c-4 0 -5 2 -5 6v46c0 3 1 4 4 4z" />
    <glyph glyph-name="H.sc" horiz-adv-x="564" 
d="M471 0h-56c-2 0 -5 1 -5 5v234h-256v-233c0 -5 -2 -6 -6 -6h-55c-4 0 -5 2 -5 6v506c0 2 0 5 5 5h56c4 0 5 -1 5 -5v-213h256v213c0 2 1 5 5 5h56c3 0 5 -1 5 -6v-506c0 -3 -2 -5 -5 -5z" />
    <glyph glyph-name="I.sc" horiz-adv-x="242" 
d="M154 511v-506c0 -3 -2 -5 -5 -5h-56c-4 0 -5 2 -5 6v505c0 3 0 6 5 6h56c4 0 5 -2 5 -6z" />
    <glyph glyph-name="J.sc" horiz-adv-x="272" 
d="M191 150c0 -159 -76 -191 -153 -191c-15 0 -24 2 -33 4c-4 1 -5 4 -5 9v47c0 4 2 5 6 4c8 -1 20 -3 29 -3c66 0 90 41 90 133v359c0 3 1 5 4 5h58c3 0 4 -1 4 -5v-362z" />
    <glyph glyph-name="K.sc" horiz-adv-x="478" 
d="M399 517h63c5 0 5 -4 2 -7l-229 -240c-2 -2 -2 -4 0 -6l249 -258c2 -4 1 -6 -2 -6h-73c-3 0 -6 1 -9 4l-241 252c-3 4 -3 7 1 11l232 246c2 3 3 4 7 4zM153 512v-507c0 -4 -1 -5 -4 -5h-56c-4 0 -5 2 -5 6v506c0 3 1 5 5 5h56c3 0 4 -2 4 -5z" />
    <glyph glyph-name="L.sc" horiz-adv-x="401" 
d="M382 0h-288c-4 0 -6 1 -6 6v506c0 3 1 5 5 5h56c4 0 5 -2 5 -5v-455h238c4 0 5 -1 4 -5l-8 -47c-1 -4 -2 -5 -6 -5z" />
    <glyph glyph-name="M.sc" horiz-adv-x="676" 
d="M74 6l27 505c0 3 1 6 5 6h85c4 0 5 -2 6 -5c116 -334 133 -406 141 -438c6 30 28 108 150 437c2 5 3 6 7 6h84c4 0 6 -2 6 -7l17 -504c0 -4 -2 -6 -6 -6h-56c-4 0 -6 2 -6 6c-5 148 -4 346 -7 464h-1c-21 -65 -103 -298 -158 -465c-1 -3 -3 -5 -7 -5h-54c-5 0 -7 1 -8 5
c-70 226 -129 408 -147 467h-1c0 -43 -1 -143 -16 -466c0 -4 -2 -6 -6 -6h-50c-4 0 -5 2 -5 6z" />
    <glyph glyph-name="N.sc" horiz-adv-x="572" 
d="M144 0h-51c-4 0 -5 2 -5 5v506c0 4 1 6 5 6h75c3 0 5 -1 7 -5c197 -327 236 -408 250 -444h1c-1 27 -3 101 -3 134v309c0 4 1 6 5 6h51c3 0 5 -2 5 -6v-505c0 -5 -2 -6 -6 -6h-74c-5 0 -7 2 -10 6c-195 330 -236 417 -247 448h-2c3 -27 4 -96 4 -142v-307
c0 -3 -1 -5 -5 -5z" />
    <glyph glyph-name="O.sc" horiz-adv-x="559" 
d="M280 525c133 0 231 -109 231 -264c0 -172 -97 -270 -232 -270c-127 0 -230 97 -230 267c0 169 102 267 231 267zM116 260c0 -124 67 -210 166 -210c103 0 162 82 162 209s-70 207 -167 207c-84 0 -161 -66 -161 -206z" />
    <glyph glyph-name="P.sc" horiz-adv-x="463" 
d="M88 5v505c0 4 1 6 4 6c23 1 83 2 126 2c145 0 202 -74 202 -166c1 -121 -97 -172 -206 -172c-22 0 -43 1 -60 2v-177c0 -4 -2 -5 -6 -5h-55c-4 0 -5 1 -5 5zM154 462v-225c17 -1 39 -1 62 -1c57 0 138 18 138 114c0 74 -48 114 -133 114c-24 0 -55 -1 -67 -2z" />
    <glyph glyph-name="Q.sc" horiz-adv-x="559" 
d="M116 260c0 -124 67 -210 166 -210c103 0 162 82 162 209s-70 207 -167 207c-84 0 -161 -66 -161 -206zM280 525c133 0 231 -109 231 -264c0 -118 -46 -201 -118 -242c40 -38 96 -94 132 -125c3 -2 2 -6 -2 -6h-75c-5 0 -7 1 -10 4c-22 19 -69 63 -110 104
c-16 -3 -32 -5 -49 -5c-127 0 -230 97 -230 267c0 169 102 267 231 267z" />
    <glyph glyph-name="R.sc" horiz-adv-x="489" 
d="M148 0h-55c-4 0 -5 1 -5 5v505c0 4 1 6 5 6c33 1 88 2 139 2c124 0 197 -54 197 -149c0 -77 -51 -117 -113 -135c24 -35 134 -199 152 -228c3 -3 1 -6 -3 -6h-65c-4 0 -7 2 -8 5c-23 35 -95 144 -133 204c-4 7 -8 8 -15 8h-91v-212c0 -4 -2 -5 -5 -5zM153 271h80
c101 0 129 47 129 94c0 64 -50 100 -131 100c-28 0 -60 -1 -78 -2v-192z" />
    <glyph glyph-name="S.sc" horiz-adv-x="412" 
d="M189 -9c-56 0 -101 10 -137 31c-4 2 -4 5 -4 9v54c0 4 2 6 6 4c42 -30 93 -41 137 -41c81 0 108 39 108 79s-17 70 -115 110c-104 43 -131 89 -131 150c1 79 65 139 168 139c50 0 91 -8 117 -23c4 -2 4 -4 4 -8v-52c0 -4 -3 -5 -7 -3c-32 20 -70 29 -115 29
c-80 0 -104 -44 -104 -79c0 -38 18 -64 95 -95c130 -52 154 -101 154 -164c0 -77 -56 -140 -176 -140z" />
    <glyph glyph-name="T.sc" horiz-adv-x="432" 
d="M179 6v453h-160c-4 0 -5 1 -4 6l7 47c1 4 2 5 5 5h379c3 0 4 -1 5 -5l7 -47c1 -4 -1 -6 -4 -6h-169v-453c0 -5 -2 -6 -5 -6h-55c-4 0 -6 1 -6 6z" />
    <glyph glyph-name="U.sc" horiz-adv-x="547" 
d="M146 511v-325c0 -86 49 -136 127 -136c61 0 129 28 129 135v326c0 4 2 6 5 6h56c3 0 5 -2 5 -6v-331c0 -130 -86 -189 -198 -189c-117 0 -190 66 -190 188v332c0 4 1 6 5 6h56c4 0 5 -2 5 -6z" />
    <glyph glyph-name="V.sc" horiz-adv-x="488" 
d="M248 59h1c11 40 24 90 153 453c2 4 4 5 8 5h54c4 0 5 -4 4 -7l-182 -505c-1 -4 -3 -5 -7 -5h-67c-5 0 -6 2 -8 5l-184 505c-1 3 -1 7 4 7h59c4 0 6 -1 7 -5c134 -371 147 -415 158 -453z" />
    <glyph glyph-name="W.sc" horiz-adv-x="712" 
d="M401 512c40 -163 87 -357 106 -451h2c9 44 19 108 100 451c0 3 1 5 5 5h58c3 0 4 -2 3 -6l-126 -505c-1 -4 -3 -6 -8 -6h-67c-5 0 -7 2 -9 6c-87 346 -99 411 -107 450l-1 1c-6 -37 -38 -167 -116 -451c-1 -5 -3 -6 -8 -6h-65c-4 0 -7 2 -8 6l-124 505c-1 4 1 6 5 6h59
c3 0 5 -1 6 -5c80 -337 94 -418 101 -451h2c6 32 13 81 111 450c2 4 4 6 7 6h68c4 0 5 -1 6 -5z" />
    <glyph glyph-name="X.sc" horiz-adv-x="450" 
d="M423 511l-156 -248l166 -256c3 -4 1 -7 -3 -7h-65c-4 0 -6 1 -8 5l-136 219h-1l-132 -220c-2 -3 -4 -4 -9 -4h-59c-4 0 -5 3 -3 7l160 253l-156 251c-2 3 -1 6 3 6h65c4 0 5 -1 7 -4l128 -213h1l128 212c2 4 3 5 8 5h59c3 0 4 -3 3 -6z" />
    <glyph glyph-name="Y.sc" horiz-adv-x="432" 
d="M246 0h-56c-4 0 -5 1 -5 6v186c0 13 -1 17 -6 25l-172 294c-1 3 0 6 3 6h65c4 0 5 -1 7 -4l98 -175c14 -26 31 -59 42 -81h1c11 24 23 52 38 82l95 173c3 4 4 5 8 5h58c3 0 4 -3 3 -6l-168 -294c-3 -7 -6 -13 -6 -24v-188c0 -4 -1 -5 -5 -5z" />
    <glyph glyph-name="Z.sc" horiz-adv-x="431" 
d="M398 0h-366c-4 0 -5 1 -5 5v35c0 3 1 5 3 9l290 410c-21 0 -48 -1 -105 -1h-172c-4 0 -6 2 -5 6l9 48c1 3 2 5 6 5h341c4 0 5 -1 5 -5v-37c0 -5 -2 -7 -4 -10l-284 -407c29 1 79 0 116 0h182c4 0 5 -2 4 -5l-10 -49c-1 -3 -3 -4 -5 -4z" />
    <glyph glyph-name="AE" unicode="&#xc6;" horiz-adv-x="770" 
d="M66 0h-60c-4 0 -5 2 -3 6l307 616c2 5 6 12 12 34c2 3 3 3 6 3h379c4 0 5 -1 5 -5l5 -51c1 -3 -1 -4 -5 -4h-278l17 -233h249c3 0 4 -1 4 -5l-2 -52c0 -3 -2 -4 -5 -4h-242l18 -244h272c3 0 5 -2 4 -6l-10 -51c-1 -3 -3 -4 -6 -4h-317c-3 0 -5 0 -4 3l-18 234h-207
l-114 -233c-2 -3 -4 -4 -7 -4zM214 297h177l-15 205c-3 38 -6 77 -8 112h-1c-15 -35 -36 -78 -52 -116z" />
    <glyph glyph-name="OE" unicode="&#x152;" horiz-adv-x="867" 
d="M480 659h325c4 0 5 -1 6 -5l7 -49c0 -4 -1 -7 -6 -7h-289v-231h260c3 0 5 -2 5 -6v-49c0 -5 -2 -6 -6 -6h-259v-246h309c4 0 5 -1 4 -5l-8 -50c-1 -4 -3 -5 -11 -5h-329c-31 -3 -64 -3 -113 -3c-198 0 -325 121 -325 332c0 224 151 332 337 332c45 0 75 0 93 -2zM457 57
v542c-18 3 -39 4 -75 4c-156 0 -265 -93 -265 -272c0 -193 111 -276 267 -276c40 0 54 0 73 2z" />
    <glyph glyph-name="uni1E9E" unicode="&#x1e9e;" horiz-adv-x="578" 
d="M474 482c-114 -24 -134 -63 -134 -92c0 -27 31 -49 77 -81c96 -64 112 -112 112 -166c0 -90 -74 -152 -186 -152c-49 0 -92 12 -119 28c-3 2 -4 5 -4 9v54c0 3 2 5 5 3c32 -23 74 -36 122 -36c65 0 116 33 117 87c0 36 -11 72 -94 126c-67 45 -98 72 -98 119
c0 56 46 102 137 133c0 42 -31 97 -123 97c-84 0 -132 -46 -132 -138v-467c0 -4 -1 -6 -4 -6h-57c-4 0 -5 2 -5 5v475c0 124 79 189 200 189c133 0 187 -84 187 -159c0 -8 0 -16 -1 -28z" />
    <glyph glyph-name="Thorn" unicode="&#xde;" horiz-adv-x="506" 
d="M89 5v663c0 3 1 4 5 4h57c3 0 4 -2 4 -5v-133h88c138 0 219 -69 219 -192c0 -130 -91 -199 -239 -199h-68v-137c0 -3 -1 -6 -5 -6h-56c-3 0 -5 2 -5 5zM155 475v-274h70c120 0 172 53 172 138c0 82 -50 136 -161 136h-81z" />
    <glyph glyph-name="uni018F" unicode="&#x18f;" horiz-adv-x="626" 
d="M208 339h300c0 157 -72 270 -224 270c-67 0 -137 -19 -195 -60c-3 -2 -5 -1 -5 3v52c0 4 0 7 3 9c44 29 116 57 205 57c208 0 283 -173 283 -333c0 -214 -101 -346 -274 -346c-187 0 -255 151 -255 277c0 37 3 64 7 66c11 4 84 5 155 5zM505 281h-288
c-84 0 -97 -1 -100 -2c-1 -8 -1 -17 -1 -25c0 -83 49 -203 190 -203c126 0 188 92 199 230z" />
    <glyph glyph-name="Eth" unicode="&#xd0;" horiz-adv-x="645" 
d="M99 8v308h-74c-4 0 -5 1 -5 5v42c0 3 1 4 4 4h75v284c0 4 1 6 5 7c23 1 68 3 160 3c214 0 331 -129 331 -319c0 -261 -187 -344 -343 -344c-51 0 -116 1 -148 2c-4 0 -5 3 -5 8zM165 601v-234h178c3 0 4 0 4 -4v-42c0 -4 -1 -5 -5 -5h-177v-257c18 -1 55 -2 85 -2
c159 0 277 89 277 283c1 178 -115 263 -264 263c-35 0 -71 -1 -98 -2z" />
    <glyph glyph-name="Dcroat" unicode="&#x110;" horiz-adv-x="645" 
d="M99 8v308h-74c-4 0 -5 1 -5 5v42c0 3 1 4 4 4h75v284c0 4 1 6 5 7c23 1 68 3 160 3c214 0 331 -129 331 -319c0 -261 -187 -344 -343 -344c-51 0 -116 1 -148 2c-4 0 -5 3 -5 8zM165 601v-234h178c3 0 4 0 4 -4v-42c0 -4 -1 -5 -5 -5h-177v-257c18 -1 55 -2 85 -2
c159 0 277 89 277 283c1 178 -115 263 -264 263c-35 0 -71 -1 -98 -2z" />
    <glyph glyph-name="Hbar" unicode="&#x126;" horiz-adv-x="647" 
d="M552 0h-55c-4 0 -6 1 -6 6v300h-335v-300c0 -4 -2 -6 -6 -6h-54c-4 0 -6 2 -6 6v473h-52c-4 0 -5 2 -5 5v41c0 3 1 4 4 4h53v124c0 5 2 6 6 6h54c5 0 6 -1 6 -5v-125h335v125c0 3 2 5 6 5h56c3 0 4 -1 4 -5v-125h51c4 0 5 -1 5 -4v-41c0 -4 -1 -5 -5 -5h-51v-473
c0 -5 -1 -6 -5 -6zM156 366h335v113h-335v-113z" />
    <glyph glyph-name="Lslash" unicode="&#x141;" horiz-adv-x="470" 
d="M444 0h-347c-6 0 -7 2 -7 7v273l-81 -39c-2 -1 -4 0 -4 3v43c0 2 1 4 3 5l82 40v321c0 4 1 6 5 6h56c3 0 5 -1 5 -5v-290l149 72c3 1 5 0 5 -4v-40c0 -4 -1 -6 -5 -8l-149 -72v-251h301c4 0 6 -3 5 -6l-10 -50c-1 -4 -4 -5 -8 -5z" />
    <glyph glyph-name="Oslash" unicode="&#xd8;" horiz-adv-x="665" 
d="M333 669c64 0 119 -19 163 -54l28 42c2 2 4 2 6 2h42c4 0 5 -1 3 -5l-46 -69c55 -60 85 -148 85 -251c1 -222 -118 -343 -279 -343c-65 0 -120 18 -164 51l-26 -39c-1 -3 -3 -3 -6 -3h-43c-4 0 -4 3 -3 5l44 67c-56 61 -87 152 -87 260c0 208 121 337 283 337zM115 332
c0 -79 20 -152 60 -204l286 434c-34 31 -79 48 -130 48c-119 0 -216 -94 -216 -278zM550 332c0 80 -21 148 -58 197l-286 -434c34 -29 77 -46 130 -46c137 0 214 114 214 283z" />
    <glyph glyph-name="Aogonek" unicode="&#x104;" horiz-adv-x="572" 
d="M159 224l-75 -219c-1 -4 -3 -5 -7 -5h-52c-5 0 -6 2 -5 7l213 613c2 7 4 13 5 35c0 3 2 4 5 4h78c4 0 5 -1 6 -4l224 -645c2 -5 1 -8 -2 -10c-58 -37 -86 -75 -86 -112c0 -33 24 -55 65 -55c23 0 43 5 53 10c4 1 6 0 6 -4v-37c0 -6 -2 -8 -5 -10c-19 -11 -48 -15 -74 -15
c-51 0 -110 26 -110 95c0 44 27 88 90 133c-4 1 -6 5 -7 7l-74 212h-248zM177 285h212c-21 65 -87 254 -106 322h-1c-16 -65 -65 -204 -105 -322z" />
    <glyph glyph-name="Eogonek" unicode="&#x118;" horiz-adv-x="500" 
d="M470 55l-9 -50c-1 -4 -3 -5 -7 -5h-37c-54 -38 -82 -76 -82 -111c0 -33 22 -55 64 -55c23 0 44 5 57 9c3 1 5 0 5 -3v-39c0 -4 -1 -6 -4 -8c-19 -10 -49 -15 -75 -15c-53 0 -111 26 -111 95c0 48 36 92 87 127h-261c-6 0 -7 2 -7 7v646c0 4 1 6 6 6h342c4 0 5 -1 6 -5
l7 -49c1 -4 -1 -6 -6 -6h-289v-231h261c3 0 5 -1 5 -5v-50c0 -4 -2 -5 -6 -5h-260v-247h309c4 0 6 -2 5 -6z" />
    <glyph glyph-name="Iogonek" unicode="&#x12e;" horiz-adv-x="246" 
d="M90 14v640c0 4 1 5 5 5h56c3 0 5 -1 5 -4v-648c0 -4 -1 -6 -5 -8c-41 -37 -67 -71 -67 -110c0 -36 26 -59 66 -59c20 0 41 4 56 10c3 1 4 0 4 -4v-39c0 -4 -1 -7 -4 -8c-15 -9 -44 -14 -75 -14c-54 0 -111 28 -111 98c0 57 43 102 72 131c-2 2 -2 5 -2 10z" />
    <glyph glyph-name="Uogonek" unicode="&#x172;" horiz-adv-x="631" 
d="M458 26c-81 -51 -114 -96 -114 -137c0 -33 24 -57 64 -57c23 0 42 5 54 10c4 2 6 0 6 -3v-36c0 -6 -2 -8 -6 -10c-17 -10 -46 -15 -72 -15c-50 0 -107 26 -107 95c0 43 30 85 73 120c-10 -1 -18 -2 -40 -2c-140 0 -235 73 -235 235v427c0 4 1 6 6 6h55c3 0 5 -1 5 -5
v-423c0 -115 63 -180 171 -180c84 0 167 35 167 183v420c0 4 2 5 6 5h55c4 0 5 -1 5 -5v-421c0 -106 -37 -170 -93 -207z" />
    <glyph glyph-name="Ohorn" unicode="&#x1a0;" horiz-adv-x="665" 
d="M533 737h48c5 0 7 -2 8 -6c4 -11 6 -25 6 -44c0 -46 -26 -81 -70 -92c61 -60 95 -152 95 -261c1 -222 -118 -343 -279 -343c-180 0 -285 141 -285 341c0 208 121 337 283 337c54 0 101 -14 141 -38c47 0 55 26 55 56c0 11 -2 30 -5 44c-1 4 0 6 3 6zM124 332
c0 -151 74 -281 218 -281c135 0 211 113 211 281c0 162 -85 277 -216 277c-118 0 -213 -94 -213 -277z" />
    <glyph glyph-name="Uhorn" unicode="&#x1af;" horiz-adv-x="631" 
d="M573 766h47c6 0 7 -2 8 -7c4 -11 6 -25 6 -44c0 -50 -32 -88 -84 -95v-386c0 -178 -103 -243 -235 -243c-139 0 -234 74 -234 237v425c0 4 1 6 6 6h55c3 0 5 -1 5 -5v-422c0 -114 63 -181 171 -181c84 0 166 37 166 184v419c0 4 1 5 5 5h29c48 1 56 27 56 56
c0 11 -2 30 -5 44c-1 4 0 7 4 7z" />
    <glyph glyph-name="Agrave" unicode="&#xc0;" horiz-adv-x="572" 
d="M407 224h-248l-74 -219c-2 -4 -3 -5 -8 -5h-52c-5 0 -6 2 -5 7l213 613c2 7 4 13 5 35c0 3 2 4 5 4h78c4 0 5 -1 6 -4l226 -649c1 -4 0 -6 -4 -6h-59c-4 0 -6 2 -7 5zM178 285h211c-21 65 -87 253 -105 321h-1c-17 -64 -66 -203 -105 -321zM322 726c3 -4 1 -6 -3 -6h-59
c-4 0 -7 0 -11 4l-128 104c-3 4 -1 7 2 7h72c4 0 6 -1 9 -4z" />
    <glyph glyph-name="Aacute" unicode="&#xc1;" horiz-adv-x="572" 
d="M407 224h-248l-74 -219c-2 -4 -3 -5 -8 -5h-52c-5 0 -6 2 -5 7l213 613c2 7 4 13 5 35c0 3 2 4 5 4h78c4 0 5 -1 6 -4l226 -649c1 -4 0 -6 -4 -6h-59c-4 0 -6 2 -7 5zM178 285h211c-21 65 -87 253 -105 321h-1c-17 -64 -66 -203 -105 -321zM236 724l122 109c3 3 5 3 8 3
h70c4 0 5 -4 2 -7l-129 -106c-3 -4 -6 -4 -10 -4h-60c-4 0 -5 3 -3 5z" />
    <glyph glyph-name="Acircumflex" unicode="&#xc2;" horiz-adv-x="572" 
d="M407 224h-248l-74 -219c-2 -4 -3 -5 -8 -5h-52c-5 0 -6 2 -5 7l213 613c2 7 4 13 5 35c0 3 2 4 5 4h78c4 0 5 -1 6 -4l226 -649c1 -4 0 -6 -4 -6h-59c-4 0 -6 2 -7 5zM178 285h211c-21 65 -87 253 -105 321h-1c-17 -64 -66 -203 -105 -321zM357 713l-76 78l-74 -78
c-2 -2 -5 -4 -9 -4h-51c-4 0 -4 5 -2 7l102 107c2 2 4 3 6 3h57c5 0 8 -2 10 -4l106 -108c2 -3 0 -5 -3 -5h-56c-5 0 -8 1 -10 4z" />
    <glyph glyph-name="Atilde" unicode="&#xc3;" horiz-adv-x="572" 
d="M407 224h-248l-74 -219c-2 -4 -3 -5 -8 -5h-52c-5 0 -6 2 -5 7l213 613c2 7 4 13 5 35c0 3 2 4 5 4h78c4 0 5 -1 6 -4l226 -649c1 -4 0 -6 -4 -6h-59c-4 0 -6 2 -7 5zM178 285h211c-21 65 -87 253 -105 321h-1c-17 -64 -66 -203 -105 -321zM183 718h-39c-4 0 -4 2 -5 5
c2 60 39 98 85 98c60 0 85 -53 121 -53c21 0 33 17 36 46c0 3 1 4 5 4h39c3 0 5 -1 5 -4c-6 -73 -41 -97 -81 -97c-56 0 -82 53 -121 53c-20 0 -36 -15 -40 -48c0 -2 -2 -4 -5 -4z" />
    <glyph glyph-name="Amacron" unicode="&#x100;" horiz-adv-x="572" 
d="M407 224h-248l-74 -219c-2 -4 -3 -5 -8 -5h-52c-5 0 -6 2 -5 7l213 613c2 7 4 13 5 35c0 3 2 4 5 4h78c4 0 5 -1 6 -4l226 -649c1 -4 0 -6 -4 -6h-59c-4 0 -6 2 -7 5zM178 285h211c-21 65 -87 253 -105 321h-1c-17 -64 -66 -203 -105 -321zM159 791h251c3 0 4 -2 4 -5
v-44c0 -4 -2 -6 -5 -6h-248c-4 0 -6 2 -6 6v44c0 3 1 5 4 5z" />
    <glyph glyph-name="Abreve" unicode="&#x102;" horiz-adv-x="572" 
d="M407 224h-248l-74 -219c-2 -4 -3 -5 -8 -5h-52c-5 0 -6 2 -5 7l213 613c2 7 4 13 5 35c0 3 2 4 5 4h78c4 0 5 -1 6 -4l226 -649c1 -4 0 -6 -4 -6h-59c-4 0 -6 2 -7 5zM178 285h211c-21 65 -87 253 -105 321h-1c-17 -64 -66 -203 -105 -321zM150 833h46c3 0 4 -1 5 -5
c11 -36 37 -60 81 -60c39 0 69 17 84 60c1 3 2 5 6 5h44c4 0 5 -3 4 -6c-13 -70 -68 -113 -138 -113c-71 0 -124 38 -137 113c0 3 1 6 5 6z" />
    <glyph glyph-name="Adieresis" unicode="&#xc4;" horiz-adv-x="572" 
d="M407 224h-248l-74 -219c-2 -4 -3 -5 -8 -5h-52c-5 0 -6 2 -5 7l213 613c2 7 4 13 5 35c0 3 2 4 5 4h78c4 0 5 -1 6 -4l226 -649c1 -4 0 -6 -4 -6h-59c-4 0 -6 2 -7 5zM178 285h211c-21 65 -87 253 -105 321h-1c-17 -64 -66 -203 -105 -321zM192 726c-23 0 -39 15 -39 38
c0 22 18 38 41 38s39 -17 39 -38c0 -23 -17 -38 -41 -38zM373 726c-22 0 -39 15 -39 38c0 22 18 38 41 38c22 0 39 -16 39 -38c0 -24 -16 -38 -41 -38z" />
    <glyph glyph-name="uni1EA2" unicode="&#x1ea2;" horiz-adv-x="572" 
d="M407 224h-248l-74 -219c-2 -4 -3 -5 -8 -5h-52c-5 0 -6 2 -5 7l213 613c2 7 4 13 5 35c0 3 2 4 5 4h78c4 0 5 -1 6 -4l226 -649c1 -4 0 -6 -4 -6h-59c-4 0 -6 2 -7 5zM178 285h211c-21 65 -87 253 -105 321h-1c-17 -64 -66 -203 -105 -321zM196 807v33c0 3 1 4 3 6
c21 12 53 21 82 21c59 0 93 -30 93 -70c0 -52 -64 -86 -112 -99c-3 -1 -5 0 -5 3v32c0 3 1 5 3 6c34 17 56 31 56 53c0 18 -16 31 -44 31c-25 0 -46 -7 -70 -19c-4 -2 -6 0 -6 3z" />
    <glyph glyph-name="Aring" unicode="&#xc5;" horiz-adv-x="572" 
d="M407 224h-248l-74 -219c-2 -4 -3 -5 -8 -5h-52c-5 0 -6 2 -5 7l213 613c2 7 4 13 5 35c0 3 2 4 5 4h78c4 0 5 -1 6 -4l226 -649c1 -4 0 -6 -4 -6h-59c-4 0 -6 2 -7 5zM178 285h211c-21 65 -87 253 -105 321h-1c-17 -64 -66 -203 -105 -321zM184 776c0 50 41 82 98 82
c59 0 97 -34 97 -82c0 -49 -40 -84 -97 -84c-59 0 -98 35 -98 84zM227 776c0 -28 23 -47 55 -47c33 0 56 17 56 47c0 29 -24 47 -56 47c-33 0 -55 -18 -55 -47z" />
    <glyph glyph-name="uni01CD" unicode="&#x1cd;" horiz-adv-x="572" 
d="M407 224h-248l-74 -219c-2 -4 -3 -5 -8 -5h-52c-5 0 -6 2 -5 7l213 613c2 7 4 13 5 35c0 3 2 4 5 4h78c4 0 5 -1 6 -4l226 -649c1 -4 0 -6 -4 -6h-59c-4 0 -6 2 -7 5zM178 285h211c-21 65 -87 253 -105 321h-1c-17 -64 -66 -203 -105 -321zM212 824l76 -78l74 78
c2 2 4 4 8 4h52c4 0 4 -5 2 -7l-102 -107c-2 -2 -4 -2 -6 -2h-58c-4 0 -7 1 -9 3l-106 108c-3 3 -1 5 3 5h56c5 0 7 -1 10 -4z" />
    <glyph glyph-name="uni1EA0" unicode="&#x1ea0;" horiz-adv-x="572" 
d="M407 224h-248l-74 -219c-2 -4 -3 -5 -8 -5h-52c-5 0 -6 2 -5 7l213 613c2 7 4 13 5 35c0 3 2 4 5 4h78c4 0 5 -1 6 -4l226 -649c1 -4 0 -6 -4 -6h-59c-4 0 -6 2 -7 5zM178 285h211c-21 65 -87 253 -105 321h-1c-17 -64 -66 -203 -105 -321zM285 -154c-24 0 -41 17 -41 41
c0 23 18 41 42 41s40 -18 40 -41s-15 -41 -41 -41z" />
    <glyph glyph-name="uni1EAC" unicode="&#x1eac;" horiz-adv-x="572" 
d="M407 224h-248l-74 -219c-2 -4 -3 -5 -8 -5h-52c-5 0 -6 2 -5 7l213 613c2 7 4 13 5 35c0 3 2 4 5 4h78c4 0 5 -1 6 -4l226 -649c1 -4 0 -6 -4 -6h-59c-4 0 -6 2 -7 5zM178 285h211c-21 65 -87 253 -105 321h-1c-17 -64 -66 -203 -105 -321zM357 704l-76 78l-74 -78
c-2 -2 -5 -4 -9 -4h-51c-4 0 -4 5 -2 7l102 107c2 2 4 3 6 3h57c5 0 8 -2 10 -4l106 -108c2 -3 0 -5 -3 -5h-56c-5 0 -8 1 -10 4zM283 -152c-24 0 -41 17 -41 41c0 23 18 41 42 41s40 -18 40 -41s-15 -41 -41 -41z" />
    <glyph glyph-name="uni1EA6" unicode="&#x1ea6;" horiz-adv-x="572" 
d="M407 224h-248l-74 -219c-2 -4 -3 -5 -8 -5h-52c-5 0 -6 2 -5 7l213 613c2 7 4 13 5 35c0 3 2 4 5 4h78c4 0 5 -1 6 -4l226 -649c1 -4 0 -6 -4 -6h-59c-4 0 -6 2 -7 5zM178 285h211c-21 65 -87 253 -105 321h-1c-17 -64 -66 -203 -105 -321zM519 790c2 -4 1 -6 -3 -6h-48
c-4 0 -6 1 -9 4l-101 95c-1 3 -1 6 2 6h61c3 0 5 -1 8 -5zM201 711h-49c-5 0 -6 2 -3 6l99 99c2 2 4 3 7 3h52c5 0 6 -2 8 -4l106 -99c3 -3 0 -5 -5 -5h-54c-5 0 -8 2 -10 4l-73 67l-69 -68c-3 -3 -5 -3 -9 -3z" />
    <glyph glyph-name="uni1EA4" unicode="&#x1ea4;" horiz-adv-x="572" 
d="M407 224h-248l-74 -219c-2 -4 -3 -5 -8 -5h-52c-5 0 -6 2 -5 7l213 613c2 7 4 13 5 35c0 3 2 4 5 4h78c4 0 5 -1 6 -4l226 -649c1 -4 0 -6 -4 -6h-59c-4 0 -6 2 -7 5zM178 285h211c-21 65 -87 253 -105 321h-1c-17 -64 -66 -203 -105 -321zM385 804l82 86c3 4 4 5 8 5h59
c4 0 5 -3 2 -7l-95 -86c-4 -3 -5 -4 -9 -4h-44c-4 0 -5 3 -3 6zM202 710h-49c-5 0 -6 2 -3 6l99 99c2 2 4 3 7 3h52c5 0 6 -2 8 -4l106 -99c3 -3 0 -5 -5 -5h-54c-5 0 -8 2 -10 4l-73 67l-69 -68c-3 -3 -5 -3 -9 -3z" />
    <glyph glyph-name="uni1EAA" unicode="&#x1eaa;" horiz-adv-x="572" 
d="M407 224h-248l-74 -219c-2 -4 -3 -5 -8 -5h-52c-5 0 -6 2 -5 7l213 613c2 7 4 13 5 35c0 3 2 4 5 4h78c4 0 5 -1 6 -4l226 -649c1 -4 0 -6 -4 -6h-59c-4 0 -6 2 -7 5zM178 285h211c-21 65 -87 253 -105 321h-1c-17 -64 -66 -203 -105 -321zM282 751l-70 -48
c-1 -2 -5 -3 -9 -3h-55c-5 0 -4 4 -2 6l103 77c2 2 5 3 7 3h52c5 0 6 -1 9 -3l106 -78c2 -2 1 -5 -3 -5h-57c-6 0 -11 2 -12 4zM187 823h-40c-4 0 -5 2 -5 4c4 47 37 74 82 74c53 0 80 -36 114 -36c17 0 29 10 33 32c1 1 2 4 5 4h41c3 0 3 -1 3 -4c-7 -54 -40 -75 -79 -75
c-50 0 -77 38 -113 38c-18 0 -31 -8 -37 -35c0 -1 -1 -2 -4 -2z" />
    <glyph glyph-name="uni1EA8" unicode="&#x1ea8;" horiz-adv-x="572" 
d="M407 224h-248l-74 -219c-2 -4 -3 -5 -8 -5h-52c-5 0 -6 2 -5 7l213 613c2 7 4 13 5 35c0 3 2 4 5 4h78c4 0 5 -1 6 -4l226 -649c1 -4 0 -6 -4 -6h-59c-4 0 -6 2 -7 5zM178 285h211c-21 65 -87 253 -105 321h-1c-17 -64 -66 -203 -105 -321zM358 873v28c1 3 1 4 3 5
c17 9 44 17 69 17c49 0 78 -25 78 -58c0 -42 -54 -74 -94 -84c-4 -1 -4 1 -4 3v29c0 2 0 4 3 5c26 14 43 25 43 43c0 14 -12 23 -35 23c-21 0 -38 -5 -57 -14c-3 -2 -6 -1 -6 3zM199 708h-49c-5 0 -6 2 -3 6l99 99c2 2 4 3 7 3h52c5 0 6 -2 8 -4l106 -99c3 -3 0 -5 -5 -5
h-54c-5 0 -8 2 -10 4l-73 67l-69 -68c-3 -3 -5 -3 -9 -3z" />
    <glyph glyph-name="uni1EB6" unicode="&#x1eb6;" horiz-adv-x="572" 
d="M407 224h-248l-74 -219c-2 -4 -3 -5 -8 -5h-52c-5 0 -6 2 -5 7l213 613c2 7 4 13 5 35c0 3 2 4 5 4h78c4 0 5 -1 6 -4l226 -649c1 -4 0 -6 -4 -6h-59c-4 0 -6 2 -7 5zM178 285h211c-21 65 -87 253 -105 321h-1c-17 -64 -66 -203 -105 -321zM151 833h46c3 0 4 -1 5 -5
c11 -36 37 -60 81 -60c39 0 69 17 84 60c1 3 2 5 6 5h44c4 0 5 -3 4 -6c-13 -70 -68 -113 -138 -113c-71 0 -124 38 -137 113c0 3 1 6 5 6zM285 -164c-24 0 -41 17 -41 41c0 23 18 41 42 41s40 -18 40 -41s-15 -41 -41 -41z" />
    <glyph glyph-name="uni1EB0" unicode="&#x1eb0;" horiz-adv-x="572" 
d="M407 224h-248l-74 -219c-2 -4 -3 -5 -8 -5h-52c-5 0 -6 2 -5 7l213 613c2 7 4 13 5 35c0 3 2 4 5 4h78c4 0 5 -1 6 -4l226 -649c1 -4 0 -6 -4 -6h-59c-4 0 -6 2 -7 5zM178 285h211c-21 65 -87 253 -105 321h-1c-17 -64 -66 -203 -105 -321zM326 832c3 -4 1 -8 -4 -8h-53
c-4 0 -7 1 -11 5l-80 78c-3 3 -2 8 3 8h61c6 0 8 -2 12 -6zM145 807h49c3 0 5 -1 6 -4c14 -27 39 -44 82 -44c42 0 68 14 87 44c1 2 3 4 7 4h46c3 0 5 -2 4 -4c-22 -56 -71 -89 -144 -89s-122 31 -140 88c-1 3 1 5 3 5z" />
    <glyph glyph-name="uni1EAE" unicode="&#x1eae;" horiz-adv-x="572" 
d="M407 224h-248l-74 -219c-2 -4 -3 -5 -8 -5h-52c-5 0 -6 2 -5 7l213 613c2 7 4 13 5 35c0 3 2 4 5 4h78c4 0 5 -1 6 -4l226 -649c1 -4 0 -6 -4 -6h-59c-4 0 -6 2 -7 5zM178 285h211c-21 65 -87 253 -105 321h-1c-17 -64 -66 -203 -105 -321zM145 807h49c3 0 5 -1 6 -4
c14 -27 39 -44 82 -44c42 0 68 14 87 44c1 2 3 4 7 4h46c3 0 5 -2 4 -4c-22 -56 -71 -89 -144 -89s-122 31 -140 88c-1 3 1 5 3 5zM244 829l74 80c4 3 5 5 10 5h65c3 0 4 -4 2 -6l-81 -81c-3 -3 -6 -4 -10 -4h-57c-4 0 -6 2 -3 6z" />
    <glyph glyph-name="uni1EB4" unicode="&#x1eb4;" horiz-adv-x="572" 
d="M407 224h-248l-74 -219c-2 -4 -3 -5 -8 -5h-52c-5 0 -6 2 -5 7l213 613c2 7 4 13 5 35c0 3 2 4 5 4h78c4 0 5 -1 6 -4l226 -649c1 -4 0 -6 -4 -6h-59c-4 0 -6 2 -7 5zM178 285h211c-21 65 -87 253 -105 321h-1c-17 -64 -66 -203 -105 -321zM156 797h45c3 0 4 0 5 -3
c13 -27 36 -42 78 -42c39 0 64 11 80 41c2 3 2 4 6 4h43c4 0 5 -2 4 -5c-17 -52 -66 -82 -133 -82s-117 28 -131 82c-1 3 0 5 3 5zM189 841h-39c-4 0 -5 2 -5 5c6 46 37 74 83 74c51 0 81 -39 115 -39c20 0 29 12 35 33c0 3 2 4 5 4h39c3 0 4 -2 4 -5
c-9 -59 -41 -73 -80 -73c-50 0 -76 39 -114 39c-19 0 -32 -10 -37 -35c0 -1 -2 -3 -6 -3z" />
    <glyph glyph-name="uni1EB2" unicode="&#x1eb2;" horiz-adv-x="572" 
d="M407 224h-248l-74 -219c-2 -4 -3 -5 -8 -5h-52c-5 0 -6 2 -5 7l213 613c2 7 4 13 5 35c0 3 2 4 5 4h78c4 0 5 -1 6 -4l226 -649c1 -4 0 -6 -4 -6h-59c-4 0 -6 2 -7 5zM178 285h211c-21 65 -87 253 -105 321h-1c-17 -64 -66 -203 -105 -321zM213 906v26c1 3 1 4 3 6
c17 11 43 17 69 17c51 0 78 -26 78 -63c0 -46 -53 -76 -94 -87c-3 0 -4 1 -5 3v28c0 3 2 4 4 5c28 15 43 28 43 46c0 17 -11 30 -35 30c-21 0 -38 -4 -58 -14c-4 -2 -5 0 -5 3zM145 799h49c3 0 5 -1 6 -4c14 -26 39 -44 82 -44c42 0 68 14 87 44c1 2 3 4 7 4h46
c3 0 5 -2 4 -4c-22 -56 -71 -89 -144 -89s-122 31 -140 88c-1 3 1 5 3 5z" />
    <glyph glyph-name="Cacute" unicode="&#x106;" horiz-adv-x="542" 
d="M501 65v-48c0 -5 -2 -8 -5 -9c-31 -13 -73 -17 -126 -17c-152 0 -320 90 -320 341c0 200 133 337 333 337c62 0 99 -7 119 -17c3 -1 4 -3 4 -7v-53c0 -6 -3 -6 -6 -4c-25 13 -66 21 -119 21c-155 0 -263 -107 -263 -274c0 -226 160 -283 259 -283c48 0 83 3 118 17
c3 1 6 1 6 -4zM283 740l122 109c3 3 5 3 8 3h70c4 0 5 -4 2 -7l-129 -106c-3 -4 -6 -4 -10 -4h-60c-4 0 -5 3 -3 5z" />
    <glyph glyph-name="Ccircumflex" unicode="&#x108;" horiz-adv-x="542" 
d="M501 65v-48c0 -5 -2 -8 -5 -9c-31 -13 -73 -17 -126 -17c-152 0 -320 90 -320 341c0 200 133 337 333 337c62 0 99 -7 119 -17c3 -1 4 -3 4 -7v-53c0 -6 -3 -6 -6 -4c-25 13 -66 21 -119 21c-155 0 -263 -107 -263 -274c0 -226 160 -283 259 -283c48 0 83 3 118 17
c3 1 6 1 6 -4zM403 732l-76 78l-74 -78c-2 -2 -5 -4 -9 -4h-51c-4 0 -4 5 -2 7l102 107c2 2 4 3 6 3h57c5 0 8 -2 10 -4l106 -108c2 -3 0 -5 -3 -5h-56c-5 0 -8 1 -10 4z" />
    <glyph glyph-name="Cdotaccent" unicode="&#x10a;" horiz-adv-x="542" 
d="M501 65v-48c0 -5 -2 -8 -5 -9c-31 -13 -73 -17 -126 -17c-152 0 -320 90 -320 341c0 200 133 337 333 337c62 0 99 -7 119 -17c3 -1 4 -3 4 -7v-53c0 -6 -3 -6 -6 -4c-25 13 -66 21 -119 21c-155 0 -263 -107 -263 -274c0 -226 160 -283 259 -283c48 0 83 3 118 17
c3 1 6 1 6 -4zM335 749c-25 0 -41 17 -41 39c0 23 17 38 43 38c24 0 40 -15 40 -38c0 -22 -14 -39 -42 -39z" />
    <glyph glyph-name="Ccaron" unicode="&#x10c;" horiz-adv-x="542" 
d="M501 65v-48c0 -5 -2 -8 -5 -9c-31 -13 -73 -17 -126 -17c-152 0 -320 90 -320 341c0 200 133 337 333 337c62 0 99 -7 119 -17c3 -1 4 -3 4 -7v-53c0 -6 -3 -6 -6 -4c-25 13 -66 21 -119 21c-155 0 -263 -107 -263 -274c0 -226 160 -283 259 -283c48 0 83 3 118 17
c3 1 6 1 6 -4zM261 837l76 -78l74 78c2 2 4 4 8 4h52c4 0 4 -5 2 -7l-102 -107c-2 -2 -4 -2 -6 -2h-58c-4 0 -7 1 -9 3l-106 108c-3 3 -1 5 3 5h56c5 0 7 -1 10 -4z" />
    <glyph glyph-name="Ccedilla" unicode="&#xc7;" horiz-adv-x="542" 
d="M501 65v-48c0 -5 -2 -8 -5 -9c-31 -13 -73 -17 -126 -17h-6l-25 -37c58 -16 82 -48 82 -87c0 -51 -42 -82 -97 -82c-26 0 -49 5 -64 13c-3 1 -4 3 -4 6v34c0 3 1 4 5 4c18 -10 41 -14 60 -14c29 0 48 11 48 37c0 29 -29 48 -90 57c-3 1 -2 12 -1 15l41 57
c-137 19 -269 115 -269 338c0 200 133 337 333 337c62 0 99 -7 119 -17c3 -1 4 -3 4 -7v-53c0 -6 -3 -6 -6 -4c-25 13 -66 21 -119 21c-155 0 -263 -107 -263 -274c0 -226 160 -283 259 -283c48 0 83 3 118 17c3 1 6 1 6 -4z" />
    <glyph glyph-name="Dcaron" unicode="&#x10e;" horiz-adv-x="636" 
d="M90 8v643c0 4 1 6 5 7c23 1 68 3 160 3c214 0 331 -129 331 -319c0 -261 -187 -344 -343 -344c-51 0 -116 1 -148 2c-4 0 -5 3 -5 8zM156 601v-542c18 -1 55 -2 85 -2c159 0 277 89 277 283c1 178 -115 263 -264 263c-35 0 -71 -1 -98 -2zM206 834l76 -78l74 78
c2 2 4 4 8 4h52c4 0 4 -5 2 -7l-102 -107c-2 -2 -4 -2 -6 -2h-58c-4 0 -7 1 -9 3l-106 108c-3 3 -1 5 3 5h56c5 0 7 -1 10 -4z" />
    <glyph glyph-name="uni1E0C" unicode="&#x1e0c;" horiz-adv-x="636" 
d="M90 8v643c0 4 1 6 5 7c23 1 68 3 160 3c214 0 331 -129 331 -319c0 -261 -187 -344 -343 -344c-51 0 -116 1 -148 2c-4 0 -5 3 -5 8zM156 601v-542c18 -1 55 -2 85 -2c159 0 277 89 277 283c1 178 -115 263 -264 263c-35 0 -71 -1 -98 -2zM276 -168c-25 0 -42 19 -42 42
c0 25 18 43 43 43s41 -19 41 -42c0 -24 -15 -43 -42 -43z" />
    <glyph glyph-name="uni1E0E" unicode="&#x1e0e;" horiz-adv-x="636" 
d="M90 8v643c0 4 1 6 5 7c23 1 68 3 160 3c214 0 331 -129 331 -319c0 -261 -187 -344 -343 -344c-51 0 -116 1 -148 2c-4 0 -5 3 -5 8zM156 601v-542c18 -1 55 -2 85 -2c159 0 277 89 277 283c1 178 -115 263 -264 263c-35 0 -71 -1 -98 -2zM167 -90h227c2 0 4 -1 4 -5v-42
c0 -4 -2 -5 -5 -5h-226c-4 0 -5 2 -5 5v43c0 3 2 4 5 4z" />
    <glyph glyph-name="Egrave" unicode="&#xc8;" horiz-adv-x="500" 
d="M470 55l-9 -50c-1 -4 -3 -5 -7 -5h-357c-6 0 -7 2 -7 7v646c0 4 1 6 6 6h342c4 0 5 -1 6 -5l7 -49c1 -4 -1 -6 -6 -6h-289v-231h261c3 0 5 -1 5 -5v-50c0 -4 -2 -5 -6 -5h-260v-247h309c4 0 6 -2 5 -6zM316 726c3 -4 1 -6 -3 -6h-59c-4 0 -7 0 -11 4l-128 104
c-3 4 -1 7 2 7h72c4 0 6 -1 9 -4z" />
    <glyph glyph-name="Eacute" unicode="&#xc9;" horiz-adv-x="500" 
d="M470 55l-9 -50c-1 -4 -3 -5 -7 -5h-357c-6 0 -7 2 -7 7v646c0 4 1 6 6 6h342c4 0 5 -1 6 -5l7 -49c1 -4 -1 -6 -6 -6h-289v-231h261c3 0 5 -1 5 -5v-50c0 -4 -2 -5 -6 -5h-260v-247h309c4 0 6 -2 5 -6zM211 725l122 109c3 3 5 3 8 3h70c4 0 5 -4 2 -7l-129 -106
c-3 -4 -6 -4 -10 -4h-60c-4 0 -5 3 -3 5z" />
    <glyph glyph-name="Ecircumflex" unicode="&#xca;" horiz-adv-x="500" 
d="M470 55l-9 -50c-1 -4 -3 -5 -7 -5h-357c-6 0 -7 2 -7 7v646c0 4 1 6 6 6h342c4 0 5 -1 6 -5l7 -49c1 -4 -1 -6 -6 -6h-289v-231h261c3 0 5 -1 5 -5v-50c0 -4 -2 -5 -6 -5h-260v-247h309c4 0 6 -2 5 -6zM337 720l-76 78l-74 -78c-2 -2 -5 -4 -9 -4h-51c-4 0 -4 5 -2 7
l102 107c2 2 4 3 6 3h57c5 0 8 -2 10 -4l106 -108c2 -3 0 -5 -3 -5h-56c-5 0 -8 1 -10 4z" />
    <glyph glyph-name="uni1EBC" unicode="&#x1ebc;" horiz-adv-x="500" 
d="M470 55l-9 -50c-1 -4 -3 -5 -7 -5h-357c-6 0 -7 2 -7 7v646c0 4 1 6 6 6h342c4 0 5 -1 6 -5l7 -49c1 -4 -1 -6 -6 -6h-289v-231h261c3 0 5 -1 5 -5v-50c0 -4 -2 -5 -6 -5h-260v-247h309c4 0 6 -2 5 -6zM162 742h-39c-4 0 -4 2 -5 5c2 60 39 98 85 98c60 0 85 -53 121 -53
c21 0 33 17 36 46c0 3 1 4 5 4h39c3 0 5 -1 5 -4c-6 -73 -41 -97 -81 -97c-56 0 -82 53 -121 53c-20 0 -36 -15 -40 -48c0 -2 -2 -4 -5 -4z" />
    <glyph glyph-name="Emacron" unicode="&#x112;" horiz-adv-x="500" 
d="M470 55l-9 -50c-1 -4 -3 -5 -7 -5h-357c-6 0 -7 2 -7 7v646c0 4 1 6 6 6h342c4 0 5 -1 6 -5l7 -49c1 -4 -1 -6 -6 -6h-289v-231h261c3 0 5 -1 5 -5v-50c0 -4 -2 -5 -6 -5h-260v-247h309c4 0 6 -2 5 -6zM137 803h251c3 0 4 -2 4 -5v-44c0 -4 -2 -6 -5 -6h-248
c-4 0 -6 2 -6 6v44c0 3 1 5 4 5z" />
    <glyph glyph-name="Ebreve" unicode="&#x114;" horiz-adv-x="500" 
d="M470 55l-9 -50c-1 -4 -3 -5 -7 -5h-357c-6 0 -7 2 -7 7v646c0 4 1 6 6 6h342c4 0 5 -1 6 -5l7 -49c1 -4 -1 -6 -6 -6h-289v-231h261c3 0 5 -1 5 -5v-50c0 -4 -2 -5 -6 -5h-260v-247h309c4 0 6 -2 5 -6zM130 839h46c3 0 4 -1 5 -5c11 -36 37 -60 81 -60c39 0 69 17 84 60
c1 3 2 5 6 5h44c4 0 5 -3 4 -6c-13 -70 -68 -113 -138 -113c-71 0 -124 38 -137 113c0 3 1 6 5 6z" />
    <glyph glyph-name="Edotaccent" unicode="&#x116;" horiz-adv-x="500" 
d="M470 55l-9 -50c-1 -4 -3 -5 -7 -5h-357c-6 0 -7 2 -7 7v646c0 4 1 6 6 6h342c4 0 5 -1 6 -5l7 -49c1 -4 -1 -6 -6 -6h-289v-231h261c3 0 5 -1 5 -5v-50c0 -4 -2 -5 -6 -5h-260v-247h309c4 0 6 -2 5 -6zM265 737c-25 0 -41 17 -41 39c0 23 17 38 43 38c24 0 40 -15 40 -38
c0 -22 -14 -39 -42 -39z" />
    <glyph glyph-name="Edieresis" unicode="&#xcb;" horiz-adv-x="500" 
d="M470 55l-9 -50c-1 -4 -3 -5 -7 -5h-357c-6 0 -7 2 -7 7v646c0 4 1 6 6 6h342c4 0 5 -1 6 -5l7 -49c1 -4 -1 -6 -6 -6h-289v-231h261c3 0 5 -1 5 -5v-50c0 -4 -2 -5 -6 -5h-260v-247h309c4 0 6 -2 5 -6zM171 735c-23 0 -39 15 -39 38c0 22 18 38 41 38s39 -17 39 -38
c0 -23 -17 -38 -41 -38zM352 735c-22 0 -39 15 -39 38c0 22 18 38 41 38c22 0 39 -16 39 -38c0 -24 -16 -38 -41 -38z" />
    <glyph glyph-name="uni1EBA" unicode="&#x1eba;" horiz-adv-x="500" 
d="M470 55l-9 -50c-1 -4 -3 -5 -7 -5h-357c-6 0 -7 2 -7 7v646c0 4 1 6 6 6h342c4 0 5 -1 6 -5l7 -49c1 -4 -1 -6 -6 -6h-289v-231h261c3 0 5 -1 5 -5v-50c0 -4 -2 -5 -6 -5h-260v-247h309c4 0 6 -2 5 -6zM176 822v33c0 3 1 4 3 6c21 12 53 21 82 21c59 0 93 -30 93 -70
c0 -52 -64 -86 -112 -99c-3 -1 -5 0 -5 3v32c0 3 1 5 3 6c34 17 56 31 56 53c0 18 -16 31 -44 31c-25 0 -46 -7 -70 -19c-4 -2 -6 0 -6 3z" />
    <glyph glyph-name="Ecaron" unicode="&#x11a;" horiz-adv-x="500" 
d="M470 55l-9 -50c-1 -4 -3 -5 -7 -5h-357c-6 0 -7 2 -7 7v646c0 4 1 6 6 6h342c4 0 5 -1 6 -5l7 -49c1 -4 -1 -6 -6 -6h-289v-231h261c3 0 5 -1 5 -5v-50c0 -4 -2 -5 -6 -5h-260v-247h309c4 0 6 -2 5 -6zM189 832l76 -78l74 78c2 2 4 4 8 4h52c4 0 4 -5 2 -7l-102 -107
c-2 -2 -4 -2 -6 -2h-58c-4 0 -7 1 -9 3l-106 108c-3 3 -1 5 3 5h56c5 0 7 -1 10 -4z" />
    <glyph glyph-name="uni1EB8" unicode="&#x1eb8;" horiz-adv-x="500" 
d="M470 55l-9 -50c-1 -4 -3 -5 -7 -5h-357c-6 0 -7 2 -7 7v646c0 4 1 6 6 6h342c4 0 5 -1 6 -5l7 -49c1 -4 -1 -6 -6 -6h-289v-231h261c3 0 5 -1 5 -5v-50c0 -4 -2 -5 -6 -5h-260v-247h309c4 0 6 -2 5 -6zM277 -167c-24 0 -41 17 -41 41c0 23 18 41 42 41s40 -18 40 -41
s-15 -41 -41 -41z" />
    <glyph glyph-name="uni1EC0" unicode="&#x1ec0;" horiz-adv-x="500" 
d="M470 55l-9 -50c-1 -4 -3 -5 -7 -5h-357c-6 0 -7 2 -7 7v646c0 4 1 6 6 6h342c4 0 5 -1 6 -5l7 -49c1 -4 -1 -6 -6 -6h-289v-231h261c3 0 5 -1 5 -5v-50c0 -4 -2 -5 -6 -5h-260v-247h309c4 0 6 -2 5 -6zM496 802c2 -4 1 -6 -3 -6h-48c-4 0 -6 1 -9 4l-101 95
c-1 3 -1 6 2 6h61c3 0 5 -1 8 -5zM178 723h-49c-5 0 -6 2 -3 6l99 99c2 2 4 3 7 3h52c5 0 6 -2 8 -4l106 -99c3 -3 0 -5 -5 -5h-54c-5 0 -8 2 -10 4l-73 67l-69 -68c-3 -3 -5 -3 -9 -3z" />
    <glyph glyph-name="uni1EBE" unicode="&#x1ebe;" horiz-adv-x="500" 
d="M470 55l-9 -50c-1 -4 -3 -5 -7 -5h-357c-6 0 -7 2 -7 7v646c0 4 1 6 6 6h342c4 0 5 -1 6 -5l7 -49c1 -4 -1 -6 -6 -6h-289v-231h261c3 0 5 -1 5 -5v-50c0 -4 -2 -5 -6 -5h-260v-247h309c4 0 6 -2 5 -6zM360 817l82 86c3 4 4 5 8 5h59c4 0 5 -3 2 -7l-95 -86
c-4 -3 -5 -4 -9 -4h-44c-4 0 -5 3 -3 6zM177 723h-49c-5 0 -6 2 -3 6l99 99c2 2 4 3 7 3h52c5 0 6 -2 8 -4l106 -99c3 -3 0 -5 -5 -5h-54c-5 0 -8 2 -10 4l-73 67l-69 -68c-3 -3 -5 -3 -9 -3z" />
    <glyph glyph-name="uni1EC4" unicode="&#x1ec4;" horiz-adv-x="500" 
d="M470 55l-9 -50c-1 -4 -3 -5 -7 -5h-357c-6 0 -7 2 -7 7v646c0 4 1 6 6 6h342c4 0 5 -1 6 -5l7 -49c1 -4 -1 -6 -6 -6h-289v-231h261c3 0 5 -1 5 -5v-50c0 -4 -2 -5 -6 -5h-260v-247h309c4 0 6 -2 5 -6zM260 768l-70 -48c-1 -2 -5 -3 -9 -3h-55c-5 0 -4 4 -2 6l103 77
c2 2 5 3 7 3h52c5 0 6 -1 9 -3l106 -78c2 -2 1 -5 -3 -5h-57c-6 0 -11 2 -12 4zM165 840h-40c-4 0 -5 2 -5 4c4 47 37 74 82 74c53 0 80 -36 114 -36c17 0 29 10 33 32c1 1 2 4 5 4h41c3 0 3 -1 3 -4c-7 -54 -40 -75 -79 -75c-50 0 -77 38 -113 38c-18 0 -31 -8 -37 -35
c0 -1 -1 -2 -4 -2z" />
    <glyph glyph-name="uni1EC2" unicode="&#x1ec2;" horiz-adv-x="500" 
d="M470 55l-9 -50c-1 -4 -3 -5 -7 -5h-357c-6 0 -7 2 -7 7v646c0 4 1 6 6 6h342c4 0 5 -1 6 -5l7 -49c1 -4 -1 -6 -6 -6h-289v-231h261c3 0 5 -1 5 -5v-50c0 -4 -2 -5 -6 -5h-260v-247h309c4 0 6 -2 5 -6zM336 891v28c1 3 1 4 3 5c17 9 44 17 69 17c49 0 78 -25 78 -58
c0 -42 -54 -74 -94 -84c-4 -1 -4 1 -4 3v29c0 2 0 4 3 5c26 14 43 25 43 43c0 14 -12 23 -35 23c-21 0 -38 -5 -57 -14c-3 -2 -6 -1 -6 3zM177 726h-49c-5 0 -6 2 -3 6l99 99c2 2 4 3 7 3h52c5 0 6 -2 8 -4l106 -99c3 -3 0 -5 -5 -5h-54c-5 0 -8 2 -10 4l-73 67l-69 -68
c-3 -3 -5 -3 -9 -3z" />
    <glyph glyph-name="uni1EC6" unicode="&#x1ec6;" horiz-adv-x="500" 
d="M470 55l-9 -50c-1 -4 -3 -5 -7 -5h-357c-6 0 -7 2 -7 7v646c0 4 1 6 6 6h342c4 0 5 -1 6 -5l7 -49c1 -4 -1 -6 -6 -6h-289v-231h261c3 0 5 -1 5 -5v-50c0 -4 -2 -5 -6 -5h-260v-247h309c4 0 6 -2 5 -6zM339 718l-76 78l-74 -78c-2 -2 -5 -4 -9 -4h-51c-4 0 -4 5 -2 7
l102 107c2 2 4 3 6 3h57c5 0 8 -2 10 -4l106 -108c2 -3 0 -5 -3 -5h-56c-5 0 -8 1 -10 4zM274 -164c-24 0 -41 17 -41 41c0 23 18 41 42 41s40 -18 40 -41s-15 -41 -41 -41z" />
    <glyph glyph-name="Gcircumflex" unicode="&#x11c;" horiz-adv-x="623" 
d="M490 286l-144 2c-4 0 -5 2 -5 6v48c0 3 2 5 5 5h204c5 0 6 -2 6 -6v-312c1 -4 0 -6 -4 -7c-60 -25 -120 -31 -172 -31c-216 0 -330 145 -330 337c0 209 140 341 342 341c63 0 114 -7 148 -24c4 -1 5 -4 5 -8v-53c0 -5 -3 -6 -6 -4c-42 23 -94 28 -147 28
c-166 1 -274 -104 -274 -278c0 -154 91 -280 265 -280c46 0 79 5 107 17v219zM418 733l-76 78l-74 -78c-2 -2 -5 -4 -9 -4h-51c-4 0 -4 5 -2 7l102 107c2 2 4 3 6 3h57c5 0 8 -2 10 -4l106 -108c2 -3 0 -5 -3 -5h-56c-5 0 -8 1 -10 4z" />
    <glyph glyph-name="uni00470303" horiz-adv-x="623" 
d="M490 286l-144 2c-4 0 -5 2 -5 6v48c0 3 2 5 5 5h204c5 0 6 -2 6 -6v-312c1 -4 0 -6 -4 -7c-60 -25 -120 -31 -172 -31c-216 0 -330 145 -330 337c0 209 140 341 342 341c63 0 114 -7 148 -24c4 -1 5 -4 5 -8v-53c0 -5 -3 -6 -6 -4c-42 23 -94 28 -147 28
c-166 1 -274 -104 -274 -278c0 -154 91 -280 265 -280c46 0 79 5 107 17v219zM240 738h-39c-4 0 -4 2 -5 5c2 60 39 98 85 98c60 0 85 -53 121 -53c21 0 33 17 36 46c0 3 1 4 5 4h39c3 0 5 -1 5 -4c-6 -73 -41 -97 -81 -97c-56 0 -82 53 -121 53c-20 0 -36 -15 -40 -48
c0 -2 -2 -4 -5 -4z" />
    <glyph glyph-name="uni1E20" unicode="&#x1e20;" horiz-adv-x="623" 
d="M490 286l-144 2c-4 0 -5 2 -5 6v48c0 3 2 5 5 5h204c5 0 6 -2 6 -6v-312c1 -4 0 -6 -4 -7c-60 -25 -120 -31 -172 -31c-216 0 -330 145 -330 337c0 209 140 341 342 341c63 0 114 -7 148 -24c4 -1 5 -4 5 -8v-53c0 -5 -3 -6 -6 -4c-42 23 -94 28 -147 28
c-166 1 -274 -104 -274 -278c0 -154 91 -280 265 -280c46 0 79 5 107 17v219zM224 809h251c3 0 4 -2 4 -5v-44c0 -4 -2 -6 -5 -6h-248c-4 0 -6 2 -6 6v44c0 3 1 5 4 5z" />
    <glyph glyph-name="Gbreve" unicode="&#x11e;" horiz-adv-x="623" 
d="M490 286l-144 2c-4 0 -5 2 -5 6v48c0 3 2 5 5 5h204c5 0 6 -2 6 -6v-312c1 -4 0 -6 -4 -7c-60 -25 -120 -31 -172 -31c-216 0 -330 145 -330 337c0 209 140 341 342 341c63 0 114 -7 148 -24c4 -1 5 -4 5 -8v-53c0 -5 -3 -6 -6 -4c-42 23 -94 28 -147 28
c-166 1 -274 -104 -274 -278c0 -154 91 -280 265 -280c46 0 79 5 107 17v219zM216 849h46c3 0 4 -1 5 -5c11 -36 37 -60 81 -60c39 0 69 17 84 60c1 3 2 5 6 5h44c4 0 5 -3 4 -6c-13 -70 -68 -113 -138 -113c-71 0 -124 38 -137 113c0 3 1 6 5 6z" />
    <glyph glyph-name="Gdotaccent" unicode="&#x120;" horiz-adv-x="623" 
d="M490 286l-144 2c-4 0 -5 2 -5 6v48c0 3 2 5 5 5h204c5 0 6 -2 6 -6v-312c1 -4 0 -6 -4 -7c-60 -25 -120 -31 -172 -31c-216 0 -330 145 -330 337c0 209 140 341 342 341c63 0 114 -7 148 -24c4 -1 5 -4 5 -8v-53c0 -5 -3 -6 -6 -4c-42 23 -94 28 -147 28
c-166 1 -274 -104 -274 -278c0 -154 91 -280 265 -280c46 0 79 5 107 17v219zM353 753c-25 0 -41 17 -41 39c0 23 17 38 43 38c24 0 40 -15 40 -38c0 -22 -14 -39 -42 -39z" />
    <glyph glyph-name="Gcaron" unicode="&#x1e6;" horiz-adv-x="623" 
d="M490 286l-144 2c-4 0 -5 2 -5 6v48c0 3 2 5 5 5h204c5 0 6 -2 6 -6v-312c1 -4 0 -6 -4 -7c-60 -25 -120 -31 -172 -31c-216 0 -330 145 -330 337c0 209 140 341 342 341c63 0 114 -7 148 -24c4 -1 5 -4 5 -8v-53c0 -5 -3 -6 -6 -4c-42 23 -94 28 -147 28
c-166 1 -274 -104 -274 -278c0 -154 91 -280 265 -280c46 0 79 5 107 17v219zM281 839l76 -78l74 78c2 2 4 4 8 4h52c4 0 4 -5 2 -7l-102 -107c-2 -2 -4 -2 -6 -2h-58c-4 0 -7 1 -9 3l-106 108c-3 3 -1 5 3 5h56c5 0 7 -1 10 -4z" />
    <glyph glyph-name="uni0122" unicode="&#x122;" horiz-adv-x="623" 
d="M490 286l-144 2c-4 0 -5 2 -5 6v48c0 3 2 5 5 5h204c5 0 6 -2 6 -6v-312c1 -4 0 -6 -4 -7c-60 -25 -120 -31 -172 -31c-216 0 -330 145 -330 337c0 209 140 341 342 341c63 0 114 -7 148 -24c4 -1 5 -4 5 -8v-53c0 -5 -3 -6 -6 -4c-42 23 -94 28 -147 28
c-166 1 -274 -104 -274 -278c0 -154 91 -280 265 -280c46 0 79 5 107 17v219zM352 -236h-49c-3 0 -5 3 -3 6c27 46 37 78 37 117c0 18 -5 36 -12 56c-1 2 0 5 3 5h53c3 0 5 -1 7 -4c6 -11 12 -34 12 -51c0 -54 -16 -88 -42 -126c-1 -1 -3 -3 -6 -3z" />
    <glyph glyph-name="Hcircumflex" unicode="&#x124;" horiz-adv-x="647" 
d="M552 0h-55c-4 0 -6 1 -6 6v309h-335v-309c0 -4 -2 -6 -6 -6h-54c-4 0 -6 2 -6 6v647c0 5 2 6 6 6h54c5 0 6 -1 6 -5v-278h335v278c0 3 2 5 6 5h56c3 0 4 -1 4 -5v-648c0 -5 -1 -6 -5 -6zM399 722l-76 78l-74 -78c-2 -2 -5 -4 -9 -4h-51c-4 0 -4 5 -2 7l102 107
c2 2 4 3 6 3h57c5 0 8 -2 10 -4l106 -108c2 -3 0 -5 -3 -5h-56c-5 0 -8 1 -10 4z" />
    <glyph glyph-name="uni1E24" unicode="&#x1e24;" horiz-adv-x="647" 
d="M552 0h-55c-4 0 -6 1 -6 6v309h-335v-309c0 -4 -2 -6 -6 -6h-54c-4 0 -6 2 -6 6v647c0 5 2 6 6 6h54c5 0 6 -1 6 -5v-278h335v278c0 3 2 5 6 5h56c3 0 4 -1 4 -5v-648c0 -5 -1 -6 -5 -6zM323 -169c-25 0 -42 19 -42 42c0 25 18 43 43 43s41 -19 41 -42
c0 -24 -15 -43 -42 -43z" />
    <glyph glyph-name="uni1E2A" unicode="&#x1e2a;" horiz-adv-x="647" 
d="M552 0h-55c-4 0 -6 1 -6 6v309h-335v-309c0 -4 -2 -6 -6 -6h-54c-4 0 -6 2 -6 6v647c0 5 2 6 6 6h54c5 0 6 -1 6 -5v-278h335v278c0 3 2 5 6 5h56c3 0 4 -1 4 -5v-648c0 -5 -1 -6 -5 -6zM192 -68h46c3 0 4 0 5 -4c11 -36 37 -60 81 -60c39 0 69 17 84 60c1 3 2 4 5 4h45
c4 0 4 -3 4 -5c-11 -69 -68 -113 -138 -113c-71 0 -127 38 -137 113c0 3 1 5 5 5z" />
    <glyph glyph-name="Igrave" unicode="&#xcc;" horiz-adv-x="246" 
d="M156 654v-648c0 -4 -2 -6 -6 -6h-54c-5 0 -6 2 -6 6v647c0 5 1 6 5 6h55c4 0 6 -1 6 -5zM162 725c3 -4 1 -6 -3 -6h-59c-4 0 -7 0 -11 4l-128 104c-3 4 -1 7 2 7h72c4 0 6 -1 9 -4z" />
    <glyph glyph-name="Iacute" unicode="&#xcd;" horiz-adv-x="246" 
d="M156 654v-648c0 -4 -2 -6 -6 -6h-54c-5 0 -6 2 -6 6v647c0 5 1 6 5 6h55c4 0 6 -1 6 -5zM80 726l122 109c3 3 5 3 8 3h70c4 0 5 -4 2 -7l-129 -106c-3 -4 -6 -4 -10 -4h-60c-4 0 -5 3 -3 5z" />
    <glyph glyph-name="Icircumflex" unicode="&#xce;" horiz-adv-x="246" 
d="M156 654v-648c0 -4 -2 -6 -6 -6h-54c-5 0 -6 2 -6 6v647c0 5 1 6 5 6h55c4 0 6 -1 6 -5zM194 711l-76 78l-74 -78c-2 -2 -5 -4 -9 -4h-51c-4 0 -4 5 -2 7l102 107c2 2 4 3 6 3h57c5 0 8 -2 10 -4l106 -108c2 -3 0 -5 -3 -5h-56c-5 0 -8 1 -10 4z" />
    <glyph glyph-name="Itilde" unicode="&#x128;" horiz-adv-x="246" 
d="M156 654v-648c0 -4 -2 -6 -6 -6h-54c-5 0 -6 2 -6 6v647c0 5 1 6 5 6h55c4 0 6 -1 6 -5zM22 722h-39c-4 0 -4 2 -5 5c2 60 39 98 85 98c60 0 85 -53 121 -53c21 0 33 17 36 46c0 3 1 4 5 4h39c3 0 5 -1 5 -4c-6 -73 -41 -97 -81 -97c-56 0 -82 53 -121 53
c-20 0 -36 -15 -40 -48c0 -2 -2 -4 -5 -4z" />
    <glyph glyph-name="Imacron" unicode="&#x12a;" horiz-adv-x="246" 
d="M156 654v-648c0 -4 -2 -6 -6 -6h-54c-5 0 -6 2 -6 6v647c0 5 1 6 5 6h55c4 0 6 -1 6 -5zM-2 793h251c3 0 4 -2 4 -5v-44c0 -4 -2 -6 -5 -6h-248c-4 0 -6 2 -6 6v44c0 3 1 5 4 5z" />
    <glyph glyph-name="Idotaccent" unicode="&#x130;" horiz-adv-x="246" 
d="M156 654v-648c0 -4 -2 -6 -6 -6h-54c-5 0 -6 2 -6 6v647c0 5 1 6 5 6h55c4 0 6 -1 6 -5zM121 735c-25 0 -41 17 -41 39c0 23 17 38 43 38c24 0 40 -15 40 -38c0 -22 -14 -39 -42 -39z" />
    <glyph glyph-name="Idieresis" unicode="&#xcf;" horiz-adv-x="246" 
d="M156 654v-648c0 -4 -2 -6 -6 -6h-54c-5 0 -6 2 -6 6v647c0 5 1 6 5 6h55c4 0 6 -1 6 -5zM31 728c-23 0 -39 15 -39 38c0 22 18 38 41 38s39 -17 39 -38c0 -23 -17 -38 -41 -38zM212 728c-22 0 -39 15 -39 38c0 22 18 38 41 38c22 0 39 -16 39 -38c0 -24 -16 -38 -41 -38z
" />
    <glyph glyph-name="uni1EC8" unicode="&#x1ec8;" horiz-adv-x="246" 
d="M156 654v-648c0 -4 -2 -6 -6 -6h-54c-5 0 -6 2 -6 6v647c0 5 1 6 5 6h55c4 0 6 -1 6 -5zM33 814v33c0 3 1 4 3 6c21 12 53 21 82 21c59 0 93 -30 93 -70c0 -52 -64 -86 -112 -99c-3 -1 -5 0 -5 3v32c0 3 1 5 3 6c34 17 56 31 56 53c0 18 -16 31 -44 31
c-25 0 -46 -7 -70 -19c-4 -2 -6 0 -6 3z" />
    <glyph glyph-name="uni01CF" unicode="&#x1cf;" horiz-adv-x="246" 
d="M156 654v-648c0 -4 -2 -6 -6 -6h-54c-5 0 -6 2 -6 6v647c0 5 1 6 5 6h55c4 0 6 -1 6 -5zM50 825l76 -78l74 78c2 2 4 4 8 4h52c4 0 4 -5 2 -7l-102 -107c-2 -2 -4 -2 -6 -2h-58c-4 0 -7 1 -9 3l-106 108c-3 3 -1 5 3 5h56c5 0 7 -1 10 -4z" />
    <glyph glyph-name="uni1ECA" unicode="&#x1eca;" horiz-adv-x="246" 
d="M156 654v-648c0 -4 -2 -6 -6 -6h-54c-5 0 -6 2 -6 6v647c0 5 1 6 5 6h55c4 0 6 -1 6 -5zM122 -159c-24 0 -41 17 -41 41c0 23 18 41 42 41s40 -18 40 -41s-15 -41 -41 -41z" />
    <glyph glyph-name="Jcircumflex" unicode="&#x134;" horiz-adv-x="284" 
d="M135 154v500c0 4 2 5 6 5h55c3 0 5 0 5 -5v-493c0 -32 -2 -63 -7 -86c-22 -97 -91 -127 -161 -127c-11 0 -25 0 -34 3c-5 1 -5 3 -5 8v48c0 5 2 6 6 5c11 -1 21 -2 26 -2c70 0 109 37 109 144zM240 713l-76 78l-74 -78c-2 -2 -5 -4 -9 -4h-51c-4 0 -4 5 -2 7l102 107
c2 2 4 3 6 3h57c5 0 8 -2 10 -4l106 -108c2 -3 0 -5 -3 -5h-56c-5 0 -8 1 -10 4z" />
    <glyph glyph-name="uni0136" unicode="&#x136;" horiz-adv-x="549" 
d="M474 6l-307 321c-5 5 -5 8 0 13l292 315c3 3 4 4 9 4h62c5 0 6 -4 4 -7l-290 -308c-2 -2 -2 -4 0 -7l313 -329c3 -4 1 -8 -3 -8h-69c-4 0 -7 1 -11 6zM156 653v-647c0 -4 -2 -6 -6 -6h-54c-5 0 -6 2 -6 7v647c0 3 0 5 5 5h55c4 0 6 -1 6 -6zM278 -223h-49c-3 0 -5 3 -3 6
c27 46 37 78 37 117c0 18 -5 36 -12 56c-1 2 0 5 3 5h53c3 0 5 -1 7 -4c6 -11 12 -34 12 -51c0 -54 -16 -88 -42 -126c-1 -1 -3 -3 -6 -3z" />
    <glyph glyph-name="Lacute" unicode="&#x139;" horiz-adv-x="470" 
d="M444 0h-347c-6 0 -7 2 -7 7v646c0 4 1 6 5 6h56c3 0 5 -1 5 -5v-593h301c4 0 6 -3 5 -6l-10 -50c-1 -4 -4 -5 -8 -5zM83 726l122 109c3 3 5 3 8 3h70c4 0 5 -4 2 -7l-129 -106c-3 -4 -6 -4 -10 -4h-60c-4 0 -5 3 -3 5z" />
    <glyph glyph-name="Lcaron" unicode="&#x13d;" horiz-adv-x="470" 
d="M444 0h-347c-6 0 -7 2 -7 7v646c0 4 1 6 5 6h56c3 0 5 -1 5 -5v-593h301c4 0 6 -3 5 -6l-10 -50c-1 -4 -4 -5 -8 -5zM315 434l1 221c0 4 2 5 5 5h51c4 0 5 -2 5 -5l-12 -221c-1 -3 -2 -5 -5 -5h-40c-3 0 -5 2 -5 5z" />
    <glyph glyph-name="Ldot" unicode="&#x13f;" horiz-adv-x="470" 
d="M444 0h-347c-6 0 -7 2 -7 7v646c0 4 1 6 5 6h56c3 0 5 -1 5 -5v-593h301c4 0 6 -3 5 -6l-10 -50c-1 -4 -4 -5 -8 -5zM349 327c-25 0 -41 17 -41 39c0 23 17 38 43 38c24 0 40 -15 40 -38c0 -22 -14 -39 -42 -39z" />
    <glyph glyph-name="uni1E36" unicode="&#x1e36;" horiz-adv-x="470" 
d="M444 0h-347c-6 0 -7 2 -7 7v646c0 4 1 6 5 6h56c3 0 5 -1 5 -5v-593h301c4 0 6 -3 5 -6l-10 -50c-1 -4 -4 -5 -8 -5zM261 -169c-25 0 -42 19 -42 42c0 25 18 43 43 43s41 -19 41 -42c0 -24 -15 -43 -42 -43z" />
    <glyph glyph-name="uni013B" unicode="&#x13b;" horiz-adv-x="470" 
d="M444 0h-347c-6 0 -7 2 -7 7v646c0 4 1 6 5 6h56c3 0 5 -1 5 -5v-593h301c4 0 6 -3 5 -6l-10 -50c-1 -4 -4 -5 -8 -5zM263 -240h-49c-3 0 -5 3 -3 6c27 46 37 78 37 117c0 18 -5 36 -12 56c-1 2 0 5 3 5h53c3 0 5 -1 7 -4c6 -11 12 -34 12 -51c0 -54 -16 -88 -42 -126
c-1 -1 -3 -3 -6 -3z" />
    <glyph glyph-name="uni1E3A" unicode="&#x1e3a;" horiz-adv-x="470" 
d="M444 0h-347c-6 0 -7 2 -7 7v646c0 4 1 6 5 6h56c3 0 5 -1 5 -5v-593h301c4 0 6 -3 5 -6l-10 -50c-1 -4 -4 -5 -8 -5zM146 -91h227c2 0 4 -1 4 -5v-42c0 -4 -2 -5 -5 -5h-226c-4 0 -5 2 -5 5v43c0 3 2 4 5 4z" />
    <glyph glyph-name="uni1E38" unicode="&#x1e38;" horiz-adv-x="470" 
d="M444 0h-347c-6 0 -7 2 -7 7v646c0 4 1 6 5 6h56c3 0 5 -1 5 -5v-593h301c4 0 6 -3 5 -6l-10 -50c-1 -4 -4 -5 -8 -5zM252 -171c-25 0 -42 19 -42 42c0 25 18 43 43 43s41 -19 41 -42c0 -24 -15 -43 -42 -43zM-1 791h251c3 0 4 -2 4 -5v-44c0 -4 -2 -6 -5 -6h-248
c-4 0 -6 2 -6 6v44c0 3 1 5 4 5z" />
    <glyph glyph-name="uni1E42" unicode="&#x1e42;" horiz-adv-x="815" 
d="M122 654c1 5 3 5 6 5h88c4 0 5 -1 7 -5c34 -103 163 -486 184 -570h1c22 82 163 469 197 570c2 4 3 5 7 5h84c5 0 5 -1 6 -4l35 -649c0 -5 -2 -6 -5 -6h-57c-5 0 -6 1 -6 5c-11 232 -23 550 -23 607h-1c-24 -86 -163 -477 -206 -607c-1 -4 -4 -5 -7 -5h-56
c-6 0 -7 2 -8 6c-55 170 -167 516 -192 607h-1c-1 -78 -21 -394 -33 -607c0 -5 -2 -6 -6 -6h-53c-4 0 -6 1 -5 6zM404 -160c-25 0 -42 19 -42 42c0 25 18 43 43 43s41 -19 41 -42c0 -24 -15 -43 -42 -43z" />
    <glyph glyph-name="Nacute" unicode="&#x143;" horiz-adv-x="658" 
d="M147 0h-51c-4 0 -6 1 -6 7v647c0 4 1 5 5 5h79c4 0 5 -1 8 -4c88 -154 286 -499 324 -574h1c-1 25 -2 73 -2 151v422c0 4 2 5 6 5h51c4 0 6 -2 6 -6v-646c0 -5 -2 -7 -7 -7h-72c-6 0 -8 1 -10 5c-41 81 -302 523 -330 590h-1c3 -33 4 -92 4 -174v-415c0 -4 -1 -6 -5 -6z
M278 725l122 109c3 3 5 3 8 3h70c4 0 5 -4 2 -7l-129 -106c-3 -4 -6 -4 -10 -4h-60c-4 0 -5 3 -3 5z" />
    <glyph glyph-name="Ntilde" unicode="&#xd1;" horiz-adv-x="658" 
d="M147 0h-51c-4 0 -6 1 -6 7v647c0 4 1 5 5 5h79c4 0 5 -1 8 -4c88 -154 286 -499 324 -574h1c-1 25 -2 73 -2 151v422c0 4 2 5 6 5h51c4 0 6 -2 6 -6v-646c0 -5 -2 -7 -7 -7h-72c-6 0 -8 1 -10 5c-41 81 -302 523 -330 590h-1c3 -33 4 -92 4 -174v-415c0 -4 -1 -6 -5 -6z
M232 724h-39c-4 0 -4 2 -5 5c2 60 39 98 85 98c60 0 85 -53 121 -53c21 0 33 17 36 46c0 3 1 4 5 4h39c3 0 5 -1 5 -4c-6 -73 -41 -97 -81 -97c-56 0 -82 53 -121 53c-20 0 -36 -15 -40 -48c0 -2 -2 -4 -5 -4z" />
    <glyph glyph-name="uni1E44" unicode="&#x1e44;" horiz-adv-x="658" 
d="M147 0h-51c-4 0 -6 1 -6 7v647c0 4 1 5 5 5h79c4 0 5 -1 8 -4c88 -154 286 -499 324 -574h1c-1 25 -2 73 -2 151v422c0 4 2 5 6 5h51c4 0 6 -2 6 -6v-646c0 -5 -2 -7 -7 -7h-72c-6 0 -8 1 -10 5c-41 81 -302 523 -330 590h-1c3 -33 4 -92 4 -174v-415c0 -4 -1 -6 -5 -6z
M328 730c-25 0 -41 17 -41 39c0 23 17 38 43 38c24 0 40 -15 40 -38c0 -22 -14 -39 -42 -39z" />
    <glyph glyph-name="Ncaron" unicode="&#x147;" horiz-adv-x="658" 
d="M147 0h-51c-4 0 -6 1 -6 7v647c0 4 1 5 5 5h79c4 0 5 -1 8 -4c88 -154 286 -499 324 -574h1c-1 25 -2 73 -2 151v422c0 4 2 5 6 5h51c4 0 6 -2 6 -6v-646c0 -5 -2 -7 -7 -7h-72c-6 0 -8 1 -10 5c-41 81 -302 523 -330 590h-1c3 -33 4 -92 4 -174v-415c0 -4 -1 -6 -5 -6z
M256 823l76 -78l74 78c2 2 4 4 8 4h52c4 0 4 -5 2 -7l-102 -107c-2 -2 -4 -2 -6 -2h-58c-4 0 -7 1 -9 3l-106 108c-3 3 -1 5 3 5h56c5 0 7 -1 10 -4z" />
    <glyph glyph-name="uni1E46" unicode="&#x1e46;" horiz-adv-x="658" 
d="M147 0h-51c-4 0 -6 1 -6 7v647c0 4 1 5 5 5h79c4 0 5 -1 8 -4c88 -154 286 -499 324 -574h1c-1 25 -2 73 -2 151v422c0 4 2 5 6 5h51c4 0 6 -2 6 -6v-646c0 -5 -2 -7 -7 -7h-72c-6 0 -8 1 -10 5c-41 81 -302 523 -330 590h-1c3 -33 4 -92 4 -174v-415c0 -4 -1 -6 -5 -6z
M330 -169c-25 0 -42 19 -42 42c0 25 18 43 43 43s41 -19 41 -42c0 -24 -15 -43 -42 -43z" />
    <glyph glyph-name="uni0145" unicode="&#x145;" horiz-adv-x="658" 
d="M147 0h-51c-4 0 -6 1 -6 7v647c0 4 1 5 5 5h79c4 0 5 -1 8 -4c88 -154 286 -499 324 -574h1c-1 25 -2 73 -2 151v422c0 4 2 5 6 5h51c4 0 6 -2 6 -6v-646c0 -5 -2 -7 -7 -7h-72c-6 0 -8 1 -10 5c-41 81 -302 523 -330 590h-1c3 -33 4 -92 4 -174v-415c0 -4 -1 -6 -5 -6z
M324 -223h-49c-3 0 -5 3 -3 6c27 46 37 78 37 117c0 18 -5 36 -12 56c-1 2 0 5 3 5h53c3 0 5 -1 7 -4c6 -11 12 -34 12 -51c0 -54 -16 -88 -42 -126c-1 -1 -3 -3 -6 -3z" />
    <glyph glyph-name="uni1E48" unicode="&#x1e48;" horiz-adv-x="658" 
d="M147 0h-51c-4 0 -6 1 -6 7v647c0 4 1 5 5 5h79c4 0 5 -1 8 -4c88 -154 286 -499 324 -574h1c-1 25 -2 73 -2 151v422c0 4 2 5 6 5h51c4 0 6 -2 6 -6v-646c0 -5 -2 -7 -7 -7h-72c-6 0 -8 1 -10 5c-41 81 -302 523 -330 590h-1c3 -33 4 -92 4 -174v-415c0 -4 -1 -6 -5 -6z
M217 -83h227c2 0 4 -1 4 -5v-42c0 -4 -2 -5 -5 -5h-226c-4 0 -5 2 -5 5v43c0 3 2 4 5 4z" />
    <glyph glyph-name="Ograve" unicode="&#xd2;" horiz-adv-x="665" 
d="M333 669c174 0 281 -142 281 -335c1 -222 -118 -343 -279 -343c-180 0 -285 141 -285 341c0 208 121 337 283 337zM118 332c0 -151 74 -281 218 -281c135 0 211 113 211 281c0 162 -85 277 -216 277c-118 0 -213 -94 -213 -277zM385 735c3 -4 1 -6 -3 -6h-59
c-4 0 -7 0 -11 4l-128 104c-3 4 -1 7 2 7h72c4 0 6 -1 9 -4z" />
    <glyph glyph-name="Oacute" unicode="&#xd3;" horiz-adv-x="665" 
d="M333 669c174 0 281 -142 281 -335c1 -222 -118 -343 -279 -343c-180 0 -285 141 -285 341c0 208 121 337 283 337zM118 332c0 -151 74 -281 218 -281c135 0 211 113 211 281c0 162 -85 277 -216 277c-118 0 -213 -94 -213 -277zM277 730l122 109c3 3 5 3 8 3h70
c4 0 5 -4 2 -7l-129 -106c-3 -4 -6 -4 -10 -4h-60c-4 0 -5 3 -3 5z" />
    <glyph glyph-name="Ocircumflex" unicode="&#xd4;" horiz-adv-x="665" 
d="M333 669c174 0 281 -142 281 -335c1 -222 -118 -343 -279 -343c-180 0 -285 141 -285 341c0 208 121 337 283 337zM118 332c0 -151 74 -281 218 -281c135 0 211 113 211 281c0 162 -85 277 -216 277c-118 0 -213 -94 -213 -277zM404 724l-76 78l-74 -78
c-2 -2 -5 -4 -9 -4h-51c-4 0 -4 5 -2 7l102 107c2 2 4 3 6 3h57c5 0 8 -2 10 -4l106 -108c2 -3 0 -5 -3 -5h-56c-5 0 -8 1 -10 4z" />
    <glyph glyph-name="Otilde" unicode="&#xd5;" horiz-adv-x="665" 
d="M333 669c174 0 281 -142 281 -335c1 -222 -118 -343 -279 -343c-180 0 -285 141 -285 341c0 208 121 337 283 337zM118 332c0 -151 74 -281 218 -281c135 0 211 113 211 281c0 162 -85 277 -216 277c-118 0 -213 -94 -213 -277zM232 731h-39c-4 0 -4 2 -5 5
c2 60 39 98 85 98c60 0 85 -53 121 -53c21 0 33 17 36 46c0 3 1 4 5 4h39c3 0 5 -1 5 -4c-6 -73 -41 -97 -81 -97c-56 0 -82 53 -121 53c-20 0 -36 -15 -40 -48c0 -2 -2 -4 -5 -4z" />
    <glyph glyph-name="Omacron" unicode="&#x14c;" horiz-adv-x="665" 
d="M333 669c174 0 281 -142 281 -335c1 -222 -118 -343 -279 -343c-180 0 -285 141 -285 341c0 208 121 337 283 337zM118 332c0 -151 74 -281 218 -281c135 0 211 113 211 281c0 162 -85 277 -216 277c-118 0 -213 -94 -213 -277zM209 806h251c3 0 4 -2 4 -5v-44
c0 -4 -2 -6 -5 -6h-248c-4 0 -6 2 -6 6v44c0 3 1 5 4 5z" />
    <glyph glyph-name="Odieresis" unicode="&#xd6;" horiz-adv-x="665" 
d="M333 669c174 0 281 -142 281 -335c1 -222 -118 -343 -279 -343c-180 0 -285 141 -285 341c0 208 121 337 283 337zM118 332c0 -151 74 -281 218 -281c135 0 211 113 211 281c0 162 -85 277 -216 277c-118 0 -213 -94 -213 -277zM241 740c-23 0 -39 15 -39 38
c0 22 18 38 41 38s39 -17 39 -38c0 -23 -17 -38 -41 -38zM422 740c-22 0 -39 15 -39 38c0 22 18 38 41 38c22 0 39 -16 39 -38c0 -24 -16 -38 -41 -38z" />
    <glyph glyph-name="uni1ECE" unicode="&#x1ece;" horiz-adv-x="665" 
d="M333 669c174 0 281 -142 281 -335c1 -222 -118 -343 -279 -343c-180 0 -285 141 -285 341c0 208 121 337 283 337zM118 332c0 -151 74 -281 218 -281c135 0 211 113 211 281c0 162 -85 277 -216 277c-118 0 -213 -94 -213 -277zM245 821v33c0 3 1 4 3 6
c21 12 53 21 82 21c59 0 93 -30 93 -70c0 -52 -64 -86 -112 -99c-3 -1 -5 0 -5 3v32c0 3 1 5 3 6c34 17 56 31 56 53c0 18 -16 31 -44 31c-25 0 -46 -7 -70 -19c-4 -2 -6 0 -6 3z" />
    <glyph glyph-name="Ohungarumlaut" unicode="&#x150;" horiz-adv-x="665" 
d="M333 669c174 0 281 -142 281 -335c1 -222 -118 -343 -279 -343c-180 0 -285 141 -285 341c0 208 121 337 283 337zM118 332c0 -151 74 -281 218 -281c135 0 211 113 211 281c0 162 -85 277 -216 277c-118 0 -213 -94 -213 -277zM212 739l75 107c2 3 4 5 8 5h55
c3 0 5 -3 3 -6l-84 -108c-3 -3 -4 -3 -8 -3h-46c-3 0 -5 1 -3 5zM367 740l73 106c3 3 5 5 9 5h55c4 0 5 -4 3 -7l-82 -105c-3 -5 -7 -5 -10 -5h-45c-3 0 -6 1 -3 6z" />
    <glyph glyph-name="uni01D1" unicode="&#x1d1;" horiz-adv-x="665" 
d="M333 669c174 0 281 -142 281 -335c1 -222 -118 -343 -279 -343c-180 0 -285 141 -285 341c0 208 121 337 283 337zM118 332c0 -151 74 -281 218 -281c135 0 211 113 211 281c0 162 -85 277 -216 277c-118 0 -213 -94 -213 -277zM255 835l76 -78l74 78c2 2 4 4 8 4h52
c4 0 4 -5 2 -7l-102 -107c-2 -2 -4 -2 -6 -2h-58c-4 0 -7 1 -9 3l-106 108c-3 3 -1 5 3 5h56c5 0 7 -1 10 -4z" />
    <glyph glyph-name="uni1ECC" unicode="&#x1ecc;" horiz-adv-x="665" 
d="M333 669c174 0 281 -142 281 -335c1 -222 -118 -343 -279 -343c-180 0 -285 141 -285 341c0 208 121 337 283 337zM118 332c0 -151 74 -281 218 -281c135 0 211 113 211 281c0 162 -85 277 -216 277c-118 0 -213 -94 -213 -277zM332 -173c-24 0 -41 17 -41 41
c0 23 18 41 42 41s40 -18 40 -41s-15 -41 -41 -41z" />
    <glyph glyph-name="uni1ED8" unicode="&#x1ed8;" horiz-adv-x="665" 
d="M333 669c174 0 281 -142 281 -335c1 -222 -118 -343 -279 -343c-180 0 -285 141 -285 341c0 208 121 337 283 337zM118 332c0 -151 74 -281 218 -281c135 0 211 113 211 281c0 162 -85 277 -216 277c-118 0 -213 -94 -213 -277zM404 721l-76 78l-74 -78
c-2 -2 -5 -4 -9 -4h-51c-4 0 -4 5 -2 7l102 107c2 2 4 3 6 3h57c5 0 8 -2 10 -4l106 -108c2 -3 0 -5 -3 -5h-56c-5 0 -8 1 -10 4zM332 -172c-24 0 -41 17 -41 41c0 23 18 41 42 41s40 -18 40 -41s-15 -41 -41 -41z" />
    <glyph glyph-name="uni1ED2" unicode="&#x1ed2;" horiz-adv-x="665" 
d="M333 669c174 0 281 -142 281 -335c1 -222 -118 -343 -279 -343c-180 0 -285 141 -285 341c0 208 121 337 283 337zM118 332c0 -151 74 -281 218 -281c135 0 211 113 211 281c0 162 -85 277 -216 277c-118 0 -213 -94 -213 -277zM562 800c2 -4 1 -6 -3 -6h-48
c-4 0 -6 1 -9 4l-101 95c-1 3 -1 6 2 6h61c3 0 5 -1 8 -5zM244 721h-49c-5 0 -6 2 -3 6l99 99c2 2 4 3 7 3h52c5 0 6 -2 8 -4l106 -99c3 -3 0 -5 -5 -5h-54c-5 0 -8 2 -10 4l-73 67l-69 -68c-3 -3 -5 -3 -9 -3z" />
    <glyph glyph-name="uni1ED0" unicode="&#x1ed0;" horiz-adv-x="665" 
d="M333 669c174 0 281 -142 281 -335c1 -222 -118 -343 -279 -343c-180 0 -285 141 -285 341c0 208 121 337 283 337zM118 332c0 -151 74 -281 218 -281c135 0 211 113 211 281c0 162 -85 277 -216 277c-118 0 -213 -94 -213 -277zM427 815l82 86c3 4 4 5 8 5h59
c4 0 5 -3 2 -7l-95 -86c-4 -3 -5 -4 -9 -4h-44c-4 0 -5 3 -3 6zM244 721h-49c-5 0 -6 2 -3 6l99 99c2 2 4 3 7 3h52c5 0 6 -2 8 -4l106 -99c3 -3 0 -5 -5 -5h-54c-5 0 -8 2 -10 4l-73 67l-69 -68c-3 -3 -5 -3 -9 -3z" />
    <glyph glyph-name="uni1ED6" unicode="&#x1ed6;" horiz-adv-x="665" 
d="M333 669c174 0 281 -142 281 -335c1 -222 -118 -343 -279 -343c-180 0 -285 141 -285 341c0 208 121 337 283 337zM118 332c0 -151 74 -281 218 -281c135 0 211 113 211 281c0 162 -85 277 -216 277c-118 0 -213 -94 -213 -277zM335 767l-70 -48c-1 -2 -5 -3 -9 -3h-55
c-5 0 -4 4 -2 6l103 77c2 2 5 3 7 3h52c5 0 6 -1 9 -3l106 -78c2 -2 1 -5 -3 -5h-57c-6 0 -11 2 -12 4zM240 839h-40c-4 0 -5 2 -5 4c4 47 37 74 82 74c53 0 80 -36 114 -36c17 0 29 10 33 32c1 1 2 4 5 4h41c3 0 3 -1 3 -4c-7 -54 -40 -75 -79 -75c-50 0 -77 38 -113 38
c-18 0 -31 -8 -37 -35c0 -1 -1 -2 -4 -2z" />
    <glyph glyph-name="uni1ED4" unicode="&#x1ed4;" horiz-adv-x="665" 
d="M333 669c174 0 281 -142 281 -335c1 -222 -118 -343 -279 -343c-180 0 -285 141 -285 341c0 208 121 337 283 337zM118 332c0 -151 74 -281 218 -281c135 0 211 113 211 281c0 162 -85 277 -216 277c-118 0 -213 -94 -213 -277zM403 878v28c1 3 1 4 3 5c17 9 44 17 69 17
c49 0 78 -25 78 -58c0 -42 -54 -74 -94 -84c-4 -1 -4 1 -4 3v29c0 2 0 4 3 5c26 14 43 25 43 43c0 14 -12 23 -35 23c-21 0 -38 -5 -57 -14c-3 -2 -6 -1 -6 3zM244 713h-49c-5 0 -6 2 -3 6l99 99c2 2 4 3 7 3h52c5 0 6 -2 8 -4l106 -99c3 -3 0 -5 -5 -5h-54c-5 0 -8 2 -10 4
l-73 67l-69 -68c-3 -3 -5 -3 -9 -3z" />
    <glyph glyph-name="uni1EDC" unicode="&#x1edc;" horiz-adv-x="665" 
d="M533 737h48c5 0 7 -2 8 -6c4 -11 6 -25 6 -44c0 -46 -26 -81 -70 -92c61 -60 95 -152 95 -261c1 -222 -118 -343 -279 -343c-180 0 -285 141 -285 341c0 208 121 337 283 337c54 0 101 -14 141 -38c47 0 55 26 55 56c0 11 -2 30 -5 44c-1 4 0 6 3 6zM124 332
c0 -151 74 -281 218 -281c135 0 211 113 211 281c0 162 -85 277 -216 277c-118 0 -213 -94 -213 -277zM391 743c3 -4 1 -6 -3 -6h-59c-4 0 -7 0 -11 4l-128 104c-3 4 -1 7 2 7h72c4 0 6 -1 9 -4z" />
    <glyph glyph-name="uni1EDA" unicode="&#x1eda;" horiz-adv-x="665" 
d="M533 737h48c5 0 7 -2 8 -6c4 -11 6 -25 6 -44c0 -46 -26 -81 -70 -92c61 -60 95 -152 95 -261c1 -222 -118 -343 -279 -343c-180 0 -285 141 -285 341c0 208 121 337 283 337c54 0 101 -14 141 -38c47 0 55 26 55 56c0 11 -2 30 -5 44c-1 4 0 6 3 6zM124 332
c0 -151 74 -281 218 -281c135 0 211 113 211 281c0 162 -85 277 -216 277c-118 0 -213 -94 -213 -277zM270 740l122 109c3 3 5 3 8 3h70c4 0 5 -4 2 -7l-129 -106c-3 -4 -6 -4 -10 -4h-60c-4 0 -5 3 -3 5z" />
    <glyph glyph-name="uni1EE0" unicode="&#x1ee0;" horiz-adv-x="665" 
d="M533 737h48c5 0 7 -2 8 -6c4 -11 6 -25 6 -44c0 -46 -26 -81 -70 -92c61 -60 95 -152 95 -261c1 -222 -118 -343 -279 -343c-180 0 -285 141 -285 341c0 208 121 337 283 337c54 0 101 -14 141 -38c47 0 55 26 55 56c0 11 -2 30 -5 44c-1 4 0 6 3 6zM124 332
c0 -151 74 -281 218 -281c135 0 211 113 211 281c0 162 -85 277 -216 277c-118 0 -213 -94 -213 -277zM232 733h-39c-4 0 -4 2 -5 5c2 60 39 98 85 98c60 0 85 -53 121 -53c21 0 33 17 36 46c0 3 1 4 5 4h39c3 0 5 -1 5 -4c-6 -73 -41 -97 -81 -97c-56 0 -82 53 -121 53
c-20 0 -36 -15 -40 -48c0 -2 -2 -4 -5 -4z" />
    <glyph glyph-name="uni1EDE" unicode="&#x1ede;" horiz-adv-x="665" 
d="M533 737h48c5 0 7 -2 8 -6c4 -11 6 -25 6 -44c0 -46 -26 -81 -70 -92c61 -60 95 -152 95 -261c1 -222 -118 -343 -279 -343c-180 0 -285 141 -285 341c0 208 121 337 283 337c54 0 101 -14 141 -38c47 0 55 26 55 56c0 11 -2 30 -5 44c-1 4 0 6 3 6zM124 332
c0 -151 74 -281 218 -281c135 0 211 113 211 281c0 162 -85 277 -216 277c-118 0 -213 -94 -213 -277zM248 814v33c0 3 1 4 3 6c21 12 53 21 82 21c59 0 93 -30 93 -70c0 -52 -64 -86 -112 -99c-3 -1 -5 0 -5 3v32c0 3 1 5 3 6c34 17 56 31 56 53c0 18 -16 31 -44 31
c-25 0 -46 -7 -70 -19c-4 -2 -6 0 -6 3z" />
    <glyph glyph-name="uni1EE2" unicode="&#x1ee2;" horiz-adv-x="665" 
d="M533 737h48c5 0 7 -2 8 -6c4 -11 6 -25 6 -44c0 -46 -26 -81 -70 -92c61 -60 95 -152 95 -261c1 -222 -118 -343 -279 -343c-180 0 -285 141 -285 341c0 208 121 337 283 337c54 0 101 -14 141 -38c47 0 55 26 55 56c0 11 -2 30 -5 44c-1 4 0 6 3 6zM332 -148
c-24 0 -41 17 -41 41c0 23 18 41 42 41s40 -18 40 -41s-15 -41 -41 -41zM124 332c0 -151 74 -281 218 -281c135 0 211 113 211 281c0 162 -85 277 -216 277c-118 0 -213 -94 -213 -277z" />
    <glyph glyph-name="Racute" unicode="&#x154;" horiz-adv-x="554" 
d="M149 0h-53c-5 0 -6 1 -6 6v645c0 4 1 7 5 7c42 2 97 3 157 3c137 0 233 -60 233 -186c0 -97 -65 -153 -137 -176c32 -46 169 -252 192 -292c2 -4 2 -7 -2 -7h-65c-5 0 -7 1 -9 4c-31 48 -116 181 -169 262c-7 11 -12 15 -22 15h-118v-275c0 -4 -2 -6 -6 -6zM155 339h108
c100 0 156 58 156 133c0 80 -58 131 -170 131c-37 0 -75 -2 -94 -3v-261zM199 731l122 109c3 3 5 3 8 3h70c4 0 5 -4 2 -7l-129 -106c-3 -4 -6 -4 -10 -4h-60c-4 0 -5 3 -3 5z" />
    <glyph glyph-name="Rcaron" unicode="&#x158;" horiz-adv-x="554" 
d="M149 0h-53c-5 0 -6 1 -6 6v645c0 4 1 7 5 7c42 2 97 3 157 3c137 0 233 -60 233 -186c0 -97 -65 -153 -137 -176c32 -46 169 -252 192 -292c2 -4 2 -7 -2 -7h-65c-5 0 -7 1 -9 4c-31 48 -116 181 -169 262c-7 11 -12 15 -22 15h-118v-275c0 -4 -2 -6 -6 -6zM155 339h108
c100 0 156 58 156 133c0 80 -58 131 -170 131c-37 0 -75 -2 -94 -3v-261zM181 830l76 -78l74 78c2 2 4 4 8 4h52c4 0 4 -5 2 -7l-102 -107c-2 -2 -4 -2 -6 -2h-58c-4 0 -7 1 -9 3l-106 108c-3 3 -1 5 3 5h56c5 0 7 -1 10 -4z" />
    <glyph glyph-name="uni1E5A" unicode="&#x1e5a;" horiz-adv-x="554" 
d="M149 0h-53c-5 0 -6 1 -6 6v645c0 4 1 7 5 7c42 2 97 3 157 3c137 0 233 -60 233 -186c0 -97 -65 -153 -137 -176c32 -46 169 -252 192 -292c2 -4 2 -7 -2 -7h-65c-5 0 -7 1 -9 4c-31 48 -116 181 -169 262c-7 11 -12 15 -22 15h-118v-275c0 -4 -2 -6 -6 -6zM155 339h108
c100 0 156 58 156 133c0 80 -58 131 -170 131c-37 0 -75 -2 -94 -3v-261zM276 -169c-25 0 -42 19 -42 42c0 25 18 43 43 43s41 -19 41 -42c0 -24 -15 -43 -42 -43z" />
    <glyph glyph-name="uni0156" unicode="&#x156;" horiz-adv-x="554" 
d="M149 0h-53c-5 0 -6 1 -6 6v645c0 4 1 7 5 7c42 2 97 3 157 3c137 0 233 -60 233 -186c0 -97 -65 -153 -137 -176c32 -46 169 -252 192 -292c2 -4 2 -7 -2 -7h-65c-5 0 -7 1 -9 4c-31 48 -116 181 -169 262c-7 11 -12 15 -22 15h-118v-275c0 -4 -2 -6 -6 -6zM155 339h108
c100 0 156 58 156 133c0 80 -58 131 -170 131c-37 0 -75 -2 -94 -3v-261zM280 -214h-49c-3 0 -5 3 -3 6c27 46 37 78 37 117c0 18 -5 36 -12 56c-1 2 0 5 3 5h53c3 0 5 -1 7 -4c6 -11 12 -34 12 -51c0 -54 -16 -88 -42 -126c-1 -1 -3 -3 -6 -3z" />
    <glyph glyph-name="uni1E5E" unicode="&#x1e5e;" horiz-adv-x="554" 
d="M149 0h-53c-5 0 -6 1 -6 6v645c0 4 1 7 5 7c42 2 97 3 157 3c137 0 233 -60 233 -186c0 -97 -65 -153 -137 -176c32 -46 169 -252 192 -292c2 -4 2 -7 -2 -7h-65c-5 0 -7 1 -9 4c-31 48 -116 181 -169 262c-7 11 -12 15 -22 15h-118v-275c0 -4 -2 -6 -6 -6zM155 339h108
c100 0 156 58 156 133c0 80 -58 131 -170 131c-37 0 -75 -2 -94 -3v-261zM181 -79h227c2 0 4 -1 4 -5v-42c0 -4 -2 -5 -5 -5h-226c-4 0 -5 2 -5 5v43c0 3 2 4 5 4z" />
    <glyph glyph-name="uni1E5C" unicode="&#x1e5c;" horiz-adv-x="554" 
d="M149 0h-53c-5 0 -6 1 -6 6v645c0 4 1 7 5 7c42 2 97 3 157 3c137 0 233 -60 233 -186c0 -97 -65 -153 -137 -176c32 -46 169 -252 192 -292c2 -4 2 -7 -2 -7h-65c-5 0 -7 1 -9 4c-31 48 -116 181 -169 262c-7 11 -12 15 -22 15h-118v-275c0 -4 -2 -6 -6 -6zM155 339h108
c100 0 156 58 156 133c0 80 -58 131 -170 131c-37 0 -75 -2 -94 -3v-261zM279 -162c-25 0 -42 19 -42 42c0 25 18 43 43 43s41 -19 41 -42c0 -24 -15 -43 -42 -43zM128 802h251c3 0 4 -2 4 -5v-44c0 -4 -2 -6 -5 -6h-248c-4 0 -6 2 -6 6v44c0 3 1 5 4 5z" />
    <glyph glyph-name="Sacute" unicode="&#x15a;" horiz-adv-x="473" 
d="M211 -9c-64 0 -122 13 -160 36c-4 3 -5 6 -5 11v58c0 3 3 5 7 3c49 -35 109 -48 160 -48c98 0 144 48 144 114c0 52 -26 90 -122 136l-39 17c-118 55 -144 116 -144 180c0 101 77 171 201 171c61 0 111 -10 138 -26c3 -2 4 -4 4 -9v-53c0 -4 -3 -7 -7 -4
c-32 22 -84 32 -137 32c-108 0 -135 -62 -135 -105c0 -50 26 -88 116 -129l41 -18c117 -54 151 -115 151 -186c0 -103 -75 -180 -213 -180zM186 739l122 109c3 3 5 3 8 3h70c4 0 5 -4 2 -7l-129 -106c-3 -4 -6 -4 -10 -4h-60c-4 0 -5 3 -3 5z" />
    <glyph glyph-name="Scircumflex" unicode="&#x15c;" horiz-adv-x="473" 
d="M211 -9c-64 0 -122 13 -160 36c-4 3 -5 6 -5 11v58c0 3 3 5 7 3c49 -35 109 -48 160 -48c98 0 144 48 144 114c0 52 -26 90 -122 136l-39 17c-118 55 -144 116 -144 180c0 101 77 171 201 171c61 0 111 -10 138 -26c3 -2 4 -4 4 -9v-53c0 -4 -3 -7 -7 -4
c-32 22 -84 32 -137 32c-108 0 -135 -62 -135 -105c0 -50 26 -88 116 -129l41 -18c117 -54 151 -115 151 -186c0 -103 -75 -180 -213 -180zM309 724l-76 78l-74 -78c-2 -2 -5 -4 -9 -4h-51c-4 0 -4 5 -2 7l102 107c2 2 4 3 6 3h57c5 0 8 -2 10 -4l106 -108c2 -3 0 -5 -3 -5
h-56c-5 0 -8 1 -10 4z" />
    <glyph glyph-name="uni1E60" unicode="&#x1e60;" horiz-adv-x="473" 
d="M211 -9c-64 0 -122 13 -160 36c-4 3 -5 6 -5 11v58c0 3 3 5 7 3c49 -35 109 -48 160 -48c98 0 144 48 144 114c0 52 -26 90 -122 136l-39 17c-118 55 -144 116 -144 180c0 101 77 171 201 171c61 0 111 -10 138 -26c3 -2 4 -4 4 -9v-53c0 -4 -3 -7 -7 -4
c-32 22 -84 32 -137 32c-108 0 -135 -62 -135 -105c0 -50 26 -88 116 -129l41 -18c117 -54 151 -115 151 -186c0 -103 -75 -180 -213 -180zM233 745c-25 0 -41 17 -41 39c0 23 17 38 43 38c24 0 40 -15 40 -38c0 -22 -14 -39 -42 -39z" />
    <glyph glyph-name="Scaron" unicode="&#x160;" horiz-adv-x="473" 
d="M211 -9c-64 0 -122 13 -160 36c-4 3 -5 6 -5 11v58c0 3 3 5 7 3c49 -35 109 -48 160 -48c98 0 144 48 144 114c0 52 -26 90 -122 136l-39 17c-118 55 -144 116 -144 180c0 101 77 171 201 171c61 0 111 -10 138 -26c3 -2 4 -4 4 -9v-53c0 -4 -3 -7 -7 -4
c-32 22 -84 32 -137 32c-108 0 -135 -62 -135 -105c0 -50 26 -88 116 -129l41 -18c117 -54 151 -115 151 -186c0 -103 -75 -180 -213 -180zM163 837l76 -78l74 78c2 2 4 4 8 4h52c4 0 4 -5 2 -7l-102 -107c-2 -2 -4 -2 -6 -2h-58c-4 0 -7 1 -9 3l-106 108c-3 3 -1 5 3 5h56
c5 0 7 -1 10 -4z" />
    <glyph glyph-name="uni1E62" unicode="&#x1e62;" horiz-adv-x="473" 
d="M211 -9c-64 0 -122 13 -160 36c-4 3 -5 6 -5 11v58c0 3 3 5 7 3c49 -35 109 -48 160 -48c98 0 144 48 144 114c0 52 -26 90 -122 136l-39 17c-118 55 -144 116 -144 180c0 101 77 171 201 171c61 0 111 -10 138 -26c3 -2 4 -4 4 -9v-53c0 -4 -3 -7 -7 -4
c-32 22 -84 32 -137 32c-108 0 -135 -62 -135 -105c0 -50 26 -88 116 -129l41 -18c117 -54 151 -115 151 -186c0 -103 -75 -180 -213 -180zM222 -169c-25 0 -42 19 -42 42c0 25 18 43 43 43s41 -19 41 -42c0 -24 -15 -43 -42 -43z" />
    <glyph glyph-name="uni0218" unicode="&#x218;" horiz-adv-x="473" 
d="M211 -9c-64 0 -122 13 -160 36c-4 3 -5 6 -5 11v58c0 3 3 5 7 3c49 -35 109 -48 160 -48c98 0 144 48 144 114c0 52 -26 90 -122 136l-39 17c-118 55 -144 116 -144 180c0 101 77 171 201 171c61 0 111 -10 138 -26c3 -2 4 -4 4 -9v-53c0 -4 -3 -7 -7 -4
c-32 22 -84 32 -137 32c-108 0 -135 -62 -135 -105c0 -50 26 -88 116 -129l41 -18c117 -54 151 -115 151 -186c0 -103 -75 -180 -213 -180zM222 -237h-49c-3 0 -5 3 -3 6c27 46 37 78 37 117c0 18 -5 36 -12 56c-1 2 0 5 3 5h53c3 0 5 -1 7 -4c6 -11 12 -34 12 -51
c0 -54 -16 -88 -42 -126c-1 -1 -3 -3 -6 -3z" />
    <glyph glyph-name="uni015E" unicode="&#x15e;" horiz-adv-x="473" 
d="M310 -133c0 -51 -42 -82 -97 -82c-26 0 -49 5 -64 13c-3 1 -4 3 -4 6v34c0 3 1 4 5 4c18 -10 41 -14 60 -14c29 0 48 11 48 37c0 29 -29 48 -90 57c-3 1 -2 12 -1 15l38 54c-62 1 -117 14 -154 36c-4 3 -5 6 -5 11v58c0 3 3 5 7 3c49 -35 109 -48 160 -48
c98 0 144 48 144 114c0 52 -26 90 -122 136l-39 17c-118 55 -144 116 -144 180c0 101 77 171 201 171c61 0 111 -10 138 -26c3 -2 4 -4 4 -9v-53c0 -4 -3 -7 -7 -4c-32 22 -84 32 -137 32c-108 0 -135 -62 -135 -105c0 -50 26 -88 116 -129l41 -18
c117 -54 151 -115 151 -186c0 -91 -59 -162 -169 -177l-27 -40c58 -16 82 -48 82 -87z" />
    <glyph glyph-name="Tcaron" unicode="&#x164;" horiz-adv-x="506" 
d="M220 6v593h-208c-4 0 -6 1 -5 6l9 49c1 3 2 5 7 5h463c4 0 6 -1 7 -5l6 -49c1 -4 -1 -6 -5 -6h-208v-592c0 -5 -2 -7 -6 -7h-54c-4 0 -6 2 -6 6zM181 827l76 -78l74 78c2 2 4 4 8 4h52c4 0 4 -5 2 -7l-102 -107c-2 -2 -4 -2 -6 -2h-58c-4 0 -7 1 -9 3l-106 108
c-3 3 -1 5 3 5h56c5 0 7 -1 10 -4z" />
    <glyph glyph-name="uni1E6C" unicode="&#x1e6c;" horiz-adv-x="506" 
d="M220 6v593h-208c-4 0 -6 1 -5 6l9 49c1 3 2 5 7 5h463c4 0 6 -1 7 -5l6 -49c1 -4 -1 -6 -5 -6h-208v-592c0 -5 -2 -7 -6 -7h-54c-4 0 -6 2 -6 6zM252 -164c-25 0 -42 19 -42 42c0 25 18 43 43 43s41 -19 41 -42c0 -24 -15 -43 -42 -43z" />
    <glyph glyph-name="uni021A" unicode="&#x21a;" horiz-adv-x="506" 
d="M220 6v593h-208c-4 0 -6 1 -5 6l9 49c1 3 2 5 7 5h463c4 0 6 -1 7 -5l6 -49c1 -4 -1 -6 -5 -6h-208v-592c0 -5 -2 -7 -6 -7h-54c-4 0 -6 2 -6 6zM245 -231h-49c-3 0 -5 3 -3 6c27 46 37 78 37 117c0 18 -5 36 -12 56c-1 2 0 5 3 5h53c3 0 5 -1 7 -4c6 -11 12 -34 12 -51
c0 -54 -16 -88 -42 -126c-1 -1 -3 -3 -6 -3z" />
    <glyph glyph-name="uni0162" unicode="&#x162;" horiz-adv-x="506" 
d="M220 6v593h-208c-4 0 -6 1 -5 6l9 49c1 3 2 5 7 5h463c4 0 6 -1 7 -5l6 -49c1 -4 -1 -6 -5 -6h-208v-592c0 -5 -2 -7 -6 -7h-4l-29 -44c58 -16 86 -47 86 -87c0 -51 -42 -82 -97 -82c-27 0 -50 6 -65 14c-3 1 -4 3 -4 7v32c0 3 2 5 6 4c18 -9 40 -14 59 -14
c30 0 49 12 49 38c0 28 -29 47 -90 56c-3 2 -3 13 -1 16l41 60h-5c-4 0 -6 2 -6 6z" />
    <glyph glyph-name="uni1E6E" unicode="&#x1e6e;" horiz-adv-x="506" 
d="M220 6v593h-208c-4 0 -6 1 -5 6l9 49c1 3 2 5 7 5h463c4 0 6 -1 7 -5l6 -49c1 -4 -1 -6 -5 -6h-208v-592c0 -5 -2 -7 -6 -7h-54c-4 0 -6 2 -6 6zM140 -83h227c2 0 4 -1 4 -5v-42c0 -4 -2 -5 -5 -5h-226c-4 0 -5 2 -5 5v43c0 3 2 4 5 4z" />
    <glyph glyph-name="Ugrave" unicode="&#xd9;" horiz-adv-x="631" 
d="M147 654v-422c0 -114 63 -181 171 -181c84 0 166 37 166 184v419c0 4 1 5 5 5h55c5 0 6 -1 6 -5v-420c0 -178 -103 -243 -235 -243c-139 0 -234 74 -234 237v425c0 4 1 6 6 6h55c3 0 5 -1 5 -5zM372 732c3 -4 1 -6 -3 -6h-59c-4 0 -7 0 -11 4l-128 104c-3 4 -1 7 2 7h72
c4 0 6 -1 9 -4z" />
    <glyph glyph-name="Uacute" unicode="&#xda;" horiz-adv-x="631" 
d="M147 654v-422c0 -114 63 -181 171 -181c84 0 166 37 166 184v419c0 4 1 5 5 5h55c5 0 6 -1 6 -5v-420c0 -178 -103 -243 -235 -243c-139 0 -234 74 -234 237v425c0 4 1 6 6 6h55c3 0 5 -1 5 -5zM258 727l122 109c3 3 5 3 8 3h70c4 0 5 -4 2 -7l-129 -106
c-3 -4 -6 -4 -10 -4h-60c-4 0 -5 3 -3 5z" />
    <glyph glyph-name="Ucircumflex" unicode="&#xdb;" horiz-adv-x="631" 
d="M147 654v-422c0 -114 63 -181 171 -181c84 0 166 37 166 184v419c0 4 1 5 5 5h55c5 0 6 -1 6 -5v-420c0 -178 -103 -243 -235 -243c-139 0 -234 74 -234 237v425c0 4 1 6 6 6h55c3 0 5 -1 5 -5zM389 721l-76 78l-74 -78c-2 -2 -5 -4 -9 -4h-51c-4 0 -4 5 -2 7l102 107
c2 2 4 3 6 3h57c5 0 8 -2 10 -4l106 -108c2 -3 0 -5 -3 -5h-56c-5 0 -8 1 -10 4z" />
    <glyph glyph-name="Utilde" unicode="&#x168;" horiz-adv-x="631" 
d="M147 654v-422c0 -114 63 -181 171 -181c84 0 166 37 166 184v419c0 4 1 5 5 5h55c5 0 6 -1 6 -5v-420c0 -178 -103 -243 -235 -243c-139 0 -234 74 -234 237v425c0 4 1 6 6 6h55c3 0 5 -1 5 -5zM218 729h-39c-4 0 -4 2 -5 5c2 60 39 98 85 98c60 0 85 -53 121 -53
c21 0 33 17 36 46c0 3 1 4 5 4h39c3 0 5 -1 5 -4c-6 -73 -41 -97 -81 -97c-56 0 -82 53 -121 53c-20 0 -36 -15 -40 -48c0 -2 -2 -4 -5 -4z" />
    <glyph glyph-name="Umacron" unicode="&#x16a;" horiz-adv-x="631" 
d="M147 654v-422c0 -114 63 -181 171 -181c84 0 166 37 166 184v419c0 4 1 5 5 5h55c5 0 6 -1 6 -5v-420c0 -178 -103 -243 -235 -243c-139 0 -234 74 -234 237v425c0 4 1 6 6 6h55c3 0 5 -1 5 -5zM192 795h251c3 0 4 -2 4 -5v-44c0 -4 -2 -6 -5 -6h-248c-4 0 -6 2 -6 6v44
c0 3 1 5 4 5z" />
    <glyph glyph-name="Ubreve" unicode="&#x16c;" horiz-adv-x="631" 
d="M147 654v-422c0 -114 63 -181 171 -181c84 0 166 37 166 184v419c0 4 1 5 5 5h55c5 0 6 -1 6 -5v-420c0 -178 -103 -243 -235 -243c-139 0 -234 74 -234 237v425c0 4 1 6 6 6h55c3 0 5 -1 5 -5zM182 823h46c3 0 4 -1 5 -5c11 -36 37 -60 81 -60c39 0 69 17 84 60
c1 3 2 5 6 5h44c4 0 5 -3 4 -6c-13 -70 -68 -113 -138 -113c-71 0 -124 38 -137 113c0 3 1 6 5 6z" />
    <glyph glyph-name="Udieresis" unicode="&#xdc;" horiz-adv-x="631" 
d="M147 654v-422c0 -114 63 -181 171 -181c84 0 166 37 166 184v419c0 4 1 5 5 5h55c5 0 6 -1 6 -5v-420c0 -178 -103 -243 -235 -243c-139 0 -234 74 -234 237v425c0 4 1 6 6 6h55c3 0 5 -1 5 -5zM224 734c-23 0 -39 15 -39 38c0 22 18 38 41 38s39 -17 39 -38
c0 -23 -17 -38 -41 -38zM405 734c-22 0 -39 15 -39 38c0 22 18 38 41 38c22 0 39 -16 39 -38c0 -24 -16 -38 -41 -38z" />
    <glyph glyph-name="uni1EE6" unicode="&#x1ee6;" horiz-adv-x="631" 
d="M147 654v-422c0 -114 63 -181 171 -181c84 0 166 37 166 184v419c0 4 1 5 5 5h55c5 0 6 -1 6 -5v-420c0 -178 -103 -243 -235 -243c-139 0 -234 74 -234 237v425c0 4 1 6 6 6h55c3 0 5 -1 5 -5zM229 799v33c0 3 1 4 3 6c21 12 53 21 82 21c59 0 93 -30 93 -70
c0 -52 -64 -86 -112 -99c-3 -1 -5 0 -5 3v32c0 3 1 5 3 6c34 17 56 31 56 53c0 18 -16 31 -44 31c-25 0 -46 -7 -70 -19c-4 -2 -6 0 -6 3z" />
    <glyph glyph-name="Uring" unicode="&#x16e;" horiz-adv-x="631" 
d="M147 654v-422c0 -114 63 -181 171 -181c84 0 166 37 166 184v419c0 4 1 5 5 5h55c5 0 6 -1 6 -5v-420c0 -178 -103 -243 -235 -243c-139 0 -234 74 -234 237v425c0 4 1 6 6 6h55c3 0 5 -1 5 -5zM216 778c0 50 41 82 98 82c59 0 97 -34 97 -82c0 -49 -40 -84 -97 -84
c-59 0 -98 35 -98 84zM259 778c0 -28 23 -47 55 -47c33 0 56 17 56 47c0 29 -24 47 -56 47c-33 0 -55 -18 -55 -47z" />
    <glyph glyph-name="Uhungarumlaut" unicode="&#x170;" horiz-adv-x="631" 
d="M147 654v-422c0 -114 63 -181 171 -181c84 0 166 37 166 184v419c0 4 1 5 5 5h55c5 0 6 -1 6 -5v-420c0 -178 -103 -243 -235 -243c-139 0 -234 74 -234 237v425c0 4 1 6 6 6h55c3 0 5 -1 5 -5zM199 729l75 107c2 3 4 5 8 5h55c3 0 5 -3 3 -6l-84 -108c-3 -3 -4 -3 -8 -3
h-46c-3 0 -5 1 -3 5zM354 730l73 106c3 3 5 5 9 5h55c4 0 5 -4 3 -7l-82 -105c-3 -5 -7 -5 -10 -5h-45c-3 0 -6 1 -3 6z" />
    <glyph glyph-name="uni01D3" unicode="&#x1d3;" horiz-adv-x="631" 
d="M147 654v-422c0 -114 63 -181 171 -181c84 0 166 37 166 184v419c0 4 1 5 5 5h55c5 0 6 -1 6 -5v-420c0 -178 -103 -243 -235 -243c-139 0 -234 74 -234 237v425c0 4 1 6 6 6h55c3 0 5 -1 5 -5zM244 824l76 -78l74 78c2 2 4 4 8 4h52c4 0 4 -5 2 -7l-102 -107
c-2 -2 -4 -2 -6 -2h-58c-4 0 -7 1 -9 3l-106 108c-3 3 -1 5 3 5h56c5 0 7 -1 10 -4z" />
    <glyph glyph-name="uni1EE4" unicode="&#x1ee4;" horiz-adv-x="631" 
d="M147 654v-422c0 -114 63 -181 171 -181c84 0 166 37 166 184v419c0 4 1 5 5 5h55c5 0 6 -1 6 -5v-420c0 -178 -103 -243 -235 -243c-139 0 -234 74 -234 237v425c0 4 1 6 6 6h55c3 0 5 -1 5 -5zM315 -150c-24 0 -41 17 -41 41c0 23 18 41 42 41s40 -18 40 -41
s-15 -41 -41 -41z" />
    <glyph glyph-name="uni01DB" unicode="&#x1db;" horiz-adv-x="631" 
d="M147 654v-422c0 -114 63 -181 171 -181c84 0 166 37 166 184v419c0 4 1 5 5 5h55c5 0 6 -1 6 -5v-420c0 -178 -103 -243 -235 -243c-139 0 -234 74 -234 237v425c0 4 1 6 6 6h55c3 0 5 -1 5 -5zM286 880l68 -89c1 -3 0 -5 -3 -5h-51c-4 0 -5 1 -7 4l-73 89c-1 2 0 4 2 4
h57c3 0 4 -1 7 -3zM217 704c-20 0 -34 12 -34 31c0 20 16 32 35 32s32 -13 32 -32s-15 -31 -33 -31zM414 704c-19 0 -33 12 -33 31c0 20 15 32 34 32s33 -13 33 -32c0 -18 -14 -31 -34 -31z" />
    <glyph glyph-name="uni01D7" unicode="&#x1d7;" horiz-adv-x="631" 
d="M147 654v-422c0 -114 63 -181 171 -181c84 0 166 37 166 184v419c0 4 1 5 5 5h55c5 0 6 -1 6 -5v-420c0 -178 -103 -243 -235 -243c-139 0 -234 74 -234 237v425c0 4 1 6 6 6h55c3 0 5 -1 5 -5zM282 797l68 89c3 2 4 3 7 3h57c2 0 3 -2 2 -4l-73 -89c-1 -3 -3 -4 -7 -4
h-51c-3 0 -4 2 -3 5zM217 710c-20 0 -34 12 -34 31c0 20 16 32 35 32s32 -13 32 -32s-15 -31 -33 -31zM414 710c-19 0 -33 12 -33 31c0 20 15 32 34 32s33 -13 33 -32c0 -18 -14 -31 -34 -31z" />
    <glyph glyph-name="uni01D5" unicode="&#x1d5;" horiz-adv-x="631" 
d="M147 654v-422c0 -114 63 -181 171 -181c84 0 166 37 166 184v419c0 4 1 5 5 5h55c5 0 6 -1 6 -5v-420c0 -178 -103 -243 -235 -243c-139 0 -234 74 -234 237v425c0 4 1 6 6 6h55c3 0 5 -1 5 -5zM197 859h239c3 0 5 -1 5 -5v-36c0 -3 -2 -4 -5 -4h-239c-4 0 -4 2 -4 5v36
c0 3 1 4 4 4zM219 706c-20 0 -34 12 -34 31c0 20 16 32 35 32s32 -13 32 -32s-15 -31 -33 -31zM416 706c-19 0 -33 12 -33 31c0 20 15 32 34 32s33 -13 33 -32c0 -18 -14 -31 -34 -31z" />
    <glyph glyph-name="uni01D9" unicode="&#x1d9;" horiz-adv-x="631" 
d="M147 654v-422c0 -114 63 -181 171 -181c84 0 166 37 166 184v419c0 4 1 5 5 5h55c5 0 6 -1 6 -5v-420c0 -178 -103 -243 -235 -243c-139 0 -234 74 -234 237v425c0 4 1 6 6 6h55c3 0 5 -1 5 -5zM317 821c13 11 51 41 63 51c1 2 4 3 8 3h50c3 0 4 -3 2 -6l-89 -72
c-2 -2 -5 -3 -7 -3h-58c-4 0 -7 1 -9 4l-91 71c-2 3 -1 6 3 6h53c5 0 7 -2 10 -4c15 -12 49 -38 65 -50zM216 706c-20 0 -34 13 -34 31c0 21 16 32 35 32s33 -12 33 -32c0 -19 -16 -31 -34 -31zM414 706c-19 0 -33 12 -33 31c0 20 15 32 34 32c20 0 34 -13 34 -32
c0 -17 -15 -31 -35 -31z" />
    <glyph glyph-name="uni1EEA" unicode="&#x1eea;" horiz-adv-x="631" 
d="M573 766h47c6 0 7 -2 8 -7c4 -11 6 -25 6 -44c0 -50 -32 -88 -84 -95v-386c0 -178 -103 -243 -235 -243c-139 0 -234 74 -234 237v425c0 4 1 6 6 6h55c3 0 5 -1 5 -5v-422c0 -114 63 -181 171 -181c84 0 166 37 166 184v419c0 4 1 5 5 5h29c48 1 56 27 56 56
c0 11 -2 30 -5 44c-1 4 0 7 4 7zM376 734c3 -4 1 -6 -3 -6h-59c-4 0 -7 0 -11 4l-128 104c-3 4 -1 7 2 7h72c4 0 6 -1 9 -4z" />
    <glyph glyph-name="uni1EE8" unicode="&#x1ee8;" horiz-adv-x="631" 
d="M573 766h47c6 0 7 -2 8 -7c4 -11 6 -25 6 -44c0 -50 -32 -88 -84 -95v-386c0 -178 -103 -243 -235 -243c-139 0 -234 74 -234 237v425c0 4 1 6 6 6h55c3 0 5 -1 5 -5v-422c0 -114 63 -181 171 -181c84 0 166 37 166 184v419c0 4 1 5 5 5h29c48 1 56 27 56 56
c0 11 -2 30 -5 44c-1 4 0 7 4 7zM263 734l122 109c3 3 5 3 8 3h70c4 0 5 -4 2 -7l-129 -106c-3 -4 -6 -4 -10 -4h-60c-4 0 -5 3 -3 5z" />
    <glyph glyph-name="uni1EEE" unicode="&#x1eee;" horiz-adv-x="631" 
d="M573 766h47c6 0 7 -2 8 -7c4 -11 6 -25 6 -44c0 -50 -32 -88 -84 -95v-386c0 -178 -103 -243 -235 -243c-139 0 -234 74 -234 237v425c0 4 1 6 6 6h55c3 0 5 -1 5 -5v-422c0 -114 63 -181 171 -181c84 0 166 37 166 184v419c0 4 1 5 5 5h29c48 1 56 27 56 56
c0 11 -2 30 -5 44c-1 4 0 7 4 7zM215 720h-39c-4 0 -4 2 -5 5c2 60 39 98 85 98c60 0 85 -53 121 -53c21 0 33 17 36 46c0 3 1 4 5 4h39c3 0 5 -1 5 -4c-6 -73 -41 -97 -81 -97c-56 0 -82 53 -121 53c-20 0 -36 -15 -40 -48c0 -2 -2 -4 -5 -4z" />
    <glyph glyph-name="uni1EEC" unicode="&#x1eec;" horiz-adv-x="631" 
d="M573 766h47c6 0 7 -2 8 -7c4 -11 6 -25 6 -44c0 -50 -32 -88 -84 -95v-386c0 -178 -103 -243 -235 -243c-139 0 -234 74 -234 237v425c0 4 1 6 6 6h55c3 0 5 -1 5 -5v-422c0 -114 63 -181 171 -181c84 0 166 37 166 184v419c0 4 1 5 5 5h29c48 1 56 27 56 56
c0 11 -2 30 -5 44c-1 4 0 7 4 7zM234 810v33c0 3 1 4 3 6c21 12 53 21 82 21c59 0 93 -30 93 -70c0 -52 -64 -86 -112 -99c-3 -1 -5 0 -5 3v32c0 3 1 5 3 6c34 17 56 31 56 53c0 18 -16 31 -44 31c-25 0 -46 -7 -70 -19c-4 -2 -6 0 -6 3z" />
    <glyph glyph-name="uni1EF0" unicode="&#x1ef0;" horiz-adv-x="631" 
d="M573 766h47c6 0 7 -2 8 -7c4 -11 6 -25 6 -44c0 -50 -32 -88 -84 -95v-386c0 -178 -103 -243 -235 -243c-139 0 -234 74 -234 237v425c0 4 1 6 6 6h55c3 0 5 -1 5 -5v-422c0 -114 63 -181 171 -181c84 0 166 37 166 184v419c0 4 1 5 5 5h29c48 1 56 27 56 56
c0 11 -2 30 -5 44c-1 4 0 7 4 7zM315 -175c-24 0 -41 17 -41 41c0 23 18 41 42 41s40 -18 40 -41s-15 -41 -41 -41z" />
    <glyph glyph-name="Wgrave" unicode="&#x1e80;" horiz-adv-x="840" 
d="M468 654c46 -197 96 -399 137 -581h1c13 56 46 197 139 581c1 4 3 5 7 5h55c5 0 6 -1 5 -6l-168 -648c-2 -4 -3 -5 -8 -5h-66c-6 0 -7 1 -8 5c-29 122 -119 504 -136 585h-1c-16 -82 -121 -470 -151 -583c-1 -5 -3 -7 -8 -7h-64c-5 0 -6 2 -8 6l-166 647c-1 5 0 6 4 6h59
c4 0 6 0 7 -4c103 -419 132 -537 139 -582h1c12 52 47 179 149 582c2 4 5 4 8 4h67c4 0 5 -1 6 -5zM468 731c3 -4 1 -6 -3 -6h-59c-4 0 -7 0 -11 4l-128 104c-3 4 -1 7 2 7h72c4 0 6 -1 9 -4z" />
    <glyph glyph-name="Wacute" unicode="&#x1e82;" horiz-adv-x="840" 
d="M468 654c46 -197 96 -399 137 -581h1c13 56 46 197 139 581c1 4 3 5 7 5h55c5 0 6 -1 5 -6l-168 -648c-2 -4 -3 -5 -8 -5h-66c-6 0 -7 1 -8 5c-29 122 -119 504 -136 585h-1c-16 -82 -121 -470 -151 -583c-1 -5 -3 -7 -8 -7h-64c-5 0 -6 2 -8 6l-166 647c-1 5 0 6 4 6h59
c4 0 6 0 7 -4c103 -419 132 -537 139 -582h1c12 52 47 179 149 582c2 4 5 4 8 4h67c4 0 5 -1 6 -5zM382 728l122 109c3 3 5 3 8 3h70c4 0 5 -4 2 -7l-129 -106c-3 -4 -6 -4 -10 -4h-60c-4 0 -5 3 -3 5z" />
    <glyph glyph-name="Wcircumflex" unicode="&#x174;" horiz-adv-x="840" 
d="M468 654c46 -197 96 -399 137 -581h1c13 56 46 197 139 581c1 4 3 5 7 5h55c5 0 6 -1 5 -6l-168 -648c-2 -4 -3 -5 -8 -5h-66c-6 0 -7 1 -8 5c-29 122 -119 504 -136 585h-1c-16 -82 -121 -470 -151 -583c-1 -5 -3 -7 -8 -7h-64c-5 0 -6 2 -8 6l-166 647c-1 5 0 6 4 6h59
c4 0 6 0 7 -4c103 -419 132 -537 139 -582h1c12 52 47 179 149 582c2 4 5 4 8 4h67c4 0 5 -1 6 -5zM500 718l-76 78l-74 -78c-2 -2 -5 -4 -9 -4h-51c-4 0 -4 5 -2 7l102 107c2 2 4 3 6 3h57c5 0 8 -2 10 -4l106 -108c2 -3 0 -5 -3 -5h-56c-5 0 -8 1 -10 4z" />
    <glyph glyph-name="Wdieresis" unicode="&#x1e84;" horiz-adv-x="840" 
d="M468 654c46 -197 96 -399 137 -581h1c13 56 46 197 139 581c1 4 3 5 7 5h55c5 0 6 -1 5 -6l-168 -648c-2 -4 -3 -5 -8 -5h-66c-6 0 -7 1 -8 5c-29 122 -119 504 -136 585h-1c-16 -82 -121 -470 -151 -583c-1 -5 -3 -7 -8 -7h-64c-5 0 -6 2 -8 6l-166 647c-1 5 0 6 4 6h59
c4 0 6 0 7 -4c103 -419 132 -537 139 -582h1c12 52 47 179 149 582c2 4 5 4 8 4h67c4 0 5 -1 6 -5zM336 730c-23 0 -39 15 -39 38c0 22 18 38 41 38s39 -17 39 -38c0 -23 -17 -38 -41 -38zM517 730c-22 0 -39 15 -39 38c0 22 18 38 41 38c22 0 39 -16 39 -38
c0 -24 -16 -38 -41 -38z" />
    <glyph glyph-name="Ygrave" unicode="&#x1ef2;" horiz-adv-x="508" 
d="M214 274l-213 379c-3 4 1 6 4 6h63c4 0 5 -1 7 -3c124 -227 166 -303 182 -337c16 34 56 109 179 336c2 3 4 4 7 4h61c4 0 4 -2 3 -5l-215 -382c-5 -8 -6 -14 -6 -24v-242c0 -4 -2 -6 -6 -6h-53c-6 0 -7 2 -7 6v244c0 11 -1 15 -6 24zM305 726c3 -4 1 -6 -3 -6h-59
c-4 0 -7 0 -11 4l-128 104c-3 4 -1 7 2 7h72c4 0 6 -1 9 -4z" />
    <glyph glyph-name="Yacute" unicode="&#xdd;" horiz-adv-x="508" 
d="M214 274l-213 379c-3 4 1 6 4 6h63c4 0 5 -1 7 -3c124 -227 166 -303 182 -337c16 34 56 109 179 336c2 3 4 4 7 4h61c4 0 4 -2 3 -5l-215 -382c-5 -8 -6 -14 -6 -24v-242c0 -4 -2 -6 -6 -6h-53c-6 0 -7 2 -7 6v244c0 11 -1 15 -6 24zM200 725l122 109c3 3 5 3 8 3h70
c4 0 5 -4 2 -7l-129 -106c-3 -4 -6 -4 -10 -4h-60c-4 0 -5 3 -3 5z" />
    <glyph glyph-name="Ycircumflex" unicode="&#x176;" horiz-adv-x="508" 
d="M214 274l-213 379c-3 4 1 6 4 6h63c4 0 5 -1 7 -3c124 -227 166 -303 182 -337c16 34 56 109 179 336c2 3 4 4 7 4h61c4 0 4 -2 3 -5l-215 -382c-5 -8 -6 -14 -6 -24v-242c0 -4 -2 -6 -6 -6h-53c-6 0 -7 2 -7 6v244c0 11 -1 15 -6 24zM326 719l-76 78l-74 -78
c-2 -2 -5 -4 -9 -4h-51c-4 0 -4 5 -2 7l102 107c2 2 4 3 6 3h57c5 0 8 -2 10 -4l106 -108c2 -3 0 -5 -3 -5h-56c-5 0 -8 1 -10 4z" />
    <glyph glyph-name="uni1EF8" unicode="&#x1ef8;" horiz-adv-x="508" 
d="M214 274l-213 379c-3 4 1 6 4 6h63c4 0 5 -1 7 -3c124 -227 166 -303 182 -337c16 34 56 109 179 336c2 3 4 4 7 4h61c4 0 4 -2 3 -5l-215 -382c-5 -8 -6 -14 -6 -24v-242c0 -4 -2 -6 -6 -6h-53c-6 0 -7 2 -7 6v244c0 11 -1 15 -6 24zM154 720h-39c-4 0 -4 2 -5 5
c2 60 39 98 85 98c60 0 85 -53 121 -53c21 0 33 17 36 46c0 3 1 4 5 4h39c3 0 5 -1 5 -4c-6 -73 -41 -97 -81 -97c-56 0 -82 53 -121 53c-20 0 -36 -15 -40 -48c0 -2 -2 -4 -5 -4z" />
    <glyph glyph-name="uni1E8E" unicode="&#x1e8e;" horiz-adv-x="508" 
d="M214 274l-213 379c-3 4 1 6 4 6h63c4 0 5 -1 7 -3c124 -227 166 -303 182 -337c16 34 56 109 179 336c2 3 4 4 7 4h61c4 0 4 -2 3 -5l-215 -382c-5 -8 -6 -14 -6 -24v-242c0 -4 -2 -6 -6 -6h-53c-6 0 -7 2 -7 6v244c0 11 -1 15 -6 24zM252 727c-25 0 -41 17 -41 39
c0 23 17 38 43 38c24 0 40 -15 40 -38c0 -22 -14 -39 -42 -39z" />
    <glyph glyph-name="Ydieresis" unicode="&#x178;" horiz-adv-x="508" 
d="M214 274l-213 379c-3 4 1 6 4 6h63c4 0 5 -1 7 -3c124 -227 166 -303 182 -337c16 34 56 109 179 336c2 3 4 4 7 4h61c4 0 4 -2 3 -5l-215 -382c-5 -8 -6 -14 -6 -24v-242c0 -4 -2 -6 -6 -6h-53c-6 0 -7 2 -7 6v244c0 11 -1 15 -6 24zM166 720c-23 0 -39 15 -39 38
c0 22 18 38 41 38s39 -17 39 -38c0 -23 -17 -38 -41 -38zM347 720c-22 0 -39 15 -39 38c0 22 18 38 41 38c22 0 39 -16 39 -38c0 -24 -16 -38 -41 -38z" />
    <glyph glyph-name="uni1EF6" unicode="&#x1ef6;" horiz-adv-x="508" 
d="M214 274l-213 379c-3 4 1 6 4 6h63c4 0 5 -1 7 -3c124 -227 166 -303 182 -337c16 34 56 109 179 336c2 3 4 4 7 4h61c4 0 4 -2 3 -5l-215 -382c-5 -8 -6 -14 -6 -24v-242c0 -4 -2 -6 -6 -6h-53c-6 0 -7 2 -7 6v244c0 11 -1 15 -6 24zM167 793v33c0 3 1 4 3 6
c21 12 53 21 82 21c59 0 93 -30 93 -70c0 -52 -64 -86 -112 -99c-3 -1 -5 0 -5 3v32c0 3 1 5 3 6c34 17 56 31 56 53c0 18 -16 31 -44 31c-25 0 -46 -7 -70 -19c-4 -2 -6 0 -6 3z" />
    <glyph glyph-name="uni1EF4" unicode="&#x1ef4;" horiz-adv-x="508" 
d="M214 274l-213 379c-3 4 1 6 4 6h63c4 0 5 -1 7 -3c124 -227 166 -303 182 -337c16 34 56 109 179 336c2 3 4 4 7 4h61c4 0 4 -2 3 -5l-215 -382c-5 -8 -6 -14 -6 -24v-242c0 -4 -2 -6 -6 -6h-53c-6 0 -7 2 -7 6v244c0 11 -1 15 -6 24zM253 -168c-24 0 -41 17 -41 41
c0 23 18 41 42 41s40 -18 40 -41s-15 -41 -41 -41z" />
    <glyph glyph-name="Zacute" unicode="&#x179;" horiz-adv-x="518" 
d="M480 0h-453c-3 0 -5 1 -5 6v34c0 4 1 6 3 10l379 549h-364c-3 0 -6 1 -5 6l10 49c2 5 3 5 7 5h431c3 0 4 -1 4 -4v-37c0 -3 -1 -6 -4 -11l-376 -546h387c4 0 5 -2 4 -6l-11 -50c-1 -4 -2 -5 -7 -5zM206 733l122 109c3 3 5 3 8 3h70c4 0 5 -4 2 -7l-129 -106
c-3 -4 -6 -4 -10 -4h-60c-4 0 -5 3 -3 5z" />
    <glyph glyph-name="Zdotaccent" unicode="&#x17b;" horiz-adv-x="518" 
d="M480 0h-453c-3 0 -5 1 -5 6v34c0 4 1 6 3 10l379 549h-364c-3 0 -6 1 -5 6l10 49c2 5 3 5 7 5h431c3 0 4 -1 4 -4v-37c0 -3 -1 -6 -4 -11l-376 -546h387c4 0 5 -2 4 -6l-11 -50c-1 -4 -2 -5 -7 -5zM254 740c-25 0 -41 17 -41 39c0 23 17 38 43 38c24 0 40 -15 40 -38
c0 -22 -14 -39 -42 -39z" />
    <glyph glyph-name="Zcaron" unicode="&#x17d;" horiz-adv-x="518" 
d="M480 0h-453c-3 0 -5 1 -5 6v34c0 4 1 6 3 10l379 549h-364c-3 0 -6 1 -5 6l10 49c2 5 3 5 7 5h431c3 0 4 -1 4 -4v-37c0 -3 -1 -6 -4 -11l-376 -546h387c4 0 5 -2 4 -6l-11 -50c-1 -4 -2 -5 -7 -5zM183 835l76 -78l74 78c2 2 4 4 8 4h52c4 0 4 -5 2 -7l-102 -107
c-2 -2 -4 -2 -6 -2h-58c-4 0 -7 1 -9 3l-106 108c-3 3 -1 5 3 5h56c5 0 7 -1 10 -4z" />
    <glyph glyph-name="uni1E92" unicode="&#x1e92;" horiz-adv-x="518" 
d="M480 0h-453c-3 0 -5 1 -5 6v34c0 4 1 6 3 10l379 549h-364c-3 0 -6 1 -5 6l10 49c2 5 3 5 7 5h431c3 0 4 -1 4 -4v-37c0 -3 -1 -6 -4 -11l-376 -546h387c4 0 5 -2 4 -6l-11 -50c-1 -4 -2 -5 -7 -5zM259 -169c-25 0 -42 19 -42 42c0 25 18 43 43 43s41 -19 41 -42
c0 -24 -15 -43 -42 -43z" />
    <glyph glyph-name="ae" unicode="&#xe6;" horiz-adv-x="753" 
d="M41 137c0 96 82 150 215 150h72v36c0 40 -17 109 -112 109c-40 0 -84 -10 -127 -36c-4 -2 -6 0 -6 4v51c0 4 1 5 4 6c41 23 92 35 140 35c71 0 122 -31 142 -93c34 58 90 93 163 93c129 0 178 -109 178 -191c0 -31 -3 -58 -7 -60c-12 -4 -53 -6 -103 -6h-210
c0 -108 55 -185 166 -185c49 0 82 7 118 26c3 2 5 1 5 -3v-48c0 -3 -1 -6 -5 -8c-35 -19 -75 -26 -127 -26c-73 0 -127 23 -166 71c-64 -56 -121 -71 -177 -71c-85 0 -163 47 -163 146zM107 141c0 -61 45 -94 109 -94c48 0 94 17 135 59c-11 25 -24 66 -23 130h-73
c-86 0 -148 -28 -148 -95zM526 436c-77 0 -133 -58 -135 -149h207c36 0 45 1 48 3c2 3 2 13 2 22c0 46 -27 124 -122 124z" />
    <glyph glyph-name="oe" unicode="&#x153;" horiz-adv-x="833" 
d="M45 239c0 148 86 251 213 251c80 0 149 -39 180 -126c39 101 116 126 176 126c129 0 179 -109 179 -190c0 -34 -3 -52 -8 -54c-14 -5 -35 -5 -110 -5h-203c-4 -108 51 -191 165 -191c39 0 79 5 118 26c3 1 6 -1 6 -5v-43c0 -5 -1 -8 -5 -10c-33 -20 -75 -27 -130 -27
c-63 0 -150 22 -188 122c-40 -101 -120 -122 -180 -122c-153 0 -213 134 -213 248zM257 431c-86 0 -146 -69 -146 -189c0 -104 50 -193 150 -193c70 0 144 49 144 190c0 100 -40 192 -148 192zM474 291h199c46 0 55 2 56 6v16c0 36 -23 120 -121 120
c-82 0 -126 -60 -134 -142z" />
    <glyph glyph-name="dotlessi" unicode="&#x131;" horiz-adv-x="228" 
d="M81 7v470c0 4 1 6 5 6h55c4 0 6 -1 6 -6v-471c0 -4 -1 -6 -6 -6h-54c-5 0 -6 2 -6 7z" />
    <glyph glyph-name="uni0237" unicode="&#x237;" horiz-adv-x="229" 
d="M88 483h55c4 0 6 -2 6 -6v-494c0 -107 -21 -143 -47 -172c-28 -31 -75 -39 -102 -39c-6 0 -8 0 -14 1c-4 1 -5 3 -5 7v46c0 3 1 6 6 6c50 2 95 15 96 136v509c0 4 1 6 5 6z" />
    <glyph glyph-name="germandbls" unicode="&#xdf;" horiz-adv-x="542" 
d="M284 725c133 0 185 -109 176 -213c-108 -27 -135 -73 -135 -106c0 -27 23 -48 70 -82c92 -69 106 -116 106 -174c0 -93 -74 -159 -186 -159c-47 0 -81 8 -105 21c-4 2 -5 6 -5 10v52c0 3 3 4 6 3c28 -19 65 -28 106 -28c66 0 118 36 119 95c1 39 -12 76 -89 130
c-64 47 -88 78 -88 124c0 63 60 116 137 144c0 63 -38 125 -113 125c-72 0 -129 -43 -129 -180v-482c0 -3 -2 -5 -4 -5h-57c-3 0 -5 2 -5 5v420h-64c-3 0 -4 2 -4 5v47c0 5 2 6 4 6h65v14c0 139 71 228 195 228z" />
    <glyph glyph-name="thorn" unicode="&#xfe;" horiz-adv-x="528" 
d="M147 470c32 12 66 22 118 22c132 0 215 -98 215 -239c0 -175 -123 -262 -248 -262c-38 0 -67 5 -85 11v-221c0 -4 -1 -5 -5 -6c-17 -2 -52 -7 -56 -7s-5 1 -5 5v949c0 4 1 6 5 6h55c4 0 6 -2 6 -6v-252zM252 432c-50 0 -77 -8 -105 -19v-349c25 -10 56 -16 87 -16
c96 0 179 70 179 202c0 109 -61 182 -161 182z" />
    <glyph glyph-name="uni0259" unicode="&#x259;" horiz-adv-x="478" 
d="M157 251h206c4 92 -43 180 -153 180c-46 0 -92 -9 -129 -30c-3 -1 -5 0 -5 3v47c0 5 1 7 5 9c30 16 79 31 140 31c152 0 209 -122 209 -246c0 -149 -76 -254 -205 -254c-136 0 -182 119 -182 199c0 24 2 42 3 51c1 3 3 7 8 7c14 2 58 3 103 3zM362 201h-189
c-52 0 -62 -1 -66 -2c0 -3 -1 -13 -1 -17c0 -42 25 -135 122 -135c86 0 127 70 134 154z" />
    <glyph glyph-name="eth" unicode="&#xf0;" horiz-adv-x="524" 
d="M257 -9c-146 0 -209 123 -209 235c0 140 89 230 218 230c46 0 88 -12 116 -38c-18 61 -52 112 -96 152l-138 -78c-2 -1 -5 0 -5 3v33c0 4 2 5 4 7l106 61c-45 32 -98 54 -155 68c-4 1 -6 2 -6 7v48c0 5 2 6 5 6c4 0 15 -1 22 -3c74 -18 140 -49 193 -93l113 65
c4 1 5 0 5 -3v-35c0 -3 -2 -5 -4 -7l-84 -47c83 -82 130 -198 130 -339c0 -171 -83 -272 -215 -272zM267 400c-88 0 -152 -56 -152 -174c0 -92 50 -177 147 -177c74 0 144 55 144 203c0 42 -5 59 -10 78c-2 8 -9 17 -11 20c-26 31 -66 50 -118 50z" />
    <glyph glyph-name="dcroat" unicode="&#x111;" horiz-adv-x="515" 
d="M281 -9c-134 0 -236 83 -236 243c0 147 102 249 253 249c39 0 53 -4 70 -9v103h-173c-4 0 -5 2 -5 5v42c0 3 1 4 5 4h173v82c0 4 1 5 5 5h56c4 0 5 -2 5 -5v-82h68c4 0 5 0 5 -4v-43c0 -3 -2 -4 -5 -4h-68v-503c0 -13 0 -28 1 -39c0 -4 0 -6 -4 -8
c-50 -27 -95 -36 -150 -36zM368 66v344c-18 10 -37 15 -72 15c-118 0 -184 -84 -184 -188c0 -136 91 -186 175 -186c28 0 57 3 81 15z" />
    <glyph glyph-name="hbar" unicode="&#x127;" horiz-adv-x="527" 
d="M146 363v-357c0 -5 -1 -6 -5 -6h-55c-4 0 -6 2 -6 6v571h-72c-4 0 -5 2 -5 5v42c0 3 1 4 4 4h73v82c0 3 1 5 5 5h56c4 0 5 -1 5 -5v-82h169c4 0 5 0 5 -4v-43c0 -3 -2 -4 -5 -4h-169l1 -153c41 41 89 59 146 59c65 0 154 -31 154 -185v-292c0 -4 -2 -6 -6 -6h-54
c-4 0 -6 2 -6 7v285c0 79 -33 132 -105 132c-53 0 -97 -20 -130 -61z" />
    <glyph glyph-name="lslash" unicode="&#x142;" horiz-adv-x="253" 
d="M90 90v285l-58 -32c-3 -1 -5 0 -5 4v38c0 3 1 5 4 6l59 32v287c0 4 2 5 6 5h54c5 0 6 -2 6 -5v-251l74 41c4 1 6 0 6 -3v-32c0 -4 0 -11 -4 -13l-76 -41v-316c0 -39 16 -47 39 -47c7 0 11 0 20 2c3 1 3 -1 3 -5v-41c0 -5 0 -6 -4 -8c-8 -3 -23 -6 -40 -6
c-41 0 -84 14 -84 100z" />
    <glyph glyph-name="oslash" unicode="&#xf8;" horiz-adv-x="517" 
d="M260 492c49 0 91 -14 124 -40l21 29c2 2 3 3 6 3h39c4 0 5 -2 3 -6l-39 -55c37 -44 58 -106 58 -181c0 -151 -85 -251 -212 -251c-51 0 -92 14 -123 38l-21 -29c-2 -4 -5 -4 -8 -4h-38c-5 0 -4 3 -2 6l39 55c-43 49 -62 118 -62 184c0 143 85 251 215 251zM256 435
c-87 0 -146 -75 -146 -192c0 -50 12 -97 35 -132l204 290c-23 21 -54 34 -93 34zM407 240c0 47 -10 93 -31 128l-204 -288c24 -21 54 -33 90 -33c73 0 145 58 145 193z" />
    <glyph glyph-name="uni0251" unicode="&#x251;" horiz-adv-x="515" 
d="M281 -9c-134 0 -236 85 -236 247c0 149 102 254 254 254c52 0 96 -8 129 -20c2 -1 6 -2 6 -8v-390c0 -13 0 -28 1 -39c0 -4 0 -6 -4 -8c-50 -27 -95 -36 -150 -36zM287 51c28 0 57 3 81 15v357c-12 5 -37 11 -72 11c-118 0 -184 -86 -184 -193c0 -138 91 -190 175 -190z
" />
    <glyph glyph-name="uni0261" unicode="&#x261;" horiz-adv-x="512" 
d="M430 422v-386c0 -44 -3 -81 -9 -110c-26 -128 -120 -162 -217 -162c-41 0 -94 6 -131 26c-4 2 -5 3 -5 7v59c1 3 3 4 6 3c41 -24 89 -32 132 -32c119 0 157 63 158 177v11c-30 -15 -64 -19 -97 -19c-116 0 -222 80 -222 242c0 148 99 254 248 254c59 0 109 -13 138 -26
c2 -1 2 -2 2 -5c-2 -16 -3 -32 -3 -39zM364 74v347c-21 9 -49 13 -76 13c-118 0 -175 -90 -175 -195c0 -131 86 -183 162 -183c32 0 64 3 89 18z" />
    <glyph glyph-name="aogonek" unicode="&#x105;" horiz-adv-x="466" 
d="M227 492c115 0 164 -79 164 -180v-235c0 -13 0 -29 2 -43c0 -4 0 -5 -4 -7c-82 -48 -126 -94 -126 -137c0 -34 24 -56 63 -56c24 0 47 5 58 10c4 1 6 0 6 -3v-37c0 -6 -2 -8 -5 -10c-19 -10 -50 -15 -77 -15c-50 0 -108 26 -108 94c0 50 40 92 83 123
c-22 -5 -43 -5 -65 -5c-103 0 -177 50 -177 150c0 107 100 152 217 152c37 0 58 -1 68 -2v31c0 36 -14 110 -109 110c-48 0 -89 -13 -128 -36c-2 -2 -6 0 -6 4v49c0 4 2 6 5 7c35 21 87 36 139 36zM326 66v171c-9 2 -36 4 -67 4c-99 0 -153 -35 -153 -98
c0 -48 33 -97 126 -97c34 0 66 7 94 20z" />
    <glyph glyph-name="eogonek" unicode="&#x119;" horiz-adv-x="473" 
d="M285 -7c-183 -13 -240 120 -240 244c0 142 77 255 206 255c136 0 181 -111 181 -191c0 -23 -2 -40 -4 -49c0 -4 -2 -7 -7 -7c-14 -2 -58 -4 -103 -4h-207c-3 -111 53 -191 166 -191c40 0 81 7 117 27c3 1 5 0 5 -4v-46c0 -5 -1 -7 -5 -10c-83 -38 -131 -84 -131 -129
c0 -34 24 -57 64 -57c23 0 43 5 53 10c4 2 6 1 6 -3v-36c0 -5 -2 -7 -5 -9c-19 -11 -47 -15 -73 -15c-51 0 -106 26 -106 94c0 49 36 89 83 121zM113 292h189c52 0 62 1 65 2c1 3 1 12 1 16c0 41 -22 125 -120 125c-84 0 -126 -68 -135 -143z" />
    <glyph glyph-name="iogonek" unicode="&#x12f;" horiz-adv-x="228" 
d="M147 477v-470c0 -4 -2 -4 -5 -7c-41 -37 -60 -69 -60 -105s23 -61 65 -61c27 0 45 5 55 10c4 1 6 0 6 -3v-40c0 -4 -2 -6 -5 -8c-16 -9 -43 -15 -75 -15c-55 0 -111 31 -111 100c0 52 34 95 67 127c-3 2 -3 6 -3 9v463c0 4 1 6 5 6h55c4 0 6 -1 6 -6zM113 599
c-23 0 -39 17 -39 40c0 24 17 41 40 41c24 0 39 -17 39 -41c0 -23 -16 -40 -40 -40z" />
    <glyph glyph-name="uogonek" unicode="&#x173;" horiz-adv-x="520" 
d="M479 -160v-37c0 -6 -3 -8 -6 -10c-19 -10 -43 -15 -69 -15c-51 0 -105 29 -105 97c0 55 42 100 83 138c-2 7 -4 21 -4 36c-39 -41 -89 -58 -141 -58c-74 0 -158 33 -158 179v307c0 4 2 6 6 6h55c4 0 5 -2 5 -6v-297c0 -84 38 -131 108 -131c51 0 91 20 121 57v371
c0 4 2 6 6 6h55c4 0 5 -2 5 -6v-375c0 -45 1 -73 5 -94c1 -3 0 -6 -3 -8c-45 -33 -79 -72 -79 -111c0 -35 22 -55 59 -55c23 0 40 5 50 10c4 1 7 0 7 -4z" />
    <glyph glyph-name="ohorn" unicode="&#x1a1;" horiz-adv-x="517" 
d="M433 558h48c5 0 6 -2 8 -6c3 -11 5 -25 5 -44c0 -48 -27 -82 -74 -93c33 -43 52 -103 52 -173c0 -151 -85 -251 -212 -251c-152 0 -215 130 -215 250c0 143 85 251 215 251c48 0 90 -14 124 -40c42 3 51 28 51 56c0 11 -2 30 -6 44c-1 4 0 6 4 6zM256 434
c-86 0 -145 -74 -145 -191c0 -106 53 -194 151 -194c72 0 143 57 143 191c0 99 -42 194 -149 194z" />
    <glyph glyph-name="uhorn" unicode="&#x1b0;" horiz-adv-x="520" 
d="M451 589h48c5 0 6 -2 8 -7c3 -10 5 -24 5 -42c0 -51 -27 -87 -73 -97v-341c0 -49 3 -76 5 -96c1 -5 -1 -6 -5 -6h-50c-4 0 -5 1 -7 5c-2 11 -5 30 -5 43c-40 -41 -91 -57 -141 -57c-76 0 -157 36 -157 180v306c0 4 2 6 6 6h55c4 0 5 -2 5 -6v-298c0 -82 38 -129 108 -129
c50 0 90 19 120 55v372c0 4 2 6 6 6h24c38 0 50 23 50 56c0 11 -3 29 -6 43c-1 4 0 7 4 7z" />
    <glyph glyph-name="agrave" unicode="&#xe0;" horiz-adv-x="466" 
d="M220 492c118 0 166 -79 166 -180v-237c0 -15 0 -27 2 -41c0 -1 0 -3 -2 -4c-62 -30 -116 -39 -170 -39c-102 0 -175 53 -175 151c0 107 97 151 214 151c36 0 56 -1 67 -2v32c0 35 -14 110 -112 110c-46 0 -88 -12 -120 -29c-3 -2 -6 -1 -6 3v49c0 4 1 6 4 7
c35 18 81 29 132 29zM322 64v173c-13 2 -35 4 -65 4c-101 0 -151 -36 -151 -98c0 -47 30 -97 123 -97c34 0 64 5 93 18zM171 701l106 -142c2 -3 0 -5 -3 -5h-54c-4 0 -6 1 -7 4l-119 141c-1 3 0 6 3 6h67c3 0 5 -1 7 -4z" />
    <glyph glyph-name="aacute" unicode="&#xe1;" horiz-adv-x="466" 
d="M220 492c118 0 166 -79 166 -180v-237c0 -15 0 -27 2 -41c0 -1 0 -3 -2 -4c-62 -30 -116 -39 -170 -39c-102 0 -175 53 -175 151c0 107 97 151 214 151c36 0 56 -1 67 -2v32c0 35 -14 110 -112 110c-46 0 -88 -12 -120 -29c-3 -2 -6 -1 -6 3v49c0 4 1 6 4 7
c35 18 81 29 132 29zM322 64v173c-13 2 -35 4 -65 4c-101 0 -151 -36 -151 -98c0 -47 30 -97 123 -97c34 0 64 5 93 18zM181 560l103 141c2 3 5 6 8 6h62c5 0 6 -3 4 -6l-114 -142c-2 -3 -4 -4 -8 -4h-52c-3 0 -4 2 -3 5z" />
    <glyph glyph-name="acircumflex" unicode="&#xe2;" horiz-adv-x="466" 
d="M220 492c118 0 166 -79 166 -180v-237c0 -15 0 -27 2 -41c0 -1 0 -3 -2 -4c-62 -30 -116 -39 -170 -39c-102 0 -175 53 -175 151c0 107 97 151 214 151c36 0 56 -1 67 -2v32c0 35 -14 110 -112 110c-46 0 -88 -12 -120 -29c-3 -2 -6 -1 -6 3v49c0 4 1 6 4 7
c35 18 81 29 132 29zM322 64v173c-13 2 -35 4 -65 4c-101 0 -151 -36 -151 -98c0 -47 30 -97 123 -97c34 0 64 5 93 18zM296 557l-72 105l-70 -106c-1 -1 -2 -3 -7 -3h-44c-4 0 -4 4 -3 6l93 136c2 3 3 4 6 4h53c4 0 6 -2 7 -5l95 -135c3 -3 1 -6 -3 -6h-48c-4 0 -6 2 -7 4z
" />
    <glyph glyph-name="atilde" unicode="&#xe3;" horiz-adv-x="466" 
d="M220 492c118 0 166 -79 166 -180v-237c0 -15 0 -27 2 -41c0 -1 0 -3 -2 -4c-62 -30 -116 -39 -170 -39c-102 0 -175 53 -175 151c0 107 97 151 214 151c36 0 56 -1 67 -2v32c0 35 -14 110 -112 110c-46 0 -88 -12 -120 -29c-3 -2 -6 -1 -6 3v49c0 4 1 6 4 7
c35 18 81 29 132 29zM322 64v173c-13 2 -35 4 -65 4c-101 0 -151 -36 -151 -98c0 -47 30 -97 123 -97c34 0 64 5 93 18zM122 571h-38c-5 0 -5 3 -5 6c4 63 37 99 87 99c58 0 98 -53 133 -53c25 0 35 17 38 46c0 3 1 5 5 5h38c4 0 5 -1 5 -4c-5 -73 -36 -101 -82 -101
c-53 0 -92 55 -134 55c-24 0 -39 -15 -43 -48c0 -2 -1 -5 -4 -5z" />
    <glyph glyph-name="amacron" unicode="&#x101;" horiz-adv-x="466" 
d="M220 492c118 0 166 -79 166 -180v-237c0 -15 0 -27 2 -41c0 -1 0 -3 -2 -4c-62 -30 -116 -39 -170 -39c-102 0 -175 53 -175 151c0 107 97 151 214 151c36 0 56 -1 67 -2v32c0 35 -14 110 -112 110c-46 0 -88 -12 -120 -29c-3 -2 -6 -1 -6 3v49c0 4 1 6 4 7
c35 18 81 29 132 29zM322 64v173c-13 2 -35 4 -65 4c-101 0 -151 -36 -151 -98c0 -47 30 -97 123 -97c34 0 64 5 93 18zM110 654h242c3 0 5 -2 5 -5v-42c0 -3 -2 -5 -5 -5h-242c-4 0 -4 2 -4 5v42c0 4 1 5 4 5z" />
    <glyph glyph-name="abreve" unicode="&#x103;" horiz-adv-x="466" 
d="M220 492c118 0 166 -79 166 -180v-237c0 -15 0 -27 2 -41c0 -1 0 -3 -2 -4c-62 -30 -116 -39 -170 -39c-102 0 -175 53 -175 151c0 107 97 151 214 151c36 0 56 -1 67 -2v32c0 35 -14 110 -112 110c-46 0 -88 -12 -120 -29c-3 -2 -6 -1 -6 3v49c0 4 1 6 4 7
c35 18 81 29 132 29zM322 64v173c-13 2 -35 4 -65 4c-101 0 -151 -36 -151 -98c0 -47 30 -97 123 -97c34 0 64 5 93 18zM91 678h45c2 0 4 -1 5 -4c12 -37 38 -62 84 -62c40 0 73 18 86 61c1 4 2 5 5 5h44c4 0 4 -3 4 -5c-12 -68 -62 -114 -139 -114c-73 0 -124 39 -138 114
c-1 4 1 5 4 5z" />
    <glyph glyph-name="adieresis" unicode="&#xe4;" horiz-adv-x="466" 
d="M220 492c118 0 166 -79 166 -180v-237c0 -15 0 -27 2 -41c0 -1 0 -3 -2 -4c-62 -30 -116 -39 -170 -39c-102 0 -175 53 -175 151c0 107 97 151 214 151c36 0 56 -1 67 -2v32c0 35 -14 110 -112 110c-46 0 -88 -12 -120 -29c-3 -2 -6 -1 -6 3v49c0 4 1 6 4 7
c35 18 81 29 132 29zM322 64v173c-13 2 -35 4 -65 4c-101 0 -151 -36 -151 -98c0 -47 30 -97 123 -97c34 0 64 5 93 18zM146 594c-22 0 -38 15 -38 39c0 25 18 40 39 40s37 -16 37 -40s-17 -39 -38 -39zM318 594c-21 0 -37 15 -37 39c0 25 17 40 38 40c22 0 37 -16 37 -40
c0 -23 -16 -39 -38 -39z" />
    <glyph glyph-name="uni1EA3" unicode="&#x1ea3;" horiz-adv-x="466" 
d="M220 492c118 0 166 -79 166 -180v-237c0 -15 0 -27 2 -41c0 -1 0 -3 -2 -4c-62 -30 -116 -39 -170 -39c-102 0 -175 53 -175 151c0 107 97 151 214 151c36 0 56 -1 67 -2v32c0 35 -14 110 -112 110c-46 0 -88 -12 -120 -29c-3 -2 -6 -1 -6 3v49c0 4 1 6 4 7
c35 18 81 29 132 29zM322 64v173c-13 2 -35 4 -65 4c-101 0 -151 -36 -151 -98c0 -47 30 -97 123 -97c34 0 64 5 93 18zM142 661v35c0 2 1 4 3 6c21 12 48 19 77 19c54 0 87 -32 87 -78c0 -59 -62 -98 -104 -113c-2 0 -4 0 -5 3v35c0 4 2 5 4 6c30 19 50 39 50 65
c0 20 -14 36 -42 36c-24 0 -41 -5 -64 -17c-3 -2 -6 0 -6 3z" />
    <glyph glyph-name="aring" unicode="&#xe5;" horiz-adv-x="466" 
d="M220 492c118 0 166 -79 166 -180v-237c0 -15 0 -27 2 -41c0 -1 0 -3 -2 -4c-62 -30 -116 -39 -170 -39c-102 0 -175 53 -175 151c0 107 97 151 214 151c36 0 56 -1 67 -2v32c0 35 -14 110 -112 110c-46 0 -88 -12 -120 -29c-3 -2 -6 -1 -6 3v49c0 4 1 6 4 7
c35 18 81 29 132 29zM322 64v173c-13 2 -35 4 -65 4c-101 0 -151 -36 -151 -98c0 -47 30 -97 123 -97c34 0 64 5 93 18zM139 630c0 53 39 87 93 87c53 0 94 -34 94 -87c0 -54 -41 -88 -94 -88c-54 0 -93 33 -93 88zM181 630c0 -31 22 -51 51 -51c28 0 51 19 51 51
s-23 51 -51 51c-29 0 -51 -19 -51 -51z" />
    <glyph glyph-name="uni01CE" unicode="&#x1ce;" horiz-adv-x="466" 
d="M220 492c118 0 166 -79 166 -180v-237c0 -15 0 -27 2 -41c0 -1 0 -3 -2 -4c-62 -30 -116 -39 -170 -39c-102 0 -175 53 -175 151c0 107 97 151 214 151c36 0 56 -1 67 -2v32c0 35 -14 110 -112 110c-46 0 -88 -12 -120 -29c-3 -2 -6 -1 -6 3v49c0 4 1 6 4 7
c35 18 81 29 132 29zM322 64v173c-13 2 -35 4 -65 4c-101 0 -151 -36 -151 -98c0 -47 30 -97 123 -97c34 0 64 5 93 18zM163 696l72 -105l69 106c1 1 3 3 7 3h44c4 0 5 -4 3 -6l-93 -136c-2 -3 -3 -3 -5 -3h-53c-5 0 -6 1 -8 4l-95 136c-2 2 0 5 3 5h48c4 0 6 -2 8 -4z" />
    <glyph glyph-name="uni1EA1" unicode="&#x1ea1;" horiz-adv-x="466" 
d="M220 492c118 0 166 -79 166 -180v-237c0 -15 0 -27 2 -41c0 -1 0 -3 -2 -4c-62 -30 -116 -39 -170 -39c-102 0 -175 53 -175 151c0 107 97 151 214 151c36 0 56 -1 67 -2v32c0 35 -14 110 -112 110c-46 0 -88 -12 -120 -29c-3 -2 -6 -1 -6 3v49c0 4 1 6 4 7
c35 18 81 29 132 29zM322 64v173c-13 2 -35 4 -65 4c-101 0 -151 -36 -151 -98c0 -47 30 -97 123 -97c34 0 64 5 93 18zM229 -182c-25 0 -42 19 -42 42c0 25 18 43 43 43s41 -19 41 -42c0 -24 -15 -43 -42 -43z" />
    <glyph glyph-name="uni1EAD" unicode="&#x1ead;" horiz-adv-x="466" 
d="M220 492c118 0 166 -79 166 -180v-237c0 -15 0 -27 2 -41c0 -1 0 -3 -2 -4c-62 -30 -116 -39 -170 -39c-102 0 -175 53 -175 151c0 107 97 151 214 151c36 0 56 -1 67 -2v32c0 35 -14 110 -112 110c-46 0 -88 -12 -120 -29c-3 -2 -6 -1 -6 3v49c0 4 1 6 4 7
c35 18 81 29 132 29zM322 64v173c-13 2 -35 4 -65 4c-101 0 -151 -36 -151 -98c0 -47 30 -97 123 -97c34 0 64 5 93 18zM295 546l-72 105l-70 -106c-1 -1 -2 -3 -7 -3h-44c-4 0 -4 4 -3 6l93 136c2 3 3 4 6 4h53c4 0 6 -2 7 -5l95 -135c3 -3 1 -6 -3 -6h-48c-4 0 -6 2 -7 4z
M231 -185c-25 0 -42 19 -42 42c0 25 18 43 43 43s41 -19 41 -42c0 -24 -15 -43 -42 -43z" />
    <glyph glyph-name="uni1EA7" unicode="&#x1ea7;" horiz-adv-x="466" 
d="M220 492c118 0 166 -79 166 -180v-237c0 -15 0 -27 2 -41c0 -1 0 -3 -2 -4c-62 -30 -116 -39 -170 -39c-102 0 -175 53 -175 151c0 107 97 151 214 151c36 0 56 -1 67 -2v32c0 35 -14 110 -112 110c-46 0 -88 -12 -120 -29c-3 -2 -6 -1 -6 3v49c0 4 1 6 4 7
c35 18 81 29 132 29zM322 64v173c-13 2 -35 4 -65 4c-101 0 -151 -36 -151 -98c0 -47 30 -97 123 -97c34 0 64 5 93 18zM362 741l74 -102c2 -4 0 -7 -4 -7h-41c-3 0 -6 0 -9 4l-85 103c-3 4 -1 7 3 7h54c3 0 5 -1 8 -5zM286 555l-64 85l-65 -87c-1 -2 -4 -3 -7 -3h-44
c-4 0 -5 3 -3 6l90 118c2 3 4 4 6 4h49c3 0 5 -1 6 -4l92 -118c2 -3 1 -6 -2 -6h-50c-4 0 -7 2 -8 5z" />
    <glyph glyph-name="uni1EA5" unicode="&#x1ea5;" horiz-adv-x="466" 
d="M220 492c118 0 166 -79 166 -180v-237c0 -15 0 -27 2 -41c0 -1 0 -3 -2 -4c-62 -30 -116 -39 -170 -39c-102 0 -175 53 -175 151c0 107 97 151 214 151c36 0 56 -1 67 -2v32c0 35 -14 110 -112 110c-46 0 -88 -12 -120 -29c-3 -2 -6 -1 -6 3v49c0 4 1 6 4 7
c35 18 81 29 132 29zM322 64v173c-13 2 -35 4 -65 4c-101 0 -151 -36 -151 -98c0 -47 30 -97 123 -97c34 0 64 5 93 18zM325 652l78 99c3 4 5 5 8 5h55c3 0 4 -3 2 -6l-89 -100c-3 -2 -4 -4 -8 -4h-43c-3 0 -5 3 -3 6zM287 554l-64 85l-65 -87c-1 -2 -4 -3 -7 -3h-44
c-4 0 -5 3 -3 6l90 118c2 3 4 4 6 4h49c3 0 5 -1 6 -4l92 -118c2 -3 1 -6 -2 -6h-50c-4 0 -7 2 -8 5z" />
    <glyph glyph-name="uni1EAB" unicode="&#x1eab;" horiz-adv-x="466" 
d="M220 492c118 0 166 -79 166 -180v-237c0 -15 0 -27 2 -41c0 -1 0 -3 -2 -4c-62 -30 -116 -39 -170 -39c-102 0 -175 53 -175 151c0 107 97 151 214 151c36 0 56 -1 67 -2v32c0 35 -14 110 -112 110c-46 0 -88 -12 -120 -29c-3 -2 -6 -1 -6 3v49c0 4 1 6 4 7
c35 18 81 29 132 29zM322 64v173c-13 2 -35 4 -65 4c-101 0 -151 -36 -151 -98c0 -47 30 -97 123 -97c34 0 64 5 93 18zM226 597l-69 -54c-1 -2 -6 -3 -10 -3h-51c-4 0 -4 4 -2 6l101 82c3 3 5 3 7 3h50c4 0 6 -2 8 -4l103 -82c2 -2 1 -5 -3 -5h-54c-4 0 -9 1 -11 4z
M126 669h-33c-4 0 -4 3 -4 6c4 46 34 74 78 74c49 0 84 -38 118 -38c18 0 29 10 34 32c1 2 2 5 6 5h32c4 0 5 -2 5 -5c-7 -54 -38 -74 -77 -74c-50 0 -79 39 -117 39c-19 0 -30 -9 -36 -35c0 -2 -2 -4 -6 -4z" />
    <glyph glyph-name="uni1EA9" unicode="&#x1ea9;" horiz-adv-x="466" 
d="M220 492c118 0 166 -79 166 -180v-237c0 -15 0 -27 2 -41c0 -1 0 -3 -2 -4c-62 -30 -116 -39 -170 -39c-102 0 -175 53 -175 151c0 107 97 151 214 151c36 0 56 -1 67 -2v32c0 35 -14 110 -112 110c-46 0 -88 -12 -120 -29c-3 -2 -6 -1 -6 3v49c0 4 1 6 4 7
c35 18 81 29 132 29zM322 64v173c-13 2 -35 4 -65 4c-101 0 -151 -36 -151 -98c0 -47 30 -97 123 -97c34 0 64 5 93 18zM291 735v34c0 2 1 4 3 5c14 11 39 19 65 19c49 0 78 -29 78 -69c0 -49 -56 -83 -92 -95c-1 -1 -3 0 -3 3v33c0 3 0 3 3 5c26 17 41 29 41 50
c0 17 -10 30 -36 30c-20 0 -35 -5 -55 -18c-2 -1 -4 0 -4 3zM285 549l-64 86l-65 -87c-1 -2 -4 -3 -7 -3h-44c-4 0 -5 3 -3 6l90 118c2 3 4 4 6 4h49c3 0 5 -1 6 -4l92 -118c2 -3 1 -6 -2 -6h-50c-4 0 -7 2 -8 4z" />
    <glyph glyph-name="uni1EB7" unicode="&#x1eb7;" horiz-adv-x="466" 
d="M220 492c118 0 166 -79 166 -180v-237c0 -15 0 -27 2 -41c0 -1 0 -3 -2 -4c-62 -30 -116 -39 -170 -39c-102 0 -175 53 -175 151c0 107 97 151 214 151c36 0 56 -1 67 -2v32c0 35 -14 110 -112 110c-46 0 -88 -12 -120 -29c-3 -2 -6 -1 -6 3v49c0 4 1 6 4 7
c35 18 81 29 132 29zM322 64v173c-13 2 -35 4 -65 4c-101 0 -151 -36 -151 -98c0 -47 30 -97 123 -97c34 0 64 5 93 18zM92 679h45c2 0 4 -1 5 -4c12 -37 38 -62 84 -62c40 0 73 18 86 61c1 4 2 5 5 5h44c4 0 4 -3 4 -5c-12 -68 -62 -114 -139 -114c-73 0 -124 39 -138 114
c-1 4 1 5 4 5zM235 -181c-25 0 -42 19 -42 42c0 25 18 43 43 43s41 -19 41 -42c0 -24 -15 -43 -42 -43z" />
    <glyph glyph-name="uni1EB1" unicode="&#x1eb1;" horiz-adv-x="466" 
d="M220 492c118 0 166 -79 166 -180v-237c0 -15 0 -27 2 -41c0 -1 0 -3 -2 -4c-62 -30 -116 -39 -170 -39c-102 0 -175 53 -175 151c0 107 97 151 214 151c36 0 56 -1 67 -2v32c0 35 -14 110 -112 110c-46 0 -88 -12 -120 -29c-3 -2 -6 -1 -6 3v49c0 4 1 6 4 7
c35 18 81 29 132 29zM322 64v173c-13 2 -35 4 -65 4c-101 0 -151 -36 -151 -98c0 -47 30 -97 123 -97c34 0 64 5 93 18zM198 784l70 -114c2 -5 0 -6 -4 -6h-42c-4 0 -5 0 -8 4l-82 114c-2 3 0 5 2 5h58c3 0 5 -1 6 -3zM99 646h40c3 0 4 -1 5 -4c13 -32 41 -55 87 -55
c45 0 71 15 89 55c2 3 3 4 6 4h40c3 0 4 -3 3 -6c-18 -60 -63 -100 -138 -100c-76 0 -123 40 -137 100c-1 3 2 6 5 6z" />
    <glyph glyph-name="uni1EAF" unicode="&#x1eaf;" horiz-adv-x="466" 
d="M220 492c118 0 166 -79 166 -180v-237c0 -15 0 -27 2 -41c0 -1 0 -3 -2 -4c-62 -30 -116 -39 -170 -39c-102 0 -175 53 -175 151c0 107 97 151 214 151c36 0 56 -1 67 -2v32c0 35 -14 110 -112 110c-46 0 -88 -12 -120 -29c-3 -2 -6 -1 -6 3v49c0 4 1 6 4 7
c35 18 81 29 132 29zM322 64v173c-13 2 -35 4 -65 4c-101 0 -151 -36 -151 -98c0 -47 30 -97 123 -97c34 0 64 5 93 18zM194 671l71 114c1 2 2 3 5 3h58c3 0 4 -2 3 -5l-82 -114c-3 -4 -5 -4 -9 -4h-42c-4 0 -6 1 -4 6zM94 647h40c3 0 4 -1 5 -4c13 -32 41 -55 87 -55
c45 0 71 15 89 55c2 3 3 4 6 4h40c3 0 4 -3 3 -6c-18 -60 -63 -100 -138 -100c-76 0 -123 40 -137 100c-1 3 2 6 5 6z" />
    <glyph glyph-name="uni1EB5" unicode="&#x1eb5;" horiz-adv-x="466" 
d="M220 492c118 0 166 -79 166 -180v-237c0 -15 0 -27 2 -41c0 -1 0 -3 -2 -4c-62 -30 -116 -39 -170 -39c-102 0 -175 53 -175 151c0 107 97 151 214 151c36 0 56 -1 67 -2v32c0 35 -14 110 -112 110c-46 0 -88 -12 -120 -29c-3 -2 -6 -1 -6 3v49c0 4 1 6 4 7
c35 18 81 29 132 29zM322 64v173c-13 2 -35 4 -65 4c-101 0 -151 -36 -151 -98c0 -47 30 -97 123 -97c34 0 64 5 93 18zM132 674h-36c-4 0 -5 2 -5 5c4 46 37 78 83 78c53 0 85 -39 119 -39c18 0 29 11 35 33c1 3 2 4 4 4h36c2 0 3 -1 3 -4c-6 -54 -38 -77 -79 -77
c-47 0 -81 40 -118 40c-18 0 -32 -10 -38 -36c0 -2 -1 -4 -4 -4zM100 632h42c3 0 5 -1 6 -3c13 -29 41 -47 84 -47c39 0 66 11 85 47c2 2 3 3 7 3h40c3 0 4 -2 3 -4c-18 -57 -66 -92 -136 -92c-74 0 -121 38 -134 92c-1 3 1 4 3 4z" />
    <glyph glyph-name="uni1EB3" unicode="&#x1eb3;" horiz-adv-x="466" 
d="M220 492c118 0 166 -79 166 -180v-237c0 -15 0 -27 2 -41c0 -1 0 -3 -2 -4c-62 -30 -116 -39 -170 -39c-102 0 -175 53 -175 151c0 107 97 151 214 151c36 0 56 -1 67 -2v32c0 35 -14 110 -112 110c-46 0 -88 -12 -120 -29c-3 -2 -6 -1 -6 3v49c0 4 1 6 4 7
c35 18 81 29 132 29zM322 64v173c-13 2 -35 4 -65 4c-101 0 -151 -36 -151 -98c0 -47 30 -97 123 -97c34 0 64 5 93 18zM159 751v31c0 3 0 4 2 6c17 11 42 17 66 17c49 0 78 -28 78 -68c0 -46 -52 -82 -91 -94c-2 0 -4 0 -4 3v32c0 3 0 3 3 5c26 17 41 33 41 51
c0 17 -13 30 -37 30c-18 0 -36 -5 -55 -15c-2 -1 -3 0 -3 2zM92 641h43c2 0 4 0 5 -3c13 -31 45 -54 90 -54s78 17 95 54c1 3 3 3 5 3h41c3 0 5 -1 4 -4c-19 -61 -67 -101 -145 -101c-77 0 -126 42 -142 100c-1 4 1 5 4 5z" />
    <glyph glyph-name="cacute" unicode="&#x107;" horiz-adv-x="416" 
d="M383 61v-49c0 -3 0 -5 -3 -7c-31 -12 -67 -14 -102 -14c-156 0 -233 115 -233 248c0 144 97 253 245 253c48 0 74 -5 90 -12c3 -2 4 -5 4 -9l-1 -50c0 -4 -2 -4 -6 -3c-25 10 -49 15 -88 15c-104 0 -177 -75 -177 -191c0 -128 81 -191 176 -191c35 0 65 4 90 13
c4 2 5 0 5 -3zM208 559l103 141c2 3 5 6 8 6h62c5 0 6 -3 4 -6l-114 -142c-2 -3 -4 -4 -8 -4h-52c-3 0 -4 2 -3 5z" />
    <glyph glyph-name="ccircumflex" unicode="&#x109;" horiz-adv-x="416" 
d="M383 61v-49c0 -3 0 -5 -3 -7c-31 -12 -67 -14 -102 -14c-156 0 -233 115 -233 248c0 144 97 253 245 253c48 0 74 -5 90 -12c3 -2 4 -5 4 -9l-1 -50c0 -4 -2 -4 -6 -3c-25 10 -49 15 -88 15c-104 0 -177 -75 -177 -191c0 -128 81 -191 176 -191c35 0 65 4 90 13
c4 2 5 0 5 -3zM320 558l-72 105l-70 -106c-1 -1 -2 -3 -7 -3h-44c-4 0 -4 4 -3 6l93 136c2 3 3 4 6 4h53c4 0 6 -2 7 -5l95 -135c3 -3 1 -6 -3 -6h-48c-4 0 -6 2 -7 4z" />
    <glyph glyph-name="cdotaccent" unicode="&#x10b;" horiz-adv-x="416" 
d="M383 61v-49c0 -3 0 -5 -3 -7c-31 -12 -67 -14 -102 -14c-156 0 -233 115 -233 248c0 144 97 253 245 253c48 0 74 -5 90 -12c3 -2 4 -5 4 -9l-1 -50c0 -4 -2 -4 -6 -3c-25 10 -49 15 -88 15c-104 0 -177 -75 -177 -191c0 -128 81 -191 176 -191c35 0 65 4 90 13
c4 2 5 0 5 -3zM256 592c-26 0 -42 17 -42 42s17 43 42 43c26 0 41 -19 41 -43c0 -25 -16 -42 -41 -42z" />
    <glyph glyph-name="ccaron" unicode="&#x10d;" horiz-adv-x="416" 
d="M383 61v-49c0 -3 0 -5 -3 -7c-31 -12 -67 -14 -102 -14c-156 0 -233 115 -233 248c0 144 97 253 245 253c48 0 74 -5 90 -12c3 -2 4 -5 4 -9l-1 -50c0 -4 -2 -4 -6 -3c-25 10 -49 15 -88 15c-104 0 -177 -75 -177 -191c0 -128 81 -191 176 -191c35 0 65 4 90 13
c4 2 5 0 5 -3zM185 696l72 -105l69 106c1 1 3 3 7 3h44c4 0 5 -4 3 -6l-93 -136c-2 -3 -3 -3 -5 -3h-53c-5 0 -6 1 -8 4l-95 136c-2 2 0 5 3 5h48c4 0 6 -2 8 -4z" />
    <glyph glyph-name="ccedilla" unicode="&#xe7;" horiz-adv-x="416" 
d="M383 61v-49c0 -3 0 -5 -3 -7c-31 -12 -67 -14 -98 -14l-25 -37c59 -16 82 -48 82 -87c0 -51 -42 -82 -97 -82c-26 0 -49 5 -64 13c-3 2 -4 3 -4 7v33c0 3 1 4 5 4c19 -10 41 -14 60 -14c29 0 48 11 48 37c0 29 -28 48 -90 57c-3 1 -2 12 -1 15l40 57
c-128 19 -191 124 -191 245c0 144 97 253 245 253c48 0 74 -5 90 -12c3 -2 4 -5 4 -9l-1 -50c0 -4 -2 -4 -6 -3c-25 10 -49 15 -88 15c-104 0 -177 -75 -177 -191c0 -128 81 -191 176 -191c35 0 65 4 90 13c4 2 5 0 5 -3z" />
    <glyph glyph-name="dcaron" unicode="&#x10f;" horiz-adv-x="555" 
d="M504 491l1 220c0 3 1 5 5 5h45c4 0 5 -1 5 -6l-10 -219c0 -3 -2 -6 -5 -6h-36c-4 0 -5 1 -5 6zM282 -9c-134 0 -235 83 -235 247c0 147 106 254 257 254c31 0 47 -2 66 -6v224c0 4 2 5 5 5h56c5 0 5 -2 5 -5v-639c0 -11 1 -24 2 -39c0 -4 -1 -5 -5 -7
c-50 -25 -100 -34 -151 -34zM370 63v360c-17 8 -41 11 -68 11c-119 0 -188 -85 -188 -193c0 -139 85 -191 174 -191c27 0 59 3 82 13z" />
    <glyph glyph-name="uni1E0D" unicode="&#x1e0d;" horiz-adv-x="515" 
d="M280 -9c-134 0 -235 83 -235 247c0 147 106 254 257 254c31 0 47 -2 66 -6v224c0 4 2 5 5 5h56c5 0 5 -2 5 -5v-639c0 -11 1 -24 2 -39c0 -4 -1 -5 -5 -7c-50 -25 -100 -34 -151 -34zM368 63v360c-17 8 -41 11 -68 11c-119 0 -188 -85 -188 -193c0 -139 85 -191 174 -191
c27 0 59 3 82 13zM265 -170c-25 0 -42 19 -42 42c0 25 18 43 43 43s41 -19 41 -42c0 -24 -15 -43 -42 -43z" />
    <glyph glyph-name="uni1E0F" unicode="&#x1e0f;" horiz-adv-x="515" 
d="M280 -9c-134 0 -235 83 -235 247c0 147 106 254 257 254c31 0 47 -2 66 -6v224c0 4 2 5 5 5h56c5 0 5 -2 5 -5v-639c0 -11 1 -24 2 -39c0 -4 -1 -5 -5 -7c-50 -25 -100 -34 -151 -34zM368 63v360c-17 8 -41 11 -68 11c-119 0 -188 -85 -188 -193c0 -139 85 -191 174 -191
c27 0 59 3 82 13zM153 -103h227c2 0 4 -1 4 -5v-42c0 -4 -2 -5 -5 -5h-226c-4 0 -5 2 -5 5v43c0 3 2 4 5 4z" />
    <glyph glyph-name="egrave" unicode="&#xe8;" horiz-adv-x="473" 
d="M319 240h-208c-2 -110 54 -190 167 -190c40 0 81 7 117 26c3 1 5 0 5 -4v-45c0 -5 -1 -7 -4 -9c-31 -17 -73 -27 -130 -27c-161 0 -221 122 -221 246c0 142 78 255 206 255c135 0 182 -113 182 -193c0 -24 -2 -40 -4 -49c0 -3 -2 -6 -7 -6c-14 -2 -58 -4 -103 -4z
M113 292h190c52 0 62 1 65 2c1 3 1 9 1 13c0 39 -22 129 -120 129c-84 0 -127 -69 -136 -144zM190 701l106 -142c2 -3 0 -5 -3 -5h-54c-4 0 -6 1 -7 4l-119 141c-1 3 0 6 3 6h67c3 0 5 -1 7 -4z" />
    <glyph glyph-name="eacute" unicode="&#xe9;" horiz-adv-x="473" 
d="M319 240h-208c-2 -110 54 -190 167 -190c40 0 81 7 117 26c3 1 5 0 5 -4v-45c0 -5 -1 -7 -4 -9c-31 -17 -73 -27 -130 -27c-161 0 -221 122 -221 246c0 142 78 255 206 255c135 0 182 -113 182 -193c0 -24 -2 -40 -4 -49c0 -3 -2 -6 -7 -6c-14 -2 -58 -4 -103 -4z
M113 292h190c52 0 62 1 65 2c1 3 1 9 1 13c0 39 -22 129 -120 129c-84 0 -127 -69 -136 -144zM201 559l103 141c2 3 5 6 8 6h62c5 0 6 -3 4 -6l-114 -142c-2 -3 -4 -4 -8 -4h-52c-3 0 -4 2 -3 5z" />
    <glyph glyph-name="ecircumflex" unicode="&#xea;" horiz-adv-x="473" 
d="M319 240h-208c-2 -110 54 -190 167 -190c40 0 81 7 117 26c3 1 5 0 5 -4v-45c0 -5 -1 -7 -4 -9c-31 -17 -73 -27 -130 -27c-161 0 -221 122 -221 246c0 142 78 255 206 255c135 0 182 -113 182 -193c0 -24 -2 -40 -4 -49c0 -3 -2 -6 -7 -6c-14 -2 -58 -4 -103 -4z
M113 292h190c52 0 62 1 65 2c1 3 1 9 1 13c0 39 -22 129 -120 129c-84 0 -127 -69 -136 -144zM313 557l-72 105l-70 -106c-1 -1 -2 -3 -7 -3h-44c-4 0 -4 4 -3 6l93 136c2 3 3 4 6 4h53c4 0 6 -2 7 -5l95 -135c3 -3 1 -6 -3 -6h-48c-4 0 -6 2 -7 4z" />
    <glyph glyph-name="uni1EBD" unicode="&#x1ebd;" horiz-adv-x="473" 
d="M319 240h-208c-2 -110 54 -190 167 -190c40 0 81 7 117 26c3 1 5 0 5 -4v-45c0 -5 -1 -7 -4 -9c-31 -17 -73 -27 -130 -27c-161 0 -221 122 -221 246c0 142 78 255 206 255c135 0 182 -113 182 -193c0 -24 -2 -40 -4 -49c0 -3 -2 -6 -7 -6c-14 -2 -58 -4 -103 -4z
M113 292h190c52 0 62 1 65 2c1 3 1 9 1 13c0 39 -22 129 -120 129c-84 0 -127 -69 -136 -144zM131 571h-38c-5 0 -5 3 -5 6c4 63 37 99 87 99c58 0 98 -53 133 -53c25 0 35 17 38 46c0 3 1 5 5 5h38c4 0 5 -1 5 -4c-5 -73 -36 -101 -82 -101c-53 0 -92 55 -134 55
c-24 0 -39 -15 -43 -48c0 -2 -1 -5 -4 -5z" />
    <glyph glyph-name="emacron" unicode="&#x113;" horiz-adv-x="473" 
d="M319 240h-208c-2 -110 54 -190 167 -190c40 0 81 7 117 26c3 1 5 0 5 -4v-45c0 -5 -1 -7 -4 -9c-31 -17 -73 -27 -130 -27c-161 0 -221 122 -221 246c0 142 78 255 206 255c135 0 182 -113 182 -193c0 -24 -2 -40 -4 -49c0 -3 -2 -6 -7 -6c-14 -2 -58 -4 -103 -4z
M113 292h190c52 0 62 1 65 2c1 3 1 9 1 13c0 39 -22 129 -120 129c-84 0 -127 -69 -136 -144zM126 654h242c3 0 5 -2 5 -5v-42c0 -3 -2 -5 -5 -5h-242c-4 0 -4 2 -4 5v42c0 4 1 5 4 5z" />
    <glyph glyph-name="ebreve" unicode="&#x115;" horiz-adv-x="473" 
d="M319 240h-208c-2 -110 54 -190 167 -190c40 0 81 7 117 26c3 1 5 0 5 -4v-45c0 -5 -1 -7 -4 -9c-31 -17 -73 -27 -130 -27c-161 0 -221 122 -221 246c0 142 78 255 206 255c135 0 182 -113 182 -193c0 -24 -2 -40 -4 -49c0 -3 -2 -6 -7 -6c-14 -2 -58 -4 -103 -4z
M113 292h190c52 0 62 1 65 2c1 3 1 9 1 13c0 39 -22 129 -120 129c-84 0 -127 -69 -136 -144zM109 679h45c2 0 4 -1 5 -4c12 -37 38 -62 84 -62c40 0 73 18 86 61c1 4 2 5 5 5h44c4 0 4 -3 4 -5c-12 -68 -62 -114 -139 -114c-73 0 -124 39 -138 114c-1 4 1 5 4 5z" />
    <glyph glyph-name="edotaccent" unicode="&#x117;" horiz-adv-x="473" 
d="M319 240h-208c-2 -110 54 -190 167 -190c40 0 81 7 117 26c3 1 5 0 5 -4v-45c0 -5 -1 -7 -4 -9c-31 -17 -73 -27 -130 -27c-161 0 -221 122 -221 246c0 142 78 255 206 255c135 0 182 -113 182 -193c0 -24 -2 -40 -4 -49c0 -3 -2 -6 -7 -6c-14 -2 -58 -4 -103 -4z
M113 292h190c52 0 62 1 65 2c1 3 1 9 1 13c0 39 -22 129 -120 129c-84 0 -127 -69 -136 -144zM244 592c-26 0 -42 17 -42 42s17 43 42 43c26 0 41 -19 41 -43c0 -25 -16 -42 -41 -42z" />
    <glyph glyph-name="edieresis" unicode="&#xeb;" horiz-adv-x="473" 
d="M319 240h-208c-2 -110 54 -190 167 -190c40 0 81 7 117 26c3 1 5 0 5 -4v-45c0 -5 -1 -7 -4 -9c-31 -17 -73 -27 -130 -27c-161 0 -221 122 -221 246c0 142 78 255 206 255c135 0 182 -113 182 -193c0 -24 -2 -40 -4 -49c0 -3 -2 -6 -7 -6c-14 -2 -58 -4 -103 -4z
M113 292h190c52 0 62 1 65 2c1 3 1 9 1 13c0 39 -22 129 -120 129c-84 0 -127 -69 -136 -144zM158 593c-22 0 -38 15 -38 39c0 25 18 40 39 40s37 -16 37 -40s-17 -39 -38 -39zM330 593c-21 0 -37 15 -37 39c0 25 17 40 38 40c22 0 37 -16 37 -40c0 -23 -16 -39 -38 -39z
" />
    <glyph glyph-name="uni1EBB" unicode="&#x1ebb;" horiz-adv-x="473" 
d="M319 240h-208c-2 -110 54 -190 167 -190c40 0 81 7 117 26c3 1 5 0 5 -4v-45c0 -5 -1 -7 -4 -9c-31 -17 -73 -27 -130 -27c-161 0 -221 122 -221 246c0 142 78 255 206 255c135 0 182 -113 182 -193c0 -24 -2 -40 -4 -49c0 -3 -2 -6 -7 -6c-14 -2 -58 -4 -103 -4z
M113 292h190c52 0 62 1 65 2c1 3 1 9 1 13c0 39 -22 129 -120 129c-84 0 -127 -69 -136 -144zM162 665v35c0 2 1 4 3 6c21 12 48 19 77 19c54 0 87 -32 87 -78c0 -59 -62 -98 -104 -113c-2 0 -4 0 -5 3v35c0 4 2 5 4 6c30 19 50 39 50 65c0 20 -14 36 -42 36
c-24 0 -41 -5 -64 -17c-3 -2 -6 0 -6 3z" />
    <glyph glyph-name="ecaron" unicode="&#x11b;" horiz-adv-x="473" 
d="M319 240h-208c-2 -110 54 -190 167 -190c40 0 81 7 117 26c3 1 5 0 5 -4v-45c0 -5 -1 -7 -4 -9c-31 -17 -73 -27 -130 -27c-161 0 -221 122 -221 246c0 142 78 255 206 255c135 0 182 -113 182 -193c0 -24 -2 -40 -4 -49c0 -3 -2 -6 -7 -6c-14 -2 -58 -4 -103 -4z
M113 292h190c52 0 62 1 65 2c1 3 1 9 1 13c0 39 -22 129 -120 129c-84 0 -127 -69 -136 -144zM170 696l72 -105l69 106c1 1 3 3 7 3h44c4 0 5 -4 3 -6l-93 -136c-2 -3 -3 -3 -5 -3h-53c-5 0 -6 1 -8 4l-95 136c-2 2 0 5 3 5h48c4 0 6 -2 8 -4z" />
    <glyph glyph-name="uni1EB9" unicode="&#x1eb9;" horiz-adv-x="473" 
d="M319 240h-208c-2 -110 54 -190 167 -190c40 0 81 7 117 26c3 1 5 0 5 -4v-45c0 -5 -1 -7 -4 -9c-31 -17 -73 -27 -130 -27c-161 0 -221 122 -221 246c0 142 78 255 206 255c135 0 182 -113 182 -193c0 -24 -2 -40 -4 -49c0 -3 -2 -6 -7 -6c-14 -2 -58 -4 -103 -4z
M113 292h190c52 0 62 1 65 2c1 3 1 9 1 13c0 39 -22 129 -120 129c-84 0 -127 -69 -136 -144zM248 -174c-25 0 -42 19 -42 42c0 25 18 43 43 43s41 -19 41 -42c0 -24 -15 -43 -42 -43z" />
    <glyph glyph-name="uni1EC1" unicode="&#x1ec1;" horiz-adv-x="473" 
d="M319 240h-208c-2 -110 54 -190 167 -190c40 0 81 7 117 26c3 1 5 0 5 -4v-45c0 -5 -1 -7 -4 -9c-31 -17 -73 -27 -130 -27c-161 0 -221 122 -221 246c0 142 78 255 206 255c135 0 182 -113 182 -193c0 -24 -2 -40 -4 -49c0 -3 -2 -6 -7 -6c-14 -2 -58 -4 -103 -4z
M113 292h190c52 0 62 1 65 2c1 3 1 9 1 13c0 39 -22 129 -120 129c-84 0 -127 -69 -136 -144zM379 741l74 -102c2 -4 0 -7 -4 -7h-41c-3 0 -6 0 -9 4l-85 103c-3 4 -1 7 3 7h54c3 0 5 -1 8 -5zM303 555l-64 85l-65 -87c-1 -2 -4 -3 -7 -3h-44c-4 0 -5 3 -3 6l90 118
c2 3 4 4 6 4h49c3 0 5 -1 6 -4l92 -118c2 -3 1 -6 -2 -6h-50c-4 0 -7 2 -8 5z" />
    <glyph glyph-name="uni1EBF" unicode="&#x1ebf;" horiz-adv-x="473" 
d="M319 240h-208c-2 -110 54 -190 167 -190c40 0 81 7 117 26c3 1 5 0 5 -4v-45c0 -5 -1 -7 -4 -9c-31 -17 -73 -27 -130 -27c-161 0 -221 122 -221 246c0 142 78 255 206 255c135 0 182 -113 182 -193c0 -24 -2 -40 -4 -49c0 -3 -2 -6 -7 -6c-14 -2 -58 -4 -103 -4z
M113 292h190c52 0 62 1 65 2c1 3 1 9 1 13c0 39 -22 129 -120 129c-84 0 -127 -69 -136 -144zM344 653l78 99c3 4 5 5 8 5h55c3 0 4 -3 2 -6l-89 -100c-3 -2 -4 -4 -8 -4h-43c-3 0 -5 3 -3 6zM306 555l-64 85l-65 -87c-1 -2 -4 -3 -7 -3h-44c-4 0 -5 3 -3 6l90 118
c2 3 4 4 6 4h49c3 0 5 -1 6 -4l92 -118c2 -3 1 -6 -2 -6h-50c-4 0 -7 2 -8 5z" />
    <glyph glyph-name="uni1EC5" unicode="&#x1ec5;" horiz-adv-x="473" 
d="M319 240h-208c-2 -110 54 -190 167 -190c40 0 81 7 117 26c3 1 5 0 5 -4v-45c0 -5 -1 -7 -4 -9c-31 -17 -73 -27 -130 -27c-161 0 -221 122 -221 246c0 142 78 255 206 255c135 0 182 -113 182 -193c0 -24 -2 -40 -4 -49c0 -3 -2 -6 -7 -6c-14 -2 -58 -4 -103 -4z
M113 292h190c52 0 62 1 65 2c1 3 1 9 1 13c0 39 -22 129 -120 129c-84 0 -127 -69 -136 -144zM245 594l-69 -54c-1 -2 -6 -3 -10 -3h-51c-4 0 -4 4 -2 6l101 82c3 3 5 3 7 3h50c4 0 6 -2 8 -4l103 -82c2 -2 1 -5 -3 -5h-54c-4 0 -9 1 -11 4zM145 666h-33c-4 0 -4 3 -4 6
c4 46 34 74 78 74c49 0 84 -38 118 -38c18 0 29 10 34 32c1 2 2 5 6 5h32c4 0 5 -2 5 -5c-7 -54 -38 -74 -77 -74c-50 0 -79 39 -117 39c-19 0 -30 -9 -36 -35c0 -2 -2 -4 -6 -4z" />
    <glyph glyph-name="uni1EC3" unicode="&#x1ec3;" horiz-adv-x="473" 
d="M319 240h-208c-2 -110 54 -190 167 -190c40 0 81 7 117 26c3 1 5 0 5 -4v-45c0 -5 -1 -7 -4 -9c-31 -17 -73 -27 -130 -27c-161 0 -221 122 -221 246c0 142 78 255 206 255c135 0 182 -113 182 -193c0 -24 -2 -40 -4 -49c0 -3 -2 -6 -7 -6c-14 -2 -58 -4 -103 -4z
M113 292h190c52 0 62 1 65 2c1 3 1 9 1 13c0 39 -22 129 -120 129c-84 0 -127 -69 -136 -144zM309 734v34c0 2 1 4 3 5c14 11 39 19 65 19c49 0 78 -29 78 -69c0 -49 -56 -83 -92 -95c-1 -1 -3 0 -3 3v33c0 3 0 3 3 5c26 17 41 29 41 50c0 17 -10 30 -36 30
c-20 0 -35 -5 -55 -18c-2 -1 -4 0 -4 3zM303 548l-64 86l-65 -87c-1 -2 -4 -3 -7 -3h-44c-4 0 -5 3 -3 6l90 118c2 3 4 4 6 4h49c3 0 5 -1 6 -4l92 -118c2 -3 1 -6 -2 -6h-50c-4 0 -7 2 -8 4z" />
    <glyph glyph-name="uni1EC7" unicode="&#x1ec7;" horiz-adv-x="473" 
d="M319 240h-208c-2 -110 54 -190 167 -190c40 0 81 7 117 26c3 1 5 0 5 -4v-45c0 -5 -1 -7 -4 -9c-31 -17 -73 -27 -130 -27c-161 0 -221 122 -221 246c0 142 78 255 206 255c135 0 182 -113 182 -193c0 -24 -2 -40 -4 -49c0 -3 -2 -6 -7 -6c-14 -2 -58 -4 -103 -4z
M113 292h190c52 0 62 1 65 2c1 3 1 9 1 13c0 39 -22 129 -120 129c-84 0 -127 -69 -136 -144zM315 556l-72 105l-70 -106c-1 -1 -2 -3 -7 -3h-44c-4 0 -4 4 -3 6l93 136c2 3 3 4 6 4h53c4 0 6 -2 7 -5l95 -135c3 -3 1 -6 -3 -6h-48c-4 0 -6 2 -7 4zM247 -183
c-25 0 -42 19 -42 42c0 25 18 43 43 43s41 -19 41 -42c0 -24 -15 -43 -42 -43z" />
    <glyph glyph-name="gcircumflex" unicode="&#x11d;" horiz-adv-x="480" 
d="M233 158c-20 0 -40 3 -58 8c-5 -13 -8 -27 -6 -41c1 -17 8 -34 21 -46l95 -5c116 -6 187 -46 187 -136c0 -97 -90 -174 -227 -174c-138 0 -209 76 -209 150c0 34 28 79 97 137c-17 21 -25 48 -25 75c1 22 7 44 17 63c-40 28 -65 74 -65 135c0 92 65 168 174 168
c29 0 51 -3 68 -7c8 -2 13 -2 19 -2h137c4 0 5 -2 5 -6v-46c0 -3 -1 -5 -5 -5c-29 0 -71 1 -95 3c20 -20 40 -55 40 -106c0 -110 -79 -165 -170 -165zM339 324c0 62 -33 116 -106 116c-65 0 -108 -46 -108 -115c0 -67 38 -115 107 -115c66 0 107 42 107 114zM410 -70
c0 63 -63 81 -138 85l-98 5c-46 -31 -75 -76 -75 -102c0 -49 57 -100 149 -100c110 0 162 57 162 112zM309 557l-72 105l-70 -106c-1 -1 -2 -3 -7 -3h-44c-4 0 -4 4 -3 6l93 136c2 3 3 4 6 4h53c4 0 6 -2 7 -5l95 -135c3 -3 1 -6 -3 -6h-48c-4 0 -6 2 -7 4z" />
    <glyph glyph-name="gcircumflex.alt" horiz-adv-x="512" 
d="M430 422v-386c0 -44 -3 -81 -9 -110c-26 -128 -120 -162 -217 -162c-41 0 -94 6 -131 26c-4 2 -5 3 -5 7v59c1 3 3 4 6 3c41 -24 89 -32 132 -32c119 0 157 63 158 177v11c-30 -15 -64 -19 -97 -19c-116 0 -222 80 -222 242c0 148 99 254 248 254c59 0 109 -13 138 -26
c2 -1 2 -2 2 -5c-2 -16 -3 -32 -3 -39zM364 74v347c-21 9 -49 13 -76 13c-118 0 -175 -90 -175 -195c0 -131 86 -183 162 -183c32 0 64 3 89 18zM337 557l-72 105l-70 -106c-1 -1 -2 -3 -7 -3h-44c-4 0 -4 4 -3 6l93 136c2 3 3 4 6 4h53c4 0 6 -2 7 -5l95 -135
c3 -3 1 -6 -3 -6h-48c-4 0 -6 2 -7 4z" />
    <glyph glyph-name="uni00670303" horiz-adv-x="480" 
d="M233 158c-20 0 -40 3 -58 8c-5 -13 -8 -27 -6 -41c1 -17 8 -34 21 -46l95 -5c116 -6 187 -46 187 -136c0 -97 -90 -174 -227 -174c-138 0 -209 76 -209 150c0 34 28 79 97 137c-17 21 -25 48 -25 75c1 22 7 44 17 63c-40 28 -65 74 -65 135c0 92 65 168 174 168
c29 0 51 -3 68 -7c8 -2 13 -2 19 -2h137c4 0 5 -2 5 -6v-46c0 -3 -1 -5 -5 -5c-29 0 -71 1 -95 3c20 -20 40 -55 40 -106c0 -110 -79 -165 -170 -165zM339 324c0 62 -33 116 -106 116c-65 0 -108 -46 -108 -115c0 -67 38 -115 107 -115c66 0 107 42 107 114zM410 -70
c0 63 -63 81 -138 85l-98 5c-46 -31 -75 -76 -75 -102c0 -49 57 -100 149 -100c110 0 162 57 162 112zM134 571h-38c-5 0 -5 3 -5 6c4 63 37 99 87 99c58 0 98 -53 133 -53c25 0 35 17 38 46c0 3 1 5 5 5h38c4 0 5 -1 5 -4c-5 -73 -36 -101 -82 -101c-53 0 -92 55 -134 55
c-24 0 -39 -15 -43 -48c0 -2 -1 -5 -4 -5z" />
    <glyph glyph-name="uni00670303.alt" horiz-adv-x="512" 
d="M430 422v-386c0 -44 -3 -81 -9 -110c-26 -128 -120 -162 -217 -162c-41 0 -94 6 -131 26c-4 2 -5 3 -5 7v59c1 3 3 4 6 3c41 -24 89 -32 132 -32c119 0 157 63 158 177v11c-30 -15 -64 -19 -97 -19c-116 0 -222 80 -222 242c0 148 99 254 248 254c59 0 109 -13 138 -26
c2 -1 2 -2 2 -5c-2 -16 -3 -32 -3 -39zM364 74v347c-21 9 -49 13 -76 13c-118 0 -175 -90 -175 -195c0 -131 86 -183 162 -183c32 0 64 3 89 18zM158 575h-38c-5 0 -5 3 -5 6c4 63 37 99 87 99c58 0 98 -53 133 -53c25 0 35 17 38 46c0 3 1 5 5 5h38c4 0 5 -1 5 -4
c-5 -73 -36 -101 -82 -101c-53 0 -92 55 -134 55c-24 0 -39 -15 -43 -48c0 -2 -1 -5 -4 -5z" />
    <glyph glyph-name="uni1E21" unicode="&#x1e21;" horiz-adv-x="480" 
d="M233 158c-20 0 -40 3 -58 8c-5 -13 -8 -27 -6 -41c1 -17 8 -34 21 -46l95 -5c116 -6 187 -46 187 -136c0 -97 -90 -174 -227 -174c-138 0 -209 76 -209 150c0 34 28 79 97 137c-17 21 -25 48 -25 75c1 22 7 44 17 63c-40 28 -65 74 -65 135c0 92 65 168 174 168
c29 0 51 -3 68 -7c8 -2 13 -2 19 -2h137c4 0 5 -2 5 -6v-46c0 -3 -1 -5 -5 -5c-29 0 -71 1 -95 3c20 -20 40 -55 40 -106c0 -110 -79 -165 -170 -165zM339 324c0 62 -33 116 -106 116c-65 0 -108 -46 -108 -115c0 -67 38 -115 107 -115c66 0 107 42 107 114zM410 -70
c0 63 -63 81 -138 85l-98 5c-46 -31 -75 -76 -75 -102c0 -49 57 -100 149 -100c110 0 162 57 162 112zM120 654h242c3 0 5 -2 5 -5v-42c0 -3 -2 -5 -5 -5h-242c-4 0 -4 2 -4 5v42c0 4 1 5 4 5z" />
    <glyph glyph-name="uni1E21.alt" horiz-adv-x="512" 
d="M430 422v-386c0 -44 -3 -81 -9 -110c-26 -128 -120 -162 -217 -162c-41 0 -94 6 -131 26c-4 2 -5 3 -5 7v59c1 3 3 4 6 3c41 -24 89 -32 132 -32c119 0 157 63 158 177v11c-30 -15 -64 -19 -97 -19c-116 0 -222 80 -222 242c0 148 99 254 248 254c59 0 109 -13 138 -26
c2 -1 2 -2 2 -5c-2 -16 -3 -32 -3 -39zM364 74v347c-21 9 -49 13 -76 13c-118 0 -175 -90 -175 -195c0 -131 86 -183 162 -183c32 0 64 3 89 18zM136 654h242c3 0 5 -2 5 -5v-42c0 -3 -2 -5 -5 -5h-242c-4 0 -4 2 -4 5v42c0 4 1 5 4 5z" />
    <glyph glyph-name="gbreve" unicode="&#x11f;" horiz-adv-x="480" 
d="M233 158c-20 0 -40 3 -58 8c-5 -13 -8 -27 -6 -41c1 -17 8 -34 21 -46l95 -5c116 -6 187 -46 187 -136c0 -97 -90 -174 -227 -174c-138 0 -209 76 -209 150c0 34 28 79 97 137c-17 21 -25 48 -25 75c1 22 7 44 17 63c-40 28 -65 74 -65 135c0 92 65 168 174 168
c29 0 51 -3 68 -7c8 -2 13 -2 19 -2h137c4 0 5 -2 5 -6v-46c0 -3 -1 -5 -5 -5c-29 0 -71 1 -95 3c20 -20 40 -55 40 -106c0 -110 -79 -165 -170 -165zM339 324c0 62 -33 116 -106 116c-65 0 -108 -46 -108 -115c0 -67 38 -115 107 -115c66 0 107 42 107 114zM410 -70
c0 63 -63 81 -138 85l-98 5c-46 -31 -75 -76 -75 -102c0 -49 57 -100 149 -100c110 0 162 57 162 112zM97 678h45c2 0 4 -1 5 -4c12 -37 38 -62 84 -62c40 0 73 18 86 61c1 4 2 5 5 5h44c4 0 4 -3 4 -5c-12 -68 -62 -114 -139 -114c-73 0 -124 39 -138 114c-1 4 1 5 4 5z
" />
    <glyph glyph-name="gbreve.alt" horiz-adv-x="512" 
d="M430 422v-386c0 -44 -3 -81 -9 -110c-26 -128 -120 -162 -217 -162c-41 0 -94 6 -131 26c-4 2 -5 3 -5 7v59c1 3 3 4 6 3c41 -24 89 -32 132 -32c119 0 157 63 158 177v11c-30 -15 -64 -19 -97 -19c-116 0 -222 80 -222 242c0 148 99 254 248 254c59 0 109 -13 138 -26
c2 -1 2 -2 2 -5c-2 -16 -3 -32 -3 -39zM364 74v347c-21 9 -49 13 -76 13c-118 0 -175 -90 -175 -195c0 -131 86 -183 162 -183c32 0 64 3 89 18zM131 679h45c2 0 4 -1 5 -4c12 -37 38 -62 84 -62c40 0 73 18 86 61c1 4 2 5 5 5h44c4 0 4 -3 4 -5c-12 -68 -62 -114 -139 -114
c-73 0 -124 39 -138 114c-1 4 1 5 4 5z" />
    <glyph glyph-name="gdotaccent" unicode="&#x121;" horiz-adv-x="480" 
d="M233 158c-20 0 -40 3 -58 8c-5 -13 -8 -27 -6 -41c1 -17 8 -34 21 -46l95 -5c116 -6 187 -46 187 -136c0 -97 -90 -174 -227 -174c-138 0 -209 76 -209 150c0 34 28 79 97 137c-17 21 -25 48 -25 75c1 22 7 44 17 63c-40 28 -65 74 -65 135c0 92 65 168 174 168
c29 0 51 -3 68 -7c8 -2 13 -2 19 -2h137c4 0 5 -2 5 -6v-46c0 -3 -1 -5 -5 -5c-29 0 -71 1 -95 3c20 -20 40 -55 40 -106c0 -110 -79 -165 -170 -165zM339 324c0 62 -33 116 -106 116c-65 0 -108 -46 -108 -115c0 -67 38 -115 107 -115c66 0 107 42 107 114zM232 592
c-26 0 -42 17 -42 42s17 43 42 43c26 0 41 -19 41 -43c0 -25 -16 -42 -41 -42zM410 -70c0 63 -63 81 -138 85l-98 5c-46 -31 -75 -76 -75 -102c0 -49 57 -100 149 -100c110 0 162 57 162 112z" />
    <glyph glyph-name="gdotaccent.alt" horiz-adv-x="512" 
d="M430 422v-386c0 -44 -3 -81 -9 -110c-26 -128 -120 -162 -217 -162c-41 0 -94 6 -131 26c-4 2 -5 3 -5 7v59c1 3 3 4 6 3c41 -24 89 -32 132 -32c119 0 157 63 158 177v11c-30 -15 -64 -19 -97 -19c-116 0 -222 80 -222 242c0 148 99 254 248 254c59 0 109 -13 138 -26
c2 -1 2 -2 2 -5c-2 -16 -3 -32 -3 -39zM364 74v347c-21 9 -49 13 -76 13c-118 0 -175 -90 -175 -195c0 -131 86 -183 162 -183c32 0 64 3 89 18zM278 593c-26 0 -42 17 -42 42s17 43 42 43c26 0 41 -19 41 -43c0 -25 -16 -42 -41 -42z" />
    <glyph glyph-name="gcaron" unicode="&#x1e7;" horiz-adv-x="480" 
d="M233 158c-20 0 -40 3 -58 8c-5 -13 -8 -27 -6 -41c1 -17 8 -34 21 -46l95 -5c116 -6 187 -46 187 -136c0 -97 -90 -174 -227 -174c-138 0 -209 76 -209 150c0 34 28 79 97 137c-17 21 -25 48 -25 75c1 22 7 44 17 63c-40 28 -65 74 -65 135c0 92 65 168 174 168
c29 0 51 -3 68 -7c8 -2 13 -2 19 -2h137c4 0 5 -2 5 -6v-46c0 -3 -1 -5 -5 -5c-29 0 -71 1 -95 3c20 -20 40 -55 40 -106c0 -110 -79 -165 -170 -165zM339 324c0 62 -33 116 -106 116c-65 0 -108 -46 -108 -115c0 -67 38 -115 107 -115c66 0 107 42 107 114zM410 -70
c0 63 -63 81 -138 85l-98 5c-46 -31 -75 -76 -75 -102c0 -49 57 -100 149 -100c110 0 162 57 162 112zM164 696l72 -105l69 106c1 1 3 3 7 3h44c4 0 5 -4 3 -6l-93 -136c-2 -3 -3 -3 -5 -3h-53c-5 0 -6 1 -8 4l-95 136c-2 2 0 5 3 5h48c4 0 6 -2 8 -4z" />
    <glyph glyph-name="gcaron.alt" horiz-adv-x="512" 
d="M430 422v-386c0 -44 -3 -81 -9 -110c-26 -128 -120 -162 -217 -162c-41 0 -94 6 -131 26c-4 2 -5 3 -5 7v59c1 3 3 4 6 3c41 -24 89 -32 132 -32c119 0 157 63 158 177v11c-30 -15 -64 -19 -97 -19c-116 0 -222 80 -222 242c0 148 99 254 248 254c59 0 109 -13 138 -26
c2 -1 2 -2 2 -5c-2 -16 -3 -32 -3 -39zM364 74v347c-21 9 -49 13 -76 13c-118 0 -175 -90 -175 -195c0 -131 86 -183 162 -183c32 0 64 3 89 18zM180 696l72 -105l69 106c1 1 3 3 7 3h44c4 0 5 -4 3 -6l-93 -136c-2 -3 -3 -3 -5 -3h-53c-5 0 -6 1 -8 4l-95 136c-2 2 0 5 3 5
h48c4 0 6 -2 8 -4z" />
    <glyph glyph-name="uni0123" unicode="&#x123;" horiz-adv-x="480" 
d="M233 158c-20 0 -40 3 -58 8c-5 -13 -8 -27 -6 -41c1 -17 8 -34 21 -46l95 -5c116 -6 187 -46 187 -136c0 -97 -90 -174 -227 -174c-138 0 -209 76 -209 150c0 34 28 79 97 137c-17 21 -25 48 -25 75c1 22 7 44 17 63c-40 28 -65 74 -65 135c0 92 65 168 174 168
c29 0 51 -3 68 -7c8 -2 13 -2 19 -2h137c4 0 5 -2 5 -6v-46c0 -3 -1 -5 -5 -5c-29 0 -71 1 -95 3c20 -20 40 -55 40 -106c0 -110 -79 -165 -170 -165zM339 324c0 62 -33 116 -106 116c-65 0 -108 -46 -108 -115c0 -67 38 -115 107 -115c66 0 107 42 107 114zM410 -70
c0 63 -63 81 -138 85l-98 5c-46 -31 -75 -76 -75 -102c0 -49 57 -100 149 -100c110 0 162 57 162 112zM244 727h49c3 0 5 -3 3 -6c-27 -46 -37 -78 -37 -117c0 -18 5 -36 12 -56c1 -2 0 -5 -3 -5h-53c-3 0 -5 1 -7 4c-6 11 -12 34 -12 51c0 54 16 88 42 126c1 1 3 3 6 3z
" />
    <glyph glyph-name="uni0123.alt" horiz-adv-x="512" 
d="M430 422v-386c0 -44 -3 -81 -9 -110c-26 -128 -120 -162 -217 -162c-41 0 -94 6 -131 26c-4 2 -5 3 -5 7v59c1 3 3 4 6 3c41 -24 89 -32 132 -32c119 0 157 63 158 177v11c-30 -15 -64 -19 -97 -19c-116 0 -222 80 -222 242c0 148 99 254 248 254c59 0 109 -13 138 -26
c2 -1 2 -2 2 -5c-2 -16 -3 -32 -3 -39zM364 74v347c-21 9 -49 13 -76 13c-118 0 -175 -90 -175 -195c0 -131 86 -183 162 -183c32 0 64 3 89 18zM280 733h49c3 0 5 -3 3 -6c-27 -46 -37 -78 -37 -117c0 -18 5 -36 12 -56c1 -2 0 -5 -3 -5h-53c-3 0 -5 1 -7 4
c-6 11 -12 34 -12 51c0 54 16 88 42 126c1 1 3 3 6 3z" />
    <glyph glyph-name="hcircumflex" unicode="&#x125;" horiz-adv-x="527" 
d="M187 749l-75 53l-70 -54c-2 -2 -5 -3 -9 -3h-55c-3 0 -4 3 -2 5l104 85c3 3 5 3 7 3h52c4 0 7 -1 9 -4l109 -84c3 -2 1 -5 -2 -5h-58c-4 0 -8 2 -10 4zM146 372v-366c0 -5 -1 -6 -5 -6h-55c-4 0 -6 2 -6 6v704c0 3 1 5 5 5h56c4 0 5 -1 5 -5l1 -277c40 39 88 59 145 59
c66 0 154 -31 154 -185v-301c0 -4 -2 -6 -6 -6h-53c-5 0 -7 2 -7 7v293c0 79 -33 133 -105 133c-50 0 -97 -22 -129 -61z" />
    <glyph glyph-name="uni1E25" unicode="&#x1e25;" horiz-adv-x="527" 
d="M146 372v-366c0 -5 -1 -6 -5 -6h-55c-4 0 -6 2 -6 6v704c0 3 1 5 5 5h56c4 0 5 -1 5 -5l1 -277c40 39 88 59 145 59c66 0 154 -31 154 -185v-301c0 -4 -2 -6 -6 -6h-53c-5 0 -7 2 -7 7v293c0 79 -33 133 -105 133c-50 0 -97 -22 -129 -61zM263 -169c-25 0 -42 19 -42 42
c0 25 18 43 43 43s41 -19 41 -42c0 -24 -15 -43 -42 -43z" />
    <glyph glyph-name="uni1E2B" unicode="&#x1e2b;" horiz-adv-x="527" 
d="M146 372v-366c0 -5 -1 -6 -5 -6h-55c-4 0 -6 2 -6 6v704c0 3 1 5 5 5h56c4 0 5 -1 5 -5l1 -277c40 39 88 59 145 59c66 0 154 -31 154 -185v-301c0 -4 -2 -6 -6 -6h-53c-5 0 -7 2 -7 7v293c0 79 -33 133 -105 133c-50 0 -97 -22 -129 -61zM131 -76h46c3 0 4 0 5 -4
c11 -36 37 -60 81 -60c39 0 69 17 84 60c1 3 2 4 5 4h45c4 0 4 -3 4 -5c-11 -69 -68 -113 -138 -113c-71 0 -127 38 -137 113c0 3 1 5 5 5z" />
    <glyph glyph-name="igrave" unicode="&#xec;" horiz-adv-x="228" 
d="M81 7v470c0 4 1 6 5 6h55c4 0 6 -1 6 -6v-471c0 -4 -1 -6 -6 -6h-54c-5 0 -6 2 -6 7zM46 701l106 -142c2 -3 0 -5 -3 -5h-54c-4 0 -6 1 -7 4l-119 141c-1 3 0 6 3 6h67c3 0 5 -1 7 -4z" />
    <glyph glyph-name="iacute" unicode="&#xed;" horiz-adv-x="228" 
d="M81 7v470c0 4 1 6 5 6h55c4 0 6 -1 6 -6v-471c0 -4 -1 -6 -6 -6h-54c-5 0 -6 2 -6 7zM78 559l103 141c2 3 5 6 8 6h62c5 0 6 -3 4 -6l-114 -142c-2 -3 -4 -4 -8 -4h-52c-3 0 -4 2 -3 5z" />
    <glyph glyph-name="icircumflex" unicode="&#xee;" horiz-adv-x="228" 
d="M81 7v470c0 4 1 6 5 6h55c4 0 6 -1 6 -6v-471c0 -4 -1 -6 -6 -6h-54c-5 0 -6 2 -6 7zM183 557l-72 105l-70 -106c-1 -1 -2 -3 -7 -3h-44c-4 0 -4 4 -3 6l93 136c2 3 3 4 6 4h53c4 0 6 -2 7 -5l95 -135c3 -3 1 -6 -3 -6h-48c-4 0 -6 2 -7 4z" />
    <glyph glyph-name="itilde" unicode="&#x129;" horiz-adv-x="228" 
d="M81 7v470c0 4 1 6 5 6h55c4 0 6 -1 6 -6v-471c0 -4 -1 -6 -6 -6h-54c-5 0 -6 2 -6 7zM6 571h-38c-5 0 -5 3 -5 6c4 63 37 99 87 99c58 0 98 -53 133 -53c25 0 35 17 38 46c0 3 1 5 5 5h38c4 0 5 -1 5 -4c-5 -73 -36 -101 -82 -101c-53 0 -92 55 -134 55
c-24 0 -39 -15 -43 -48c0 -2 -1 -5 -4 -5z" />
    <glyph glyph-name="imacron" unicode="&#x12b;" horiz-adv-x="228" 
d="M81 7v470c0 4 1 6 5 6h55c4 0 6 -1 6 -6v-471c0 -4 -1 -6 -6 -6h-54c-5 0 -6 2 -6 7zM-6 654h242c3 0 5 -2 5 -5v-42c0 -3 -2 -5 -5 -5h-242c-4 0 -4 2 -4 5v42c0 4 1 5 4 5z" />
    <glyph glyph-name="i.dot" horiz-adv-x="228" 
d="M81 7v470c0 4 1 6 5 6h55c4 0 6 -1 6 -6v-471c0 -4 -1 -6 -6 -6h-54c-5 0 -6 2 -6 7zM113 590c-25 0 -41 17 -41 42s17 43 42 43c26 0 41 -19 41 -43c0 -25 -16 -42 -42 -42z" />
    <glyph glyph-name="idieresis" unicode="&#xef;" horiz-adv-x="228" 
d="M81 7v470c0 4 1 6 5 6h55c4 0 6 -1 6 -6v-471c0 -4 -1 -6 -6 -6h-54c-5 0 -6 2 -6 7zM27 593c-22 0 -38 15 -38 39c0 25 18 40 39 40s37 -16 37 -40s-17 -39 -38 -39zM199 593c-21 0 -37 15 -37 39c0 25 17 40 38 40c22 0 37 -16 37 -40c0 -23 -16 -39 -38 -39z" />
    <glyph glyph-name="uni1EC9" unicode="&#x1ec9;" horiz-adv-x="228" 
d="M81 7v470c0 4 1 6 5 6h55c4 0 6 -1 6 -6v-471c0 -4 -1 -6 -6 -6h-54c-5 0 -6 2 -6 7zM25 663v35c0 2 1 4 3 6c21 12 48 19 77 19c54 0 87 -32 87 -78c0 -59 -62 -98 -104 -113c-2 0 -4 0 -5 3v35c0 4 2 5 4 6c30 19 50 39 50 65c0 20 -14 36 -42 36c-24 0 -41 -5 -64 -17
c-3 -2 -6 0 -6 3z" />
    <glyph glyph-name="uni01D0" unicode="&#x1d0;" horiz-adv-x="228" 
d="M81 7v470c0 4 1 6 5 6h55c4 0 6 -1 6 -6v-471c0 -4 -1 -6 -6 -6h-54c-5 0 -6 2 -6 7zM47 696l72 -105l69 106c1 1 3 3 7 3h44c4 0 5 -4 3 -6l-93 -136c-2 -3 -3 -3 -5 -3h-53c-5 0 -6 1 -8 4l-95 136c-2 2 0 5 3 5h48c4 0 6 -2 8 -4z" />
    <glyph glyph-name="uni1ECB" unicode="&#x1ecb;" horiz-adv-x="228" 
d="M81 7v470c0 4 1 6 5 6h55c4 0 6 -1 6 -6v-471c0 -4 -1 -6 -6 -6h-54c-5 0 -6 2 -6 7zM113 590c-25 0 -41 17 -41 42s17 43 42 43c26 0 41 -19 41 -43c0 -25 -16 -42 -42 -42zM114 -169c-25 0 -42 19 -42 42c0 25 18 43 43 43s41 -19 41 -42c0 -24 -15 -43 -42 -43z" />
    <glyph glyph-name="jcircumflex" unicode="&#x135;" horiz-adv-x="229" 
d="M88 483h55c4 0 6 -2 6 -6v-494c0 -107 -21 -143 -47 -172c-28 -31 -75 -39 -102 -39c-6 0 -8 0 -14 1c-4 1 -5 3 -5 7v46c0 3 1 6 6 6c50 2 95 15 96 136v509c0 4 1 6 5 6zM183 557l-72 105l-70 -106c-1 -1 -2 -3 -7 -3h-44c-4 0 -4 4 -3 6l93 136c2 3 3 4 6 4h53
c4 0 6 -2 7 -5l95 -135c3 -3 1 -6 -3 -6h-48c-4 0 -6 2 -7 4z" />
    <glyph glyph-name="uni0137" unicode="&#x137;" horiz-adv-x="453" 
d="M146 710v-453l1 1c42 42 186 192 213 220c3 3 5 5 9 5h63c5 0 6 -4 3 -7c-27 -29 -178 -177 -215 -214c-1 -2 0 -3 0 -4c63 -67 173 -179 244 -252c3 -2 1 -6 -3 -6h-74c-4 0 -6 2 -9 5c-55 56 -183 190 -231 240l-1 1v-240c0 -4 -1 -6 -5 -6h-55c-5 0 -6 2 -6 6v704
c0 3 1 5 6 5h54c4 0 6 -2 6 -5zM222 -223h-49c-3 0 -5 3 -3 6c27 46 37 78 37 117c0 18 -5 36 -12 56c-1 2 0 5 3 5h53c3 0 5 -1 7 -4c6 -11 12 -34 12 -51c0 -54 -16 -88 -42 -126c-1 -1 -3 -3 -6 -3z" />
    <glyph glyph-name="lacute" unicode="&#x13a;" horiz-adv-x="242" 
d="M77 762l91 78c3 4 7 4 12 4h65c4 0 5 -4 2 -7l-101 -78c-4 -4 -7 -4 -12 -4h-54c-5 0 -6 3 -3 7zM80 90v620c0 4 2 5 6 5h54c5 0 6 -2 6 -5v-615c0 -39 16 -47 39 -47c7 0 11 0 20 2c3 1 3 -1 3 -5v-41c0 -5 0 -6 -4 -8c-8 -3 -23 -6 -40 -6c-41 0 -84 14 -84 100z" />
    <glyph glyph-name="lcaron" unicode="&#x13e;" horiz-adv-x="272" 
d="M216 490l2 220c0 4 1 5 5 5h44c4 0 5 -1 5 -5l-9 -220c-1 -3 -3 -6 -6 -6h-35c-4 0 -6 1 -6 6zM80 90v620c0 4 2 5 6 5h54c5 0 6 -2 6 -5v-615c0 -39 16 -47 39 -47c7 0 11 0 20 2c3 1 3 -1 3 -5v-41c0 -5 0 -6 -4 -8c-8 -3 -23 -6 -40 -6c-41 0 -84 14 -84 100z" />
    <glyph glyph-name="ldot" unicode="&#x140;" horiz-adv-x="255" 
d="M232 384c-21 0 -35 15 -35 42c0 24 12 41 35 41c24 0 36 -16 36 -41c0 -27 -13 -42 -36 -42zM80 90v620c0 4 2 5 6 5h54c5 0 6 -2 6 -5v-615c0 -39 16 -47 39 -47c7 0 11 0 20 2c3 1 3 -1 3 -5v-41c0 -5 0 -6 -4 -8c-8 -3 -23 -6 -40 -6c-41 0 -84 14 -84 100z" />
    <glyph glyph-name="uni1E37" unicode="&#x1e37;" horiz-adv-x="242" 
d="M80 90v620c0 4 2 5 6 5h54c5 0 6 -2 6 -5v-615c0 -39 16 -47 39 -47c7 0 11 0 20 2c3 1 3 -1 3 -5v-41c0 -5 0 -6 -4 -8c-8 -3 -23 -6 -40 -6c-41 0 -84 14 -84 100zM137 -169c-25 0 -42 19 -42 42c0 25 18 43 43 43s41 -19 41 -42c0 -24 -15 -43 -42 -43z" />
    <glyph glyph-name="uni013C" unicode="&#x13c;" horiz-adv-x="242" 
d="M80 90v620c0 4 2 5 6 5h54c5 0 6 -2 6 -5v-615c0 -39 16 -47 39 -47c7 0 11 0 20 2c3 1 3 -1 3 -5v-41c0 -5 0 -6 -4 -8c-8 -3 -23 -6 -40 -6c-41 0 -84 14 -84 100zM130 -230h-49c-3 0 -5 3 -3 6c27 46 37 78 37 117c0 18 -5 36 -12 56c-1 2 0 5 3 5h53c3 0 5 -1 7 -4
c6 -11 12 -34 12 -51c0 -54 -16 -88 -42 -126c-1 -1 -3 -3 -6 -3z" />
    <glyph glyph-name="uni1E3B" unicode="&#x1e3b;" horiz-adv-x="242" 
d="M80 90v620c0 4 2 5 6 5h54c5 0 6 -2 6 -5v-615c0 -39 16 -47 39 -47c7 0 11 0 20 2c3 1 3 -1 3 -5v-41c0 -5 0 -6 -4 -8c-8 -3 -23 -6 -40 -6c-41 0 -84 14 -84 100zM26 -90h227c2 0 4 -1 4 -5v-42c0 -4 -2 -5 -5 -5h-226c-4 0 -5 2 -5 5v43c0 3 2 4 5 4z" />
    <glyph glyph-name="uni1E39" unicode="&#x1e39;" horiz-adv-x="242" 
d="M11 822h210c3 0 4 -1 4 -5v-40c0 -3 -1 -5 -4 -5h-210c-4 0 -5 2 -5 5v41c0 3 2 4 5 4zM80 90v620c0 4 2 5 6 5h54c5 0 6 -2 6 -5v-615c0 -39 16 -47 39 -47c7 0 11 0 20 2c3 1 3 -1 3 -5v-41c0 -5 0 -6 -4 -8c-8 -3 -23 -6 -40 -6c-41 0 -84 14 -84 100zM138 -173
c-25 0 -42 19 -42 42c0 25 18 43 43 43s41 -19 41 -42c0 -24 -15 -43 -42 -43z" />
    <glyph glyph-name="uni1E43" unicode="&#x1e43;" horiz-adv-x="813" 
d="M141 0h-55c-5 0 -6 2 -6 7v372c0 44 -2 80 -4 98c0 4 1 6 6 6h49c3 0 5 -2 6 -5c4 -11 5 -34 6 -49c44 43 92 63 146 63c58 0 101 -23 127 -72c41 41 92 72 161 72s155 -34 155 -184v-302c0 -4 -3 -6 -7 -6h-53c-5 0 -6 2 -6 7v297c0 72 -32 129 -104 129
c-53 0 -95 -23 -128 -63c3 -12 5 -40 5 -65v-299c0 -4 -1 -6 -6 -6h-54c-4 0 -6 1 -6 6v301c0 78 -35 126 -102 126c-50 0 -87 -20 -125 -61v-366c0 -5 -1 -6 -5 -6zM406 -177c-25 0 -42 19 -42 42c0 25 18 43 43 43s41 -19 41 -42c0 -24 -15 -43 -42 -43z" />
    <glyph glyph-name="nacute" unicode="&#x144;" horiz-adv-x="527" 
d="M80 6v365c0 34 -2 90 -4 106c0 4 1 6 6 6h48c4 0 6 -2 7 -5c3 -9 4 -30 6 -52c42 44 93 66 149 66c66 0 154 -31 154 -185v-301c0 -4 -2 -6 -6 -6h-53c-5 0 -7 2 -7 7v294c0 77 -33 132 -105 132c-53 0 -96 -25 -129 -67v-360c0 -4 -1 -6 -6 -6h-54c-4 0 -6 2 -6 6z
M221 559l103 141c2 3 5 6 8 6h62c5 0 6 -3 4 -6l-114 -142c-2 -3 -4 -4 -8 -4h-52c-3 0 -4 2 -3 5z" />
    <glyph glyph-name="ntilde" unicode="&#xf1;" horiz-adv-x="527" 
d="M80 6v365c0 34 -2 90 -4 106c0 4 1 6 6 6h48c4 0 6 -2 7 -5c3 -9 4 -30 6 -52c42 44 93 66 149 66c66 0 154 -31 154 -185v-301c0 -4 -2 -6 -6 -6h-53c-5 0 -7 2 -7 7v294c0 77 -33 132 -105 132c-53 0 -96 -25 -129 -67v-360c0 -4 -1 -6 -6 -6h-54c-4 0 -6 2 -6 6z
M149 571h-38c-5 0 -5 3 -5 6c4 63 37 99 87 99c58 0 98 -53 133 -53c25 0 35 17 38 46c0 3 1 5 5 5h38c4 0 5 -1 5 -4c-5 -73 -36 -101 -82 -101c-53 0 -92 55 -134 55c-24 0 -39 -15 -43 -48c0 -2 -1 -5 -4 -5z" />
    <glyph glyph-name="uni1E45" unicode="&#x1e45;" horiz-adv-x="527" 
d="M80 6v365c0 34 -2 90 -4 106c0 4 1 6 6 6h48c4 0 6 -2 7 -5c3 -9 4 -30 6 -52c42 44 93 66 149 66c66 0 154 -31 154 -185v-301c0 -4 -2 -6 -6 -6h-53c-5 0 -7 2 -7 7v294c0 77 -33 132 -105 132c-53 0 -96 -25 -129 -67v-360c0 -4 -1 -6 -6 -6h-54c-4 0 -6 2 -6 6z
M263 590c-26 0 -42 17 -42 42s17 43 42 43c26 0 41 -19 41 -43c0 -25 -16 -42 -41 -42z" />
    <glyph glyph-name="ncaron" unicode="&#x148;" horiz-adv-x="527" 
d="M80 6v365c0 34 -2 90 -4 106c0 4 1 6 6 6h48c4 0 6 -2 7 -5c3 -9 4 -30 6 -52c42 44 93 66 149 66c66 0 154 -31 154 -185v-301c0 -4 -2 -6 -6 -6h-53c-5 0 -7 2 -7 7v294c0 77 -33 132 -105 132c-53 0 -96 -25 -129 -67v-360c0 -4 -1 -6 -6 -6h-54c-4 0 -6 2 -6 6z
M188 696l72 -105l69 106c1 1 3 3 7 3h44c4 0 5 -4 3 -6l-93 -136c-2 -3 -3 -3 -5 -3h-53c-5 0 -6 1 -8 4l-95 136c-2 2 0 5 3 5h48c4 0 6 -2 8 -4z" />
    <glyph glyph-name="uni1E47" unicode="&#x1e47;" horiz-adv-x="527" 
d="M80 6v365c0 34 -2 90 -4 106c0 4 1 6 6 6h48c4 0 6 -2 7 -5c3 -9 4 -30 6 -52c42 44 93 66 149 66c66 0 154 -31 154 -185v-301c0 -4 -2 -6 -6 -6h-53c-5 0 -7 2 -7 7v294c0 77 -33 132 -105 132c-53 0 -96 -25 -129 -67v-360c0 -4 -1 -6 -6 -6h-54c-4 0 -6 2 -6 6z
M263 -169c-25 0 -42 19 -42 42c0 25 18 43 43 43s41 -19 41 -42c0 -24 -15 -43 -42 -43z" />
    <glyph glyph-name="uni0146" unicode="&#x146;" horiz-adv-x="527" 
d="M80 6v365c0 34 -2 90 -4 106c0 4 1 6 6 6h48c4 0 6 -2 7 -5c3 -9 4 -30 6 -52c42 44 93 66 149 66c66 0 154 -31 154 -185v-301c0 -4 -2 -6 -6 -6h-53c-5 0 -7 2 -7 7v294c0 77 -33 132 -105 132c-53 0 -96 -25 -129 -67v-360c0 -4 -1 -6 -6 -6h-54c-4 0 -6 2 -6 6z
M258 -230h-49c-3 0 -5 3 -3 6c27 46 37 78 37 117c0 18 -5 36 -12 56c-1 2 0 5 3 5h53c3 0 5 -1 7 -4c6 -11 12 -34 12 -51c0 -54 -16 -88 -42 -126c-1 -1 -3 -3 -6 -3z" />
    <glyph glyph-name="uni1E49" unicode="&#x1e49;" horiz-adv-x="527" 
d="M80 6v365c0 34 -2 90 -4 106c0 4 1 6 6 6h48c4 0 6 -2 7 -5c3 -9 4 -30 6 -52c42 44 93 66 149 66c66 0 154 -31 154 -185v-301c0 -4 -2 -6 -6 -6h-53c-5 0 -7 2 -7 7v294c0 77 -33 132 -105 132c-53 0 -96 -25 -129 -67v-360c0 -4 -1 -6 -6 -6h-54c-4 0 -6 2 -6 6z
M150 -100h227c2 0 4 -1 4 -5v-42c0 -4 -2 -5 -5 -5h-226c-4 0 -5 2 -5 5v43c0 3 2 4 5 4z" />
    <glyph glyph-name="ograve" unicode="&#xf2;" horiz-adv-x="517" 
d="M260 492c129 0 212 -101 212 -250c0 -151 -85 -251 -212 -251c-152 0 -215 130 -215 250c0 143 85 251 215 251zM256 434c-86 0 -145 -74 -145 -191c0 -106 53 -194 151 -194c72 0 143 57 143 191c0 99 -42 194 -149 194zM198 701l106 -142c2 -3 0 -5 -3 -5h-54
c-4 0 -6 1 -7 4l-119 141c-1 3 0 6 3 6h67c3 0 5 -1 7 -4z" />
    <glyph glyph-name="oacute" unicode="&#xf3;" horiz-adv-x="517" 
d="M260 492c129 0 212 -101 212 -250c0 -151 -85 -251 -212 -251c-152 0 -215 130 -215 250c0 143 85 251 215 251zM256 434c-86 0 -145 -74 -145 -191c0 -106 53 -194 151 -194c72 0 143 57 143 191c0 99 -42 194 -149 194zM210 559l103 141c2 3 5 6 8 6h62c5 0 6 -3 4 -6
l-114 -142c-2 -3 -4 -4 -8 -4h-52c-3 0 -4 2 -3 5z" />
    <glyph glyph-name="ocircumflex" unicode="&#xf4;" horiz-adv-x="517" 
d="M260 492c129 0 212 -101 212 -250c0 -151 -85 -251 -212 -251c-152 0 -215 130 -215 250c0 143 85 251 215 251zM256 434c-86 0 -145 -74 -145 -191c0 -106 53 -194 151 -194c72 0 143 57 143 191c0 99 -42 194 -149 194zM326 557l-72 105l-70 -106c-1 -1 -2 -3 -7 -3
h-44c-4 0 -4 4 -3 6l93 136c2 3 3 4 6 4h53c4 0 6 -2 7 -5l95 -135c3 -3 1 -6 -3 -6h-48c-4 0 -6 2 -7 4z" />
    <glyph glyph-name="otilde" unicode="&#xf5;" horiz-adv-x="517" 
d="M260 492c129 0 212 -101 212 -250c0 -151 -85 -251 -212 -251c-152 0 -215 130 -215 250c0 143 85 251 215 251zM256 434c-86 0 -145 -74 -145 -191c0 -106 53 -194 151 -194c72 0 143 57 143 191c0 99 -42 194 -149 194zM149 571h-38c-5 0 -5 3 -5 6c4 63 37 99 87 99
c58 0 98 -53 133 -53c25 0 35 17 38 46c0 3 1 5 5 5h38c4 0 5 -1 5 -4c-5 -73 -36 -101 -82 -101c-53 0 -92 55 -134 55c-24 0 -39 -15 -43 -48c0 -2 -1 -5 -4 -5z" />
    <glyph glyph-name="omacron" unicode="&#x14d;" horiz-adv-x="517" 
d="M260 492c129 0 212 -101 212 -250c0 -151 -85 -251 -212 -251c-152 0 -215 130 -215 250c0 143 85 251 215 251zM256 434c-86 0 -145 -74 -145 -191c0 -106 53 -194 151 -194c72 0 143 57 143 191c0 99 -42 194 -149 194zM137 654h242c3 0 5 -2 5 -5v-42
c0 -3 -2 -5 -5 -5h-242c-4 0 -4 2 -4 5v42c0 4 1 5 4 5z" />
    <glyph glyph-name="odieresis" unicode="&#xf6;" horiz-adv-x="517" 
d="M260 492c129 0 212 -101 212 -250c0 -151 -85 -251 -212 -251c-152 0 -215 130 -215 250c0 143 85 251 215 251zM256 434c-86 0 -145 -74 -145 -191c0 -106 53 -194 151 -194c72 0 143 57 143 191c0 99 -42 194 -149 194zM170 593c-22 0 -38 15 -38 39c0 25 18 40 39 40
s37 -16 37 -40s-17 -39 -38 -39zM342 593c-21 0 -37 15 -37 39c0 25 17 40 38 40c22 0 37 -16 37 -40c0 -23 -16 -39 -38 -39z" />
    <glyph glyph-name="uni1ECF" unicode="&#x1ecf;" horiz-adv-x="517" 
d="M260 492c129 0 212 -101 212 -250c0 -151 -85 -251 -212 -251c-152 0 -215 130 -215 250c0 143 85 251 215 251zM256 434c-86 0 -145 -74 -145 -191c0 -106 53 -194 151 -194c72 0 143 57 143 191c0 99 -42 194 -149 194zM175 663v35c0 2 1 4 3 6c21 12 48 19 77 19
c54 0 87 -32 87 -78c0 -59 -62 -98 -104 -113c-2 0 -4 0 -5 3v35c0 4 2 5 4 6c30 19 50 39 50 65c0 20 -14 36 -42 36c-24 0 -41 -5 -64 -17c-3 -2 -6 0 -6 3z" />
    <glyph glyph-name="ohungarumlaut" unicode="&#x151;" horiz-adv-x="517" 
d="M260 492c129 0 212 -101 212 -250c0 -151 -85 -251 -212 -251c-152 0 -215 130 -215 250c0 143 85 251 215 251zM256 434c-86 0 -145 -74 -145 -191c0 -106 53 -194 151 -194c72 0 143 57 143 191c0 99 -42 194 -149 194zM151 561l75 139c2 3 4 5 9 5h49c4 0 6 -3 4 -6
l-84 -141c-2 -3 -3 -4 -9 -4h-40c-4 0 -5 3 -4 7zM298 562l75 139c2 3 4 4 8 4h50c4 0 5 -3 4 -6l-84 -140c-2 -3 -4 -5 -10 -5h-39c-5 0 -7 3 -4 8z" />
    <glyph glyph-name="uni01D2" unicode="&#x1d2;" horiz-adv-x="517" 
d="M260 492c129 0 212 -101 212 -250c0 -151 -85 -251 -212 -251c-152 0 -215 130 -215 250c0 143 85 251 215 251zM256 434c-86 0 -145 -74 -145 -191c0 -106 53 -194 151 -194c72 0 143 57 143 191c0 99 -42 194 -149 194zM188 696l72 -105l69 106c1 1 3 3 7 3h44
c4 0 5 -4 3 -6l-93 -136c-2 -3 -3 -3 -5 -3h-53c-5 0 -6 1 -8 4l-95 136c-2 2 0 5 3 5h48c4 0 6 -2 8 -4z" />
    <glyph glyph-name="uni1ECD" unicode="&#x1ecd;" horiz-adv-x="517" 
d="M260 492c129 0 212 -101 212 -250c0 -151 -85 -251 -212 -251c-152 0 -215 130 -215 250c0 143 85 251 215 251zM256 434c-86 0 -145 -74 -145 -191c0 -106 53 -194 151 -194c72 0 143 57 143 191c0 99 -42 194 -149 194zM257 -176c-25 0 -42 19 -42 42c0 25 18 43 43 43
s41 -19 41 -42c0 -24 -15 -43 -42 -43z" />
    <glyph glyph-name="uni1ED9" unicode="&#x1ed9;" horiz-adv-x="517" 
d="M260 492c129 0 212 -101 212 -250c0 -151 -85 -251 -212 -251c-152 0 -215 130 -215 250c0 143 85 251 215 251zM256 434c-86 0 -145 -74 -145 -191c0 -106 53 -194 151 -194c72 0 143 57 143 191c0 99 -42 194 -149 194zM326 547l-72 105l-70 -106c-1 -1 -2 -3 -7 -3
h-44c-4 0 -4 4 -3 6l93 136c2 3 3 4 6 4h53c4 0 6 -2 7 -5l95 -135c3 -3 1 -6 -3 -6h-48c-4 0 -6 2 -7 4zM257 -175c-25 0 -42 19 -42 42c0 25 18 43 43 43s41 -19 41 -42c0 -24 -15 -43 -42 -43z" />
    <glyph glyph-name="uni1ED3" unicode="&#x1ed3;" horiz-adv-x="517" 
d="M260 492c129 0 212 -101 212 -250c0 -151 -85 -251 -212 -251c-152 0 -215 130 -215 250c0 143 85 251 215 251zM256 434c-86 0 -145 -74 -145 -191c0 -106 53 -194 151 -194c72 0 143 57 143 191c0 99 -42 194 -149 194zM393 731l74 -102c2 -4 0 -7 -4 -7h-41
c-3 0 -6 0 -9 4l-85 103c-3 4 -1 7 3 7h54c3 0 5 -1 8 -5zM317 545l-64 85l-65 -87c-1 -2 -4 -3 -7 -3h-44c-4 0 -5 3 -3 6l90 118c2 3 4 4 6 4h49c3 0 5 -1 6 -4l92 -118c2 -3 1 -6 -2 -6h-50c-4 0 -7 2 -8 5z" />
    <glyph glyph-name="uni1ED1" unicode="&#x1ed1;" horiz-adv-x="517" 
d="M260 492c129 0 212 -101 212 -250c0 -151 -85 -251 -212 -251c-152 0 -215 130 -215 250c0 143 85 251 215 251zM256 434c-86 0 -145 -74 -145 -191c0 -106 53 -194 151 -194c72 0 143 57 143 191c0 99 -42 194 -149 194zM354 651l78 99c3 4 5 5 8 5h55c3 0 4 -3 2 -6
l-89 -100c-3 -2 -4 -4 -8 -4h-43c-3 0 -5 3 -3 6zM316 553l-64 85l-65 -87c-1 -2 -4 -3 -7 -3h-44c-4 0 -5 3 -3 6l90 118c2 3 4 4 6 4h49c3 0 5 -1 6 -4l92 -118c2 -3 1 -6 -2 -6h-50c-4 0 -7 2 -8 5z" />
    <glyph glyph-name="uni1ED7" unicode="&#x1ed7;" horiz-adv-x="517" 
d="M260 492c129 0 212 -101 212 -250c0 -151 -85 -251 -212 -251c-152 0 -215 130 -215 250c0 143 85 251 215 251zM256 434c-86 0 -145 -74 -145 -191c0 -106 53 -194 151 -194c72 0 143 57 143 191c0 99 -42 194 -149 194zM259 587l-69 -54c-1 -2 -6 -3 -10 -3h-51
c-4 0 -4 4 -2 6l101 82c3 3 5 3 7 3h50c4 0 6 -2 8 -4l103 -82c2 -2 1 -5 -3 -5h-54c-4 0 -9 1 -11 4zM159 659h-33c-4 0 -4 3 -4 6c4 46 34 74 78 74c49 0 84 -38 118 -38c18 0 29 10 34 32c1 2 2 5 6 5h32c4 0 5 -2 5 -5c-7 -54 -38 -74 -77 -74c-50 0 -79 39 -117 39
c-19 0 -30 -9 -36 -35c0 -2 -2 -4 -6 -4z" />
    <glyph glyph-name="uni1ED5" unicode="&#x1ed5;" horiz-adv-x="517" 
d="M260 492c129 0 212 -101 212 -250c0 -151 -85 -251 -212 -251c-152 0 -215 130 -215 250c0 143 85 251 215 251zM256 434c-86 0 -145 -74 -145 -191c0 -106 53 -194 151 -194c72 0 143 57 143 191c0 99 -42 194 -149 194zM327 720v34c0 2 1 4 3 5c14 11 39 19 65 19
c49 0 78 -29 78 -69c0 -49 -56 -83 -92 -95c-1 -1 -3 0 -3 3v33c0 3 0 3 3 5c26 17 41 29 41 50c0 17 -10 30 -36 30c-20 0 -35 -5 -55 -18c-2 -1 -4 0 -4 3zM321 534l-64 86l-65 -87c-1 -2 -4 -3 -7 -3h-44c-4 0 -5 3 -3 6l90 118c2 3 4 4 6 4h49c3 0 5 -1 6 -4l92 -118
c2 -3 1 -6 -2 -6h-50c-4 0 -7 2 -8 4z" />
    <glyph glyph-name="uni1EDD" unicode="&#x1edd;" horiz-adv-x="517" 
d="M433 558h48c5 0 6 -2 8 -6c3 -11 5 -25 5 -44c0 -48 -27 -82 -74 -93c33 -43 52 -103 52 -173c0 -151 -85 -251 -212 -251c-152 0 -215 130 -215 250c0 143 85 251 215 251c48 0 90 -14 124 -40c42 3 51 28 51 56c0 11 -2 30 -6 44c-1 4 0 6 4 6zM256 434
c-86 0 -145 -74 -145 -191c0 -106 53 -194 151 -194c72 0 143 57 143 191c0 99 -42 194 -149 194zM206 701l106 -142c2 -3 0 -5 -3 -5h-54c-4 0 -6 1 -7 4l-119 141c-1 3 0 6 3 6h67c3 0 5 -1 7 -4z" />
    <glyph glyph-name="uni1EDB" unicode="&#x1edb;" horiz-adv-x="517" 
d="M433 558h48c5 0 6 -2 8 -6c3 -11 5 -25 5 -44c0 -48 -27 -82 -74 -93c33 -43 52 -103 52 -173c0 -151 -85 -251 -212 -251c-152 0 -215 130 -215 250c0 143 85 251 215 251c48 0 90 -14 124 -40c42 3 51 28 51 56c0 11 -2 30 -6 44c-1 4 0 6 4 6zM256 434
c-86 0 -145 -74 -145 -191c0 -106 53 -194 151 -194c72 0 143 57 143 191c0 99 -42 194 -149 194zM222 559l103 141c2 3 5 6 8 6h62c5 0 6 -3 4 -6l-114 -142c-2 -3 -4 -4 -8 -4h-52c-3 0 -4 2 -3 5z" />
    <glyph glyph-name="uni1EE1" unicode="&#x1ee1;" horiz-adv-x="517" 
d="M433 558h48c5 0 6 -2 8 -6c3 -11 5 -25 5 -44c0 -48 -27 -82 -74 -93c33 -43 52 -103 52 -173c0 -151 -85 -251 -212 -251c-152 0 -215 130 -215 250c0 143 85 251 215 251c48 0 90 -14 124 -40c42 3 51 28 51 56c0 11 -2 30 -6 44c-1 4 0 6 4 6zM256 434
c-86 0 -145 -74 -145 -191c0 -106 53 -194 151 -194c72 0 143 57 143 191c0 99 -42 194 -149 194zM150 571h-38c-5 0 -5 3 -5 6c4 63 37 99 87 99c58 0 98 -53 133 -53c25 0 35 17 38 46c0 3 1 5 5 5h38c4 0 5 -1 5 -4c-5 -73 -36 -101 -82 -101c-53 0 -92 55 -134 55
c-24 0 -39 -15 -43 -48c0 -2 -1 -5 -4 -5z" />
    <glyph glyph-name="uni1EDF" unicode="&#x1edf;" horiz-adv-x="517" 
d="M433 558h48c5 0 6 -2 8 -6c3 -11 5 -25 5 -44c0 -48 -27 -82 -74 -93c33 -43 52 -103 52 -173c0 -151 -85 -251 -212 -251c-152 0 -215 130 -215 250c0 143 85 251 215 251c48 0 90 -14 124 -40c42 3 51 28 51 56c0 11 -2 30 -6 44c-1 4 0 6 4 6zM256 434
c-86 0 -145 -74 -145 -191c0 -106 53 -194 151 -194c72 0 143 57 143 191c0 99 -42 194 -149 194zM178 663v35c0 2 1 4 3 6c21 12 48 19 77 19c54 0 87 -32 87 -78c0 -59 -62 -98 -104 -113c-2 0 -4 0 -5 3v35c0 4 2 5 4 6c30 19 50 39 50 65c0 20 -14 36 -42 36
c-24 0 -41 -5 -64 -17c-3 -2 -6 0 -6 3z" />
    <glyph glyph-name="uni1EE3" unicode="&#x1ee3;" horiz-adv-x="517" 
d="M433 558h48c5 0 6 -2 8 -6c3 -11 5 -25 5 -44c0 -48 -27 -82 -74 -93c33 -43 52 -103 52 -173c0 -151 -85 -251 -212 -251c-152 0 -215 130 -215 250c0 143 85 251 215 251c48 0 90 -14 124 -40c42 3 51 28 51 56c0 11 -2 30 -6 44c-1 4 0 6 4 6zM258 -169
c-25 0 -42 19 -42 42c0 25 18 43 43 43s41 -19 41 -42c0 -24 -15 -43 -42 -43zM256 434c-86 0 -145 -74 -145 -191c0 -106 53 -194 151 -194c72 0 143 57 143 191c0 99 -42 194 -149 194z" />
    <glyph glyph-name="racute" unicode="&#x155;" horiz-adv-x="313" 
d="M80 483h50c4 0 6 -2 7 -6c4 -12 7 -49 7 -70c34 48 96 85 157 85c4 0 5 -1 5 -5v-58c0 -4 -1 -5 -6 -5c-66 0 -127 -36 -153 -79v-339c0 -5 -2 -6 -6 -6h-55c-5 0 -5 2 -5 6v347c0 43 -2 98 -6 124c0 4 1 6 5 6zM121 559l103 141c2 3 5 6 8 6h62c5 0 6 -3 4 -6l-114 -142
c-2 -3 -4 -4 -8 -4h-52c-3 0 -4 2 -3 5z" />
    <glyph glyph-name="rcaron" unicode="&#x159;" horiz-adv-x="313" 
d="M80 483h50c4 0 6 -2 7 -6c4 -12 7 -49 7 -70c34 48 96 85 157 85c4 0 5 -1 5 -5v-58c0 -4 -1 -5 -6 -5c-66 0 -127 -36 -153 -79v-339c0 -5 -2 -6 -6 -6h-55c-5 0 -5 2 -5 6v347c0 43 -2 98 -6 124c0 4 1 6 5 6zM109 695l72 -105l69 106c1 1 3 3 7 3h44c4 0 5 -4 3 -6
l-93 -136c-2 -3 -3 -3 -5 -3h-53c-5 0 -6 1 -8 4l-95 136c-2 2 0 5 3 5h48c4 0 6 -2 8 -4z" />
    <glyph glyph-name="uni1E5B" unicode="&#x1e5b;" horiz-adv-x="313" 
d="M80 483h50c4 0 6 -2 7 -6c4 -12 7 -49 7 -70c34 48 96 85 157 85c4 0 5 -1 5 -5v-58c0 -4 -1 -5 -6 -5c-66 0 -127 -36 -153 -79v-339c0 -5 -2 -6 -6 -6h-55c-5 0 -5 2 -5 6v347c0 43 -2 98 -6 124c0 4 1 6 5 6zM108 -169c-25 0 -42 19 -42 42c0 25 18 43 43 43
s41 -19 41 -42c0 -24 -15 -43 -42 -43z" />
    <glyph glyph-name="uni0157" unicode="&#x157;" horiz-adv-x="313" 
d="M80 483h50c4 0 6 -2 7 -6c4 -12 7 -49 7 -70c34 48 96 85 157 85c4 0 5 -1 5 -5v-58c0 -4 -1 -5 -6 -5c-66 0 -127 -36 -153 -79v-339c0 -5 -2 -6 -6 -6h-55c-5 0 -5 2 -5 6v347c0 43 -2 98 -6 124c0 4 1 6 5 6zM103 -228h-49c-3 0 -5 3 -3 6c27 46 37 78 37 117
c0 18 -5 36 -12 56c-1 2 0 5 3 5h53c3 0 5 -1 7 -4c6 -11 12 -34 12 -51c0 -54 -16 -88 -42 -126c-1 -1 -3 -3 -6 -3z" />
    <glyph glyph-name="uni1E5F" unicode="&#x1e5f;" horiz-adv-x="313" 
d="M80 483h50c4 0 6 -2 7 -6c4 -12 7 -49 7 -70c34 48 96 85 157 85c4 0 5 -1 5 -5v-58c0 -4 -1 -5 -6 -5c-66 0 -127 -36 -153 -79v-339c0 -5 -2 -6 -6 -6h-55c-5 0 -5 2 -5 6v347c0 43 -2 98 -6 124c0 4 1 6 5 6zM2 -83h227c2 0 4 -1 4 -5v-42c0 -4 -2 -5 -5 -5h-226
c-4 0 -5 2 -5 5v43c0 3 2 4 5 4z" />
    <glyph glyph-name="uni1E5D" unicode="&#x1e5d;" horiz-adv-x="313" 
d="M80 483h50c4 0 6 -2 7 -6c4 -12 7 -49 7 -70c34 48 96 85 157 85c4 0 5 -1 5 -5v-58c0 -4 -1 -5 -6 -5c-66 0 -127 -36 -153 -79v-339c0 -5 -2 -6 -6 -6h-55c-5 0 -5 2 -5 6v347c0 43 -2 98 -6 124c0 4 1 6 5 6zM114 -169c-25 0 -42 19 -42 42c0 25 18 43 43 43
s41 -19 41 -42c0 -24 -15 -43 -42 -43zM57 654h242c3 0 5 -2 5 -5v-42c0 -3 -2 -5 -5 -5h-242c-4 0 -4 2 -4 5v42c0 4 1 5 4 5z" />
    <glyph glyph-name="sacute" unicode="&#x15b;" horiz-adv-x="375" 
d="M307 408c-26 17 -68 28 -108 28c-68 0 -92 -36 -92 -69c0 -35 19 -58 96 -92c91 -38 132 -77 132 -147c0 -91 -75 -137 -166 -137c-52 0 -98 11 -125 28c-4 2 -5 4 -5 8v55c0 4 3 6 6 3c36 -26 83 -37 126 -37c66 0 99 32 99 73s-23 65 -94 97c-90 37 -132 76 -132 145
c0 71 59 129 157 129c52 0 90 -10 109 -21c3 -2 4 -5 4 -9v-50c0 -4 -3 -6 -7 -4zM139 559l103 141c2 3 5 6 8 6h62c5 0 6 -3 4 -6l-114 -142c-2 -3 -4 -4 -8 -4h-52c-3 0 -4 2 -3 5z" />
    <glyph glyph-name="scircumflex" unicode="&#x15d;" horiz-adv-x="375" 
d="M307 408c-26 17 -68 28 -108 28c-68 0 -92 -36 -92 -69c0 -35 19 -58 96 -92c91 -38 132 -77 132 -147c0 -91 -75 -137 -166 -137c-52 0 -98 11 -125 28c-4 2 -5 4 -5 8v55c0 4 3 6 6 3c36 -26 83 -37 126 -37c66 0 99 32 99 73s-23 65 -94 97c-90 37 -132 76 -132 145
c0 71 59 129 157 129c52 0 90 -10 109 -21c3 -2 4 -5 4 -9v-50c0 -4 -3 -6 -7 -4zM256 557l-72 105l-70 -106c-1 -1 -2 -3 -7 -3h-44c-4 0 -4 4 -3 6l93 136c2 3 3 4 6 4h53c4 0 6 -2 7 -5l95 -135c3 -3 1 -6 -3 -6h-48c-4 0 -6 2 -7 4z" />
    <glyph glyph-name="uni1E61" unicode="&#x1e61;" horiz-adv-x="375" 
d="M307 408c-26 17 -68 28 -108 28c-68 0 -92 -36 -92 -69c0 -35 19 -58 96 -92c91 -38 132 -77 132 -147c0 -91 -75 -137 -166 -137c-52 0 -98 11 -125 28c-4 2 -5 4 -5 8v55c0 4 3 6 6 3c36 -26 83 -37 126 -37c66 0 99 32 99 73s-23 65 -94 97c-90 37 -132 76 -132 145
c0 71 59 129 157 129c52 0 90 -10 109 -21c3 -2 4 -5 4 -9v-50c0 -4 -3 -6 -7 -4zM187 592c-26 0 -42 17 -42 42s17 43 42 43c26 0 41 -19 41 -43c0 -25 -16 -42 -41 -42z" />
    <glyph glyph-name="scaron" unicode="&#x161;" horiz-adv-x="375" 
d="M307 408c-26 17 -68 28 -108 28c-68 0 -92 -36 -92 -69c0 -35 19 -58 96 -92c91 -38 132 -77 132 -147c0 -91 -75 -137 -166 -137c-52 0 -98 11 -125 28c-4 2 -5 4 -5 8v55c0 4 3 6 6 3c36 -26 83 -37 126 -37c66 0 99 32 99 73s-23 65 -94 97c-90 37 -132 76 -132 145
c0 71 59 129 157 129c52 0 90 -10 109 -21c3 -2 4 -5 4 -9v-50c0 -4 -3 -6 -7 -4zM116 696l72 -105l69 106c1 1 3 3 7 3h44c4 0 5 -4 3 -6l-93 -136c-2 -3 -3 -3 -5 -3h-53c-5 0 -6 1 -8 4l-95 136c-2 2 0 5 3 5h48c4 0 6 -2 8 -4z" />
    <glyph glyph-name="uni1E63" unicode="&#x1e63;" horiz-adv-x="375" 
d="M307 408c-26 17 -68 28 -108 28c-68 0 -92 -36 -92 -69c0 -35 19 -58 96 -92c91 -38 132 -77 132 -147c0 -91 -75 -137 -166 -137c-52 0 -98 11 -125 28c-4 2 -5 4 -5 8v55c0 4 3 6 6 3c36 -26 83 -37 126 -37c66 0 99 32 99 73s-23 65 -94 97c-90 37 -132 76 -132 145
c0 71 59 129 157 129c52 0 90 -10 109 -21c3 -2 4 -5 4 -9v-50c0 -4 -3 -6 -7 -4zM179 -171c-25 0 -42 19 -42 42c0 25 18 43 43 43s41 -19 41 -42c0 -24 -15 -43 -42 -43z" />
    <glyph glyph-name="uni0219" unicode="&#x219;" horiz-adv-x="375" 
d="M307 408c-26 17 -68 28 -108 28c-68 0 -92 -36 -92 -69c0 -35 19 -58 96 -92c91 -38 132 -77 132 -147c0 -91 -75 -137 -166 -137c-52 0 -98 11 -125 28c-4 2 -5 4 -5 8v55c0 4 3 6 6 3c36 -26 83 -37 126 -37c66 0 99 32 99 73s-23 65 -94 97c-90 37 -132 76 -132 145
c0 71 59 129 157 129c52 0 90 -10 109 -21c3 -2 4 -5 4 -9v-50c0 -4 -3 -6 -7 -4zM172 -234h-49c-3 0 -5 3 -3 6c27 46 37 78 37 117c0 18 -5 36 -12 56c-1 2 0 5 3 5h53c3 0 5 -1 7 -4c6 -11 12 -34 12 -51c0 -54 -16 -88 -42 -126c-1 -1 -3 -3 -6 -3z" />
    <glyph glyph-name="uni015F" unicode="&#x15f;" horiz-adv-x="375" 
d="M307 408c-26 17 -68 28 -108 28c-68 0 -92 -36 -92 -69c0 -35 19 -58 96 -92c91 -38 132 -77 132 -147c0 -77 -53 -121 -124 -134l-28 -40c59 -16 82 -48 82 -87c0 -51 -42 -82 -97 -82c-26 0 -49 5 -64 13c-3 2 -4 3 -4 7v33c0 3 1 4 5 4c19 -10 41 -14 60 -14
c29 0 48 11 48 37c0 29 -28 48 -90 57c-3 1 -2 12 -1 15l38 54c-48 1 -91 12 -116 28c-4 2 -5 4 -5 8v55c0 4 3 6 6 3c36 -26 83 -37 126 -37c66 0 99 32 99 73s-23 65 -94 97c-90 37 -132 76 -132 145c0 71 59 129 157 129c52 0 90 -10 109 -21c3 -2 4 -5 4 -9v-50
c0 -4 -3 -6 -7 -4z" />
    <glyph glyph-name="uni1E97" unicode="&#x1e97;" horiz-adv-x="293" 
d="M271 53v-41c0 -3 0 -6 -4 -8c-21 -10 -45 -13 -69 -13c-67 0 -107 33 -107 125v309h-69c-5 0 -6 2 -6 7v45c0 4 1 6 6 6h69c0 37 4 108 8 128c1 4 2 6 5 7l53 9c4 1 6 0 6 -3c-3 -34 -6 -90 -6 -141h105c5 0 6 -2 6 -6v-47c0 -4 -2 -5 -6 -5h-105v-303
c0 -46 17 -74 61 -74c15 0 30 2 48 9c3 1 5 0 5 -4zM49 665c-22 0 -38 15 -38 39c0 25 18 40 39 40s37 -16 37 -40s-17 -39 -38 -39zM221 665c-21 0 -37 15 -37 39c0 25 17 40 38 40c22 0 37 -16 37 -40c0 -23 -16 -39 -38 -39z" />
    <glyph glyph-name="tcaron" unicode="&#x165;" horiz-adv-x="293" 
d="M228 583l2 173c0 5 2 7 6 7h45c6 0 7 -2 7 -7l-12 -173c-1 -5 -2 -7 -7 -7h-35c-4 0 -6 2 -6 7zM271 53v-41c0 -3 0 -6 -4 -8c-21 -10 -45 -13 -69 -13c-67 0 -107 33 -107 125v309h-69c-5 0 -6 2 -6 7v45c0 4 1 6 6 6h69c0 37 4 108 8 128c1 4 2 6 5 7l53 9
c4 1 6 0 6 -3c-3 -34 -6 -90 -6 -141h105c5 0 6 -2 6 -6v-47c0 -4 -2 -5 -6 -5h-105v-303c0 -46 17 -74 61 -74c15 0 30 2 48 9c3 1 5 0 5 -4z" />
    <glyph glyph-name="uni1E6D" unicode="&#x1e6d;" horiz-adv-x="293" 
d="M271 53v-41c0 -3 0 -6 -4 -8c-21 -10 -45 -13 -69 -13c-67 0 -107 33 -107 125v309h-69c-5 0 -6 2 -6 7v45c0 4 1 6 6 6h69c0 37 4 108 8 128c1 4 2 6 5 7l53 9c4 1 6 0 6 -3c-3 -34 -6 -90 -6 -141h105c5 0 6 -2 6 -6v-47c0 -4 -2 -5 -6 -5h-105v-303
c0 -46 17 -74 61 -74c15 0 30 2 48 9c3 1 5 0 5 -4zM167 -174c-25 0 -42 19 -42 42c0 25 18 43 43 43s41 -19 41 -42c0 -24 -15 -43 -42 -43z" />
    <glyph glyph-name="uni021B" unicode="&#x21b;" horiz-adv-x="293" 
d="M271 53v-41c0 -3 0 -6 -4 -8c-21 -10 -45 -13 -69 -13c-67 0 -107 33 -107 125v309h-69c-5 0 -6 2 -6 7v45c0 4 1 6 6 6h69c0 37 4 108 8 128c1 4 2 6 5 7l53 9c4 1 6 0 6 -3c-3 -34 -6 -90 -6 -141h105c5 0 6 -2 6 -6v-47c0 -4 -2 -5 -6 -5h-105v-303
c0 -46 17 -74 61 -74c15 0 30 2 48 9c3 1 5 0 5 -4zM160 -241h-49c-3 0 -5 3 -3 6c27 46 37 78 37 117c0 18 -5 36 -12 56c-1 2 0 5 3 5h53c3 0 5 -1 7 -4c6 -11 12 -34 12 -51c0 -54 -16 -88 -42 -126c-1 -1 -3 -3 -6 -3z" />
    <glyph glyph-name="uni0163" unicode="&#x163;" horiz-adv-x="293" 
d="M271 53v-41c0 -3 0 -6 -4 -8c-19 -9 -40 -12 -62 -13l-25 -37c59 -16 82 -48 82 -87c0 -51 -42 -82 -97 -82c-26 0 -49 5 -64 13c-3 2 -4 3 -4 7v33c0 3 1 4 5 4c19 -10 41 -14 60 -14c29 0 48 11 48 37c0 29 -28 48 -90 57c-3 1 -2 12 -1 15l41 58
c-44 12 -69 48 -69 121v309h-69c-5 0 -6 2 -6 7v45c0 4 1 6 6 6h69c0 37 4 108 8 128c1 4 2 6 5 7l53 9c4 1 6 0 6 -3c-3 -34 -6 -90 -6 -141h105c5 0 6 -2 6 -6v-47c0 -4 -2 -5 -6 -5h-105v-303c0 -46 17 -74 61 -74c15 0 30 2 48 9c3 1 5 0 5 -4z" />
    <glyph glyph-name="uni1E6F" unicode="&#x1e6f;" horiz-adv-x="293" 
d="M271 53v-41c0 -3 0 -6 -4 -8c-21 -10 -45 -13 -69 -13c-67 0 -107 33 -107 125v309h-69c-5 0 -6 2 -6 7v45c0 4 1 6 6 6h69c0 37 4 108 8 128c1 4 2 6 5 7l53 9c4 1 6 0 6 -3c-3 -34 -6 -90 -6 -141h105c5 0 6 -2 6 -6v-47c0 -4 -2 -5 -6 -5h-105v-303
c0 -46 17 -74 61 -74c15 0 30 2 48 9c3 1 5 0 5 -4zM57 -100h227c2 0 4 -1 4 -5v-42c0 -4 -2 -5 -5 -5h-226c-4 0 -5 2 -5 5v43c0 3 2 4 5 4z" />
    <glyph glyph-name="ugrave" unicode="&#xf9;" horiz-adv-x="520" 
d="M439 477v-375c0 -49 3 -76 5 -96c1 -5 -1 -6 -5 -6h-50c-4 0 -5 1 -7 5c-2 11 -5 30 -5 43c-40 -41 -91 -57 -141 -57c-76 0 -157 36 -157 180v306c0 4 2 6 6 6h55c4 0 5 -2 5 -6v-298c0 -82 38 -129 108 -129c50 0 90 19 120 55v372c0 4 2 6 6 6h55c4 0 5 -2 5 -6z
M201 701l106 -142c2 -3 0 -5 -3 -5h-54c-4 0 -6 1 -7 4l-119 141c-1 3 0 6 3 6h67c3 0 5 -1 7 -4z" />
    <glyph glyph-name="uacute" unicode="&#xfa;" horiz-adv-x="520" 
d="M439 477v-375c0 -49 3 -76 5 -96c1 -5 -1 -6 -5 -6h-50c-4 0 -5 1 -7 5c-2 11 -5 30 -5 43c-40 -41 -91 -57 -141 -57c-76 0 -157 36 -157 180v306c0 4 2 6 6 6h55c4 0 5 -2 5 -6v-298c0 -82 38 -129 108 -129c50 0 90 19 120 55v372c0 4 2 6 6 6h55c4 0 5 -2 5 -6z
M218 559l103 141c2 3 5 6 8 6h62c5 0 6 -3 4 -6l-114 -142c-2 -3 -4 -4 -8 -4h-52c-3 0 -4 2 -3 5z" />
    <glyph glyph-name="ucircumflex" unicode="&#xfb;" horiz-adv-x="520" 
d="M439 477v-375c0 -49 3 -76 5 -96c1 -5 -1 -6 -5 -6h-50c-4 0 -5 1 -7 5c-2 11 -5 30 -5 43c-40 -41 -91 -57 -141 -57c-76 0 -157 36 -157 180v306c0 4 2 6 6 6h55c4 0 5 -2 5 -6v-298c0 -82 38 -129 108 -129c50 0 90 19 120 55v372c0 4 2 6 6 6h55c4 0 5 -2 5 -6z
M329 558l-72 105l-70 -106c-1 -1 -2 -3 -7 -3h-44c-4 0 -4 4 -3 6l93 136c2 3 3 4 6 4h53c4 0 6 -2 7 -5l95 -135c3 -3 1 -6 -3 -6h-48c-4 0 -6 2 -7 4z" />
    <glyph glyph-name="utilde" unicode="&#x169;" horiz-adv-x="520" 
d="M439 477v-375c0 -49 3 -76 5 -96c1 -5 -1 -6 -5 -6h-50c-4 0 -5 1 -7 5c-2 11 -5 30 -5 43c-40 -41 -91 -57 -141 -57c-76 0 -157 36 -157 180v306c0 4 2 6 6 6h55c4 0 5 -2 5 -6v-298c0 -82 38 -129 108 -129c50 0 90 19 120 55v372c0 4 2 6 6 6h55c4 0 5 -2 5 -6z
M151 571h-38c-5 0 -5 3 -5 6c4 63 37 99 87 99c58 0 98 -53 133 -53c25 0 35 17 38 46c0 3 1 5 5 5h38c4 0 5 -1 5 -4c-5 -73 -36 -101 -82 -101c-53 0 -92 55 -134 55c-24 0 -39 -15 -43 -48c0 -2 -1 -5 -4 -5z" />
    <glyph glyph-name="umacron" unicode="&#x16b;" horiz-adv-x="520" 
d="M439 477v-375c0 -49 3 -76 5 -96c1 -5 -1 -6 -5 -6h-50c-4 0 -5 1 -7 5c-2 11 -5 30 -5 43c-40 -41 -91 -57 -141 -57c-76 0 -157 36 -157 180v306c0 4 2 6 6 6h55c4 0 5 -2 5 -6v-298c0 -82 38 -129 108 -129c50 0 90 19 120 55v372c0 4 2 6 6 6h55c4 0 5 -2 5 -6z
M141 654h242c3 0 5 -2 5 -5v-42c0 -3 -2 -5 -5 -5h-242c-4 0 -4 2 -4 5v42c0 4 1 5 4 5z" />
    <glyph glyph-name="ubreve" unicode="&#x16d;" horiz-adv-x="520" 
d="M439 477v-375c0 -49 3 -76 5 -96c1 -5 -1 -6 -5 -6h-50c-4 0 -5 1 -7 5c-2 11 -5 30 -5 43c-40 -41 -91 -57 -141 -57c-76 0 -157 36 -157 180v306c0 4 2 6 6 6h55c4 0 5 -2 5 -6v-298c0 -82 38 -129 108 -129c50 0 90 19 120 55v372c0 4 2 6 6 6h55c4 0 5 -2 5 -6z
M127 679h45c2 0 4 -1 5 -4c12 -37 38 -62 84 -62c40 0 73 18 86 61c1 4 2 5 5 5h44c4 0 4 -3 4 -5c-12 -68 -62 -114 -139 -114c-73 0 -124 39 -138 114c-1 4 1 5 4 5z" />
    <glyph glyph-name="udieresis" unicode="&#xfc;" horiz-adv-x="520" 
d="M439 477v-375c0 -49 3 -76 5 -96c1 -5 -1 -6 -5 -6h-50c-4 0 -5 1 -7 5c-2 11 -5 30 -5 43c-40 -41 -91 -57 -141 -57c-76 0 -157 36 -157 180v306c0 4 2 6 6 6h55c4 0 5 -2 5 -6v-298c0 -82 38 -129 108 -129c50 0 90 19 120 55v372c0 4 2 6 6 6h55c4 0 5 -2 5 -6z
M175 593c-22 0 -38 15 -38 39c0 25 18 40 39 40s37 -16 37 -40s-17 -39 -38 -39zM347 593c-21 0 -37 15 -37 39c0 25 17 40 38 40c22 0 37 -16 37 -40c0 -23 -16 -39 -38 -39z" />
    <glyph glyph-name="uni1EE7" unicode="&#x1ee7;" horiz-adv-x="520" 
d="M439 477v-375c0 -49 3 -76 5 -96c1 -5 -1 -6 -5 -6h-50c-4 0 -5 1 -7 5c-2 11 -5 30 -5 43c-40 -41 -91 -57 -141 -57c-76 0 -157 36 -157 180v306c0 4 2 6 6 6h55c4 0 5 -2 5 -6v-298c0 -82 38 -129 108 -129c50 0 90 19 120 55v372c0 4 2 6 6 6h55c4 0 5 -2 5 -6z
M179 656v35c0 2 1 4 3 6c21 12 48 19 77 19c54 0 87 -32 87 -78c0 -59 -62 -98 -104 -113c-2 0 -4 0 -5 3v35c0 4 2 5 4 6c30 19 50 39 50 65c0 20 -14 36 -42 36c-24 0 -41 -5 -64 -17c-3 -2 -6 0 -6 3z" />
    <glyph glyph-name="uring" unicode="&#x16f;" horiz-adv-x="520" 
d="M439 477v-375c0 -49 3 -76 5 -96c1 -5 -1 -6 -5 -6h-50c-4 0 -5 1 -7 5c-2 11 -5 30 -5 43c-40 -41 -91 -57 -141 -57c-76 0 -157 36 -157 180v306c0 4 2 6 6 6h55c4 0 5 -2 5 -6v-298c0 -82 38 -129 108 -129c50 0 90 19 120 55v372c0 4 2 6 6 6h55c4 0 5 -2 5 -6z
M168 630c0 53 39 87 93 87c53 0 94 -34 94 -87c0 -54 -41 -88 -94 -88c-54 0 -93 33 -93 88zM210 630c0 -31 22 -51 51 -51c28 0 51 19 51 51s-23 51 -51 51c-29 0 -51 -19 -51 -51z" />
    <glyph glyph-name="uhungarumlaut" unicode="&#x171;" horiz-adv-x="520" 
d="M439 477v-375c0 -49 3 -76 5 -96c1 -5 -1 -6 -5 -6h-50c-4 0 -5 1 -7 5c-2 11 -5 30 -5 43c-40 -41 -91 -57 -141 -57c-76 0 -157 36 -157 180v306c0 4 2 6 6 6h55c4 0 5 -2 5 -6v-298c0 -82 38 -129 108 -129c50 0 90 19 120 55v372c0 4 2 6 6 6h55c4 0 5 -2 5 -6z
M153 561l75 139c2 3 4 5 9 5h49c4 0 6 -3 4 -6l-84 -141c-2 -3 -3 -4 -9 -4h-40c-4 0 -5 3 -4 7zM300 562l75 139c2 3 4 4 8 4h50c4 0 5 -3 4 -6l-84 -140c-2 -3 -4 -5 -10 -5h-39c-5 0 -7 3 -4 8z" />
    <glyph glyph-name="uni01D4" unicode="&#x1d4;" horiz-adv-x="520" 
d="M439 477v-375c0 -49 3 -76 5 -96c1 -5 -1 -6 -5 -6h-50c-4 0 -5 1 -7 5c-2 11 -5 30 -5 43c-40 -41 -91 -57 -141 -57c-76 0 -157 36 -157 180v306c0 4 2 6 6 6h55c4 0 5 -2 5 -6v-298c0 -82 38 -129 108 -129c50 0 90 19 120 55v372c0 4 2 6 6 6h55c4 0 5 -2 5 -6z
M192 696l72 -105l69 106c1 1 3 3 7 3h44c4 0 5 -4 3 -6l-93 -136c-2 -3 -3 -3 -5 -3h-53c-5 0 -6 1 -8 4l-95 136c-2 2 0 5 3 5h48c4 0 6 -2 8 -4z" />
    <glyph glyph-name="uni1EE5" unicode="&#x1ee5;" horiz-adv-x="520" 
d="M439 477v-375c0 -49 3 -76 5 -96c1 -5 -1 -6 -5 -6h-50c-4 0 -5 1 -7 5c-2 11 -5 30 -5 43c-40 -41 -91 -57 -141 -57c-76 0 -157 36 -157 180v306c0 4 2 6 6 6h55c4 0 5 -2 5 -6v-298c0 -82 38 -129 108 -129c50 0 90 19 120 55v372c0 4 2 6 6 6h55c4 0 5 -2 5 -6z
M262 -168c-25 0 -42 19 -42 42c0 25 18 43 43 43s41 -19 41 -42c0 -24 -15 -43 -42 -43z" />
    <glyph glyph-name="uni01DC" unicode="&#x1dc;" horiz-adv-x="520" 
d="M439 477v-375c0 -49 3 -76 5 -96c1 -5 -1 -6 -5 -6h-50c-4 0 -5 1 -7 5c-2 11 -5 30 -5 43c-40 -41 -91 -57 -141 -57c-76 0 -157 36 -157 180v306c0 4 2 6 6 6h55c4 0 5 -2 5 -6v-298c0 -82 38 -129 108 -129c50 0 90 19 120 55v372c0 4 2 6 6 6h55c4 0 5 -2 5 -6z
M222 744l75 -97c1 -3 0 -5 -3 -5h-50c-4 0 -6 1 -7 4l-82 97c-2 3 -1 5 2 5h58c3 0 5 -1 7 -4zM177 549c-20 0 -34 12 -34 32c0 21 15 33 34 33s33 -13 33 -33s-15 -32 -33 -32zM342 549c-19 0 -33 12 -33 32c0 21 15 33 34 33c20 0 33 -13 33 -33c0 -19 -14 -32 -34 -32z
" />
    <glyph glyph-name="uni01D8" unicode="&#x1d8;" horiz-adv-x="520" 
d="M439 477v-375c0 -49 3 -76 5 -96c1 -5 -1 -6 -5 -6h-50c-4 0 -5 1 -7 5c-2 11 -5 30 -5 43c-40 -41 -91 -57 -141 -57c-76 0 -157 36 -157 180v306c0 4 2 6 6 6h55c4 0 5 -2 5 -6v-298c0 -82 38 -129 108 -129c50 0 90 19 120 55v372c0 4 2 6 6 6h55c4 0 5 -2 5 -6z
M225 647l71 98c2 3 4 4 7 4h56c4 0 5 -2 3 -5l-78 -98c-1 -3 -3 -4 -6 -4h-50c-3 0 -4 2 -3 5zM177 549c-20 0 -34 12 -34 32c0 21 15 33 34 33s33 -13 33 -33s-15 -32 -33 -32zM342 549c-19 0 -33 12 -33 32c0 21 15 33 34 33c20 0 33 -13 33 -33c0 -19 -14 -32 -34 -32z
" />
    <glyph glyph-name="uni01D6" unicode="&#x1d6;" horiz-adv-x="520" 
d="M439 477v-375c0 -49 3 -76 5 -96c1 -5 -1 -6 -5 -6h-50c-4 0 -5 1 -7 5c-2 11 -5 30 -5 43c-40 -41 -91 -57 -141 -57c-76 0 -157 36 -157 180v306c0 4 2 6 6 6h55c4 0 5 -2 5 -6v-298c0 -82 38 -129 108 -129c50 0 90 19 120 55v372c0 4 2 6 6 6h55c4 0 5 -2 5 -6z
M176 550c-20 0 -34 13 -34 33c0 21 16 34 35 34c20 0 34 -14 34 -34c0 -21 -16 -33 -35 -33zM342 550c-19 0 -34 12 -34 33s16 34 35 34c20 0 34 -14 34 -34s-14 -33 -35 -33zM145 714h231c3 0 5 -1 5 -5v-34c0 -3 -2 -5 -5 -5h-231c-4 0 -4 3 -4 6v34c0 3 1 4 4 4z" />
    <glyph glyph-name="uni01DA" unicode="&#x1da;" horiz-adv-x="520" 
d="M439 477v-375c0 -49 3 -76 5 -96c1 -5 -1 -6 -5 -6h-50c-4 0 -5 1 -7 5c-2 11 -5 30 -5 43c-40 -41 -91 -57 -141 -57c-76 0 -157 36 -157 180v306c0 4 2 6 6 6h55c4 0 5 -2 5 -6v-298c0 -82 38 -129 108 -129c50 0 90 19 120 55v372c0 4 2 6 6 6h55c4 0 5 -2 5 -6z
M177 547c-20 0 -34 12 -34 32c0 21 15 33 34 33s33 -13 33 -33s-15 -32 -33 -32zM342 547c-19 0 -33 12 -33 32s15 33 34 33c20 0 33 -14 33 -33s-14 -32 -34 -32zM260 671c15 15 48 45 63 61c2 2 4 3 9 3h49c3 0 5 -4 2 -6l-88 -85c-3 -4 -6 -4 -8 -4h-56c-5 0 -7 1 -9 4
l-92 86c-2 3 0 5 4 5h54c4 0 6 -2 8 -4c17 -16 48 -45 64 -60z" />
    <glyph glyph-name="uni1EEB" unicode="&#x1eeb;" horiz-adv-x="520" 
d="M451 589h48c5 0 6 -2 8 -7c3 -10 5 -24 5 -42c0 -51 -27 -87 -73 -97v-341c0 -49 3 -76 5 -96c1 -5 -1 -6 -5 -6h-50c-4 0 -5 1 -7 5c-2 11 -5 30 -5 43c-40 -41 -91 -57 -141 -57c-76 0 -157 36 -157 180v306c0 4 2 6 6 6h55c4 0 5 -2 5 -6v-298c0 -82 38 -129 108 -129
c50 0 90 19 120 55v372c0 4 2 6 6 6h24c38 0 50 23 50 56c0 11 -3 29 -6 43c-1 4 0 7 4 7zM207 695l106 -142c2 -3 0 -5 -3 -5h-54c-4 0 -6 1 -7 4l-119 141c-1 3 0 6 3 6h67c3 0 5 -1 7 -4z" />
    <glyph glyph-name="uni1EE9" unicode="&#x1ee9;" horiz-adv-x="520" 
d="M451 589h48c5 0 6 -2 8 -7c3 -10 5 -24 5 -42c0 -51 -27 -87 -73 -97v-341c0 -49 3 -76 5 -96c1 -5 -1 -6 -5 -6h-50c-4 0 -5 1 -7 5c-2 11 -5 30 -5 43c-40 -41 -91 -57 -141 -57c-76 0 -157 36 -157 180v306c0 4 2 6 6 6h55c4 0 5 -2 5 -6v-298c0 -82 38 -129 108 -129
c50 0 90 19 120 55v372c0 4 2 6 6 6h24c38 0 50 23 50 56c0 11 -3 29 -6 43c-1 4 0 7 4 7zM217 555l103 141c2 3 5 6 8 6h62c5 0 6 -3 4 -6l-114 -142c-2 -3 -4 -4 -8 -4h-52c-3 0 -4 2 -3 5z" />
    <glyph glyph-name="uni1EEF" unicode="&#x1eef;" horiz-adv-x="520" 
d="M451 589h48c5 0 6 -2 8 -7c3 -10 5 -24 5 -42c0 -51 -27 -87 -73 -97v-341c0 -49 3 -76 5 -96c1 -5 -1 -6 -5 -6h-50c-4 0 -5 1 -7 5c-2 11 -5 30 -5 43c-40 -41 -91 -57 -141 -57c-76 0 -157 36 -157 180v306c0 4 2 6 6 6h55c4 0 5 -2 5 -6v-298c0 -82 38 -129 108 -129
c50 0 90 19 120 55v372c0 4 2 6 6 6h24c38 0 50 23 50 56c0 11 -3 29 -6 43c-1 4 0 7 4 7zM152 571h-38c-5 0 -5 3 -5 6c4 63 37 99 87 99c58 0 98 -53 133 -53c25 0 35 17 38 46c0 3 1 5 5 5h38c4 0 5 -1 5 -4c-5 -73 -36 -101 -82 -101c-53 0 -92 55 -134 55
c-24 0 -39 -15 -43 -48c0 -2 -1 -5 -4 -5z" />
    <glyph glyph-name="uni1EED" unicode="&#x1eed;" horiz-adv-x="520" 
d="M451 589h48c5 0 6 -2 8 -7c3 -10 5 -24 5 -42c0 -51 -27 -87 -73 -97v-341c0 -49 3 -76 5 -96c1 -5 -1 -6 -5 -6h-50c-4 0 -5 1 -7 5c-2 11 -5 30 -5 43c-40 -41 -91 -57 -141 -57c-76 0 -157 36 -157 180v306c0 4 2 6 6 6h55c4 0 5 -2 5 -6v-298c0 -82 38 -129 108 -129
c50 0 90 19 120 55v372c0 4 2 6 6 6h24c38 0 50 23 50 56c0 11 -3 29 -6 43c-1 4 0 7 4 7zM181 663v35c0 2 1 4 3 6c21 12 48 19 77 19c54 0 87 -32 87 -78c0 -59 -62 -98 -104 -113c-2 0 -4 0 -5 3v35c0 4 2 5 4 6c30 19 50 39 50 65c0 20 -14 36 -42 36
c-24 0 -41 -5 -64 -17c-3 -2 -6 0 -6 3z" />
    <glyph glyph-name="uni1EF1" unicode="&#x1ef1;" horiz-adv-x="520" 
d="M451 589h48c5 0 6 -2 8 -7c3 -10 5 -24 5 -42c0 -51 -27 -87 -73 -97v-341c0 -49 3 -76 5 -96c1 -5 -1 -6 -5 -6h-50c-4 0 -5 1 -7 5c-2 11 -5 30 -5 43c-40 -41 -91 -57 -141 -57c-76 0 -157 36 -157 180v306c0 4 2 6 6 6h55c4 0 5 -2 5 -6v-298c0 -82 38 -129 108 -129
c50 0 90 19 120 55v372c0 4 2 6 6 6h24c38 0 50 23 50 56c0 11 -3 29 -6 43c-1 4 0 7 4 7zM261 -180c-25 0 -42 19 -42 42c0 25 18 43 43 43s41 -19 41 -42c0 -24 -15 -43 -42 -43z" />
    <glyph glyph-name="wgrave" unicode="&#x1e81;" horiz-adv-x="702" 
d="M529 0h-64c-4 0 -6 2 -8 6c-77 281 -97 363 -107 410h-1c-16 -68 -53 -195 -115 -410c-1 -5 -4 -6 -9 -6h-62c-7 0 -8 2 -10 6l-126 470c-1 4 1 7 5 7h58c3 0 5 -1 6 -5c75 -280 95 -382 102 -416h2c8 37 28 124 115 414c1 5 2 7 7 7h65c3 0 4 -2 5 -6
c84 -299 101 -377 108 -415h2c9 42 24 123 108 416c1 3 3 5 6 5h55c3 0 5 -2 4 -6l-138 -471c-2 -4 -3 -6 -8 -6zM288 701l106 -142c2 -3 0 -5 -3 -5h-54c-4 0 -6 1 -7 4l-119 141c-1 3 0 6 3 6h67c3 0 5 -1 7 -4z" />
    <glyph glyph-name="wacute" unicode="&#x1e83;" horiz-adv-x="702" 
d="M529 0h-64c-4 0 -6 2 -8 6c-77 281 -97 363 -107 410h-1c-16 -68 -53 -195 -115 -410c-1 -5 -4 -6 -9 -6h-62c-7 0 -8 2 -10 6l-126 470c-1 4 1 7 5 7h58c3 0 5 -1 6 -5c75 -280 95 -382 102 -416h2c8 37 28 124 115 414c1 5 2 7 7 7h65c3 0 4 -2 5 -6
c84 -299 101 -377 108 -415h2c9 42 24 123 108 416c1 3 3 5 6 5h55c3 0 5 -2 4 -6l-138 -471c-2 -4 -3 -6 -8 -6zM309 559l103 141c2 3 5 6 8 6h62c5 0 6 -3 4 -6l-114 -142c-2 -3 -4 -4 -8 -4h-52c-3 0 -4 2 -3 5z" />
    <glyph glyph-name="wcircumflex" unicode="&#x175;" horiz-adv-x="702" 
d="M529 0h-64c-4 0 -6 2 -8 6c-77 281 -97 363 -107 410h-1c-16 -68 -53 -195 -115 -410c-1 -5 -4 -6 -9 -6h-62c-7 0 -8 2 -10 6l-126 470c-1 4 1 7 5 7h58c3 0 5 -1 6 -5c75 -280 95 -382 102 -416h2c8 37 28 124 115 414c1 5 2 7 7 7h65c3 0 4 -2 5 -6
c84 -299 101 -377 108 -415h2c9 42 24 123 108 416c1 3 3 5 6 5h55c3 0 5 -2 4 -6l-138 -471c-2 -4 -3 -6 -8 -6zM421 557l-72 105l-70 -106c-1 -1 -2 -3 -7 -3h-44c-4 0 -4 4 -3 6l93 136c2 3 3 4 6 4h53c4 0 6 -2 7 -5l95 -135c3 -3 1 -6 -3 -6h-48c-4 0 -6 2 -7 4z" />
    <glyph glyph-name="wdieresis" unicode="&#x1e85;" horiz-adv-x="702" 
d="M529 0h-64c-4 0 -6 2 -8 6c-77 281 -97 363 -107 410h-1c-16 -68 -53 -195 -115 -410c-1 -5 -4 -6 -9 -6h-62c-7 0 -8 2 -10 6l-126 470c-1 4 1 7 5 7h58c3 0 5 -1 6 -5c75 -280 95 -382 102 -416h2c8 37 28 124 115 414c1 5 2 7 7 7h65c3 0 4 -2 5 -6
c84 -299 101 -377 108 -415h2c9 42 24 123 108 416c1 3 3 5 6 5h55c3 0 5 -2 4 -6l-138 -471c-2 -4 -3 -6 -8 -6zM267 593c-22 0 -38 15 -38 39c0 25 18 40 39 40s37 -16 37 -40s-17 -39 -38 -39zM439 593c-21 0 -37 15 -37 39c0 25 17 40 38 40c22 0 37 -16 37 -40
c0 -23 -16 -39 -38 -39z" />
    <glyph glyph-name="ygrave" unicode="&#x1ef3;" horiz-adv-x="453" 
d="M23 483h61c3 0 5 -2 6 -5c88 -238 128 -349 141 -392c30 86 74 212 138 392c2 3 4 5 7 5h55c4 0 5 -3 4 -7c-73 -221 -168 -465 -265 -686c-1 -4 -4 -6 -9 -6l-58 -5c-5 0 -5 2 -3 7c28 60 64 144 96 223c2 3 2 6 0 11c-25 67 -118 301 -177 457c-2 4 0 6 4 6zM175 701
l106 -142c2 -3 0 -5 -3 -5h-54c-4 0 -6 1 -7 4l-119 141c-1 3 0 6 3 6h67c3 0 5 -1 7 -4z" />
    <glyph glyph-name="yacute" unicode="&#xfd;" horiz-adv-x="453" 
d="M23 483h61c3 0 5 -2 6 -5c88 -238 128 -349 141 -392c30 86 74 212 138 392c2 3 4 5 7 5h55c4 0 5 -3 4 -7c-73 -221 -168 -465 -265 -686c-1 -4 -4 -6 -9 -6l-58 -5c-5 0 -5 2 -3 7c28 60 64 144 96 223c2 3 2 6 0 11c-25 67 -118 301 -177 457c-2 4 0 6 4 6zM186 559
l103 141c2 3 5 6 8 6h62c5 0 6 -3 4 -6l-114 -142c-2 -3 -4 -4 -8 -4h-52c-3 0 -4 2 -3 5z" />
    <glyph glyph-name="ycircumflex" unicode="&#x177;" horiz-adv-x="453" 
d="M23 483h61c3 0 5 -2 6 -5c88 -238 128 -349 141 -392c30 86 74 212 138 392c2 3 4 5 7 5h55c4 0 5 -3 4 -7c-73 -221 -168 -465 -265 -686c-1 -4 -4 -6 -9 -6l-58 -5c-5 0 -5 2 -3 7c28 60 64 144 96 223c2 3 2 6 0 11c-25 67 -118 301 -177 457c-2 4 0 6 4 6zM295 557
l-72 105l-70 -106c-1 -1 -2 -3 -7 -3h-44c-4 0 -4 4 -3 6l93 136c2 3 3 4 6 4h53c4 0 6 -2 7 -5l95 -135c3 -3 1 -6 -3 -6h-48c-4 0 -6 2 -7 4z" />
    <glyph glyph-name="uni1EF9" unicode="&#x1ef9;" horiz-adv-x="453" 
d="M23 483h61c3 0 5 -2 6 -5c88 -238 128 -349 141 -392c30 86 74 212 138 392c2 3 4 5 7 5h55c4 0 5 -3 4 -7c-73 -221 -168 -465 -265 -686c-1 -4 -4 -6 -9 -6l-58 -5c-5 0 -5 2 -3 7c28 60 64 144 96 223c2 3 2 6 0 11c-25 67 -118 301 -177 457c-2 4 0 6 4 6zM118 571
h-38c-5 0 -5 3 -5 6c4 63 37 99 87 99c58 0 98 -53 133 -53c25 0 35 17 38 46c0 3 1 5 5 5h38c4 0 5 -1 5 -4c-5 -73 -36 -101 -82 -101c-53 0 -92 55 -134 55c-24 0 -39 -15 -43 -48c0 -2 -1 -5 -4 -5z" />
    <glyph glyph-name="uni1E8F" unicode="&#x1e8f;" horiz-adv-x="453" 
d="M23 483h61c3 0 5 -2 6 -5c88 -238 128 -349 141 -392c30 86 74 212 138 392c2 3 4 5 7 5h55c4 0 5 -3 4 -7c-73 -221 -168 -465 -265 -686c-1 -4 -4 -6 -9 -6l-58 -5c-5 0 -5 2 -3 7c28 60 64 144 96 223c2 3 2 6 0 11c-25 67 -118 301 -177 457c-2 4 0 6 4 6zM228 590
c-26 0 -42 17 -42 42s17 43 42 43c26 0 41 -19 41 -43c0 -25 -16 -42 -41 -42z" />
    <glyph glyph-name="ydieresis" unicode="&#xff;" horiz-adv-x="453" 
d="M23 483h61c3 0 5 -2 6 -5c88 -238 128 -349 141 -392c30 86 74 212 138 392c2 3 4 5 7 5h55c4 0 5 -3 4 -7c-73 -221 -168 -465 -265 -686c-1 -4 -4 -6 -9 -6l-58 -5c-5 0 -5 2 -3 7c28 60 64 144 96 223c2 3 2 6 0 11c-25 67 -118 301 -177 457c-2 4 0 6 4 6zM143 594
c-22 0 -38 15 -38 39c0 25 18 40 39 40s37 -16 37 -40s-17 -39 -38 -39zM315 594c-21 0 -37 15 -37 39c0 25 17 40 38 40c22 0 37 -16 37 -40c0 -23 -16 -39 -38 -39z" />
    <glyph glyph-name="uni1EF7" unicode="&#x1ef7;" horiz-adv-x="453" 
d="M23 483h61c3 0 5 -2 6 -5c88 -238 128 -349 141 -392c30 86 74 212 138 392c2 3 4 5 7 5h55c4 0 5 -3 4 -7c-73 -221 -168 -465 -265 -686c-1 -4 -4 -6 -9 -6l-58 -5c-5 0 -5 2 -3 7c28 60 64 144 96 223c2 3 2 6 0 11c-25 67 -118 301 -177 457c-2 4 0 6 4 6zM149 649
v35c0 2 1 4 3 6c21 12 48 19 77 19c54 0 87 -32 87 -78c0 -59 -62 -98 -104 -113c-2 0 -4 0 -5 3v35c0 4 2 5 4 6c30 19 50 39 50 65c0 20 -14 36 -42 36c-24 0 -41 -5 -64 -17c-3 -2 -6 0 -6 3z" />
    <glyph glyph-name="uni1EF5" unicode="&#x1ef5;" horiz-adv-x="453" 
d="M23 483h61c3 0 5 -2 6 -5c88 -238 128 -349 141 -392c30 86 74 212 138 392c2 3 4 5 7 5h55c4 0 5 -3 4 -7c-73 -221 -168 -465 -265 -686c-1 -4 -4 -6 -9 -6l-58 -5c-5 0 -5 2 -3 7c28 60 64 144 96 223c2 3 2 6 0 11c-25 67 -118 301 -177 457c-2 4 0 6 4 6zM326 -211
c-25 0 -42 19 -42 42c0 25 18 43 43 43s41 -19 41 -42c0 -24 -15 -43 -42 -43z" />
    <glyph glyph-name="zacute" unicode="&#x17a;" horiz-adv-x="389" 
d="M360 0h-335c-4 0 -5 3 -5 7v30c0 3 1 5 3 8c69 108 231 335 262 380h-252c-4 0 -6 1 -5 6l9 47c1 3 3 5 7 5h315c4 0 4 -2 5 -5v-33c0 -4 -2 -8 -4 -11c-103 -157 -231 -339 -258 -376c32 1 74 0 120 0h151c3 0 5 -1 4 -6l-11 -47c-1 -4 -3 -5 -6 -5zM152 559l103 141
c2 3 5 6 8 6h62c5 0 6 -3 4 -6l-114 -142c-2 -3 -4 -4 -8 -4h-52c-3 0 -4 2 -3 5z" />
    <glyph glyph-name="zdotaccent" unicode="&#x17c;" horiz-adv-x="389" 
d="M360 0h-335c-4 0 -5 3 -5 7v30c0 3 1 5 3 8c69 108 231 335 262 380h-252c-4 0 -6 1 -5 6l9 47c1 3 3 5 7 5h315c4 0 4 -2 5 -5v-33c0 -4 -2 -8 -4 -11c-103 -157 -231 -339 -258 -376c32 1 74 0 120 0h151c3 0 5 -1 4 -6l-11 -47c-1 -4 -3 -5 -6 -5zM194 590
c-26 0 -42 17 -42 42s17 43 42 43c26 0 41 -19 41 -43c0 -25 -16 -42 -41 -42z" />
    <glyph glyph-name="zcaron" unicode="&#x17e;" horiz-adv-x="389" 
d="M360 0h-335c-4 0 -5 3 -5 7v30c0 3 1 5 3 8c69 108 231 335 262 380h-252c-4 0 -6 1 -5 6l9 47c1 3 3 5 7 5h315c4 0 4 -2 5 -5v-33c0 -4 -2 -8 -4 -11c-103 -157 -231 -339 -258 -376c32 1 74 0 120 0h151c3 0 5 -1 4 -6l-11 -47c-1 -4 -3 -5 -6 -5zM126 696l72 -105
l69 106c1 1 3 3 7 3h44c4 0 5 -4 3 -6l-93 -136c-2 -3 -3 -3 -5 -3h-53c-5 0 -6 1 -8 4l-95 136c-2 2 0 5 3 5h48c4 0 6 -2 8 -4z" />
    <glyph glyph-name="uni1E93" unicode="&#x1e93;" horiz-adv-x="389" 
d="M360 0h-335c-4 0 -5 3 -5 7v30c0 3 1 5 3 8c69 108 231 335 262 380h-252c-4 0 -6 1 -5 6l9 47c1 3 3 5 7 5h315c4 0 4 -2 5 -5v-33c0 -4 -2 -8 -4 -11c-103 -157 -231 -339 -258 -376c32 1 74 0 120 0h151c3 0 5 -1 4 -6l-11 -47c-1 -4 -3 -5 -6 -5zM193 -169
c-25 0 -42 19 -42 42c0 25 18 43 43 43s41 -19 41 -42c0 -24 -15 -43 -42 -43z" />
    <glyph glyph-name="AE.sc" horiz-adv-x="643" 
d="M71 0h-55c-3 0 -4 2 -3 5l233 507c1 3 3 5 8 5h320c3 0 5 -1 5 -5l7 -48c0 -2 -1 -5 -5 -5h-230l18 -169h204c3 0 4 -2 4 -5v-49c0 -3 -1 -4 -4 -4h-197l20 -175h222c5 1 5 -1 5 -4l-8 -49c-1 -3 -3 -4 -7 -4h-262c-4 0 -7 2 -7 5l-19 162h-167l-75 -163
c-2 -4 -4 -4 -7 -4zM174 225h141c-20 186 -25 229 -27 252h-2c-9 -26 -26 -66 -112 -252z" />
    <glyph glyph-name="OE.sc" horiz-adv-x="726" 
d="M396 517h271c3 0 5 -1 6 -5l5 -47c1 -5 0 -6 -5 -6h-235v-167h211c4 0 5 -1 5 -5v-47c0 -4 -2 -6 -6 -6h-210v-176h253c4 0 5 -1 4 -5l-7 -48c-1 -3 -2 -5 -7 -5h-274c-10 0 -40 -3 -95 -3c-165 0 -263 102 -263 260c0 172 119 262 265 262c37 0 53 0 82 -2zM373 55v406
c-14 3 -23 4 -59 4c-112 0 -198 -69 -198 -206c0 -139 85 -207 199 -207c28 0 46 1 58 3z" />
    <glyph glyph-name="uni1E9E.sc" horiz-adv-x="575" 
d="M474 375c-108 -17 -134 -48 -134 -69c0 -19 29 -34 77 -59c97 -49 111 -91 111 -133c0 -71 -61 -123 -181 -123c-51 0 -96 10 -123 24c-4 3 -5 4 -5 8v54c0 2 2 3 5 2c32 -19 78 -31 126 -31c65 0 112 22 113 62c1 25 -9 49 -92 89c-72 37 -98 64 -98 99
c0 44 43 81 136 105c-1 30 -31 67 -122 67c-85 0 -133 -36 -133 -109v-357c0 -2 -2 -4 -4 -4h-57c-4 0 -5 1 -5 4v363c0 98 79 159 200 159c134 0 188 -66 188 -126c0 -5 -1 -17 -2 -25z" />
    <glyph glyph-name="germandbls.sc" horiz-adv-x="804" 
d="M189 -9c-56 0 -101 10 -137 31c-4 2 -4 5 -4 9v54c0 4 2 6 6 4c42 -30 93 -41 137 -41c81 0 108 39 108 79s-17 70 -115 110c-104 43 -131 89 -131 150c1 79 65 139 168 139c50 0 91 -8 117 -23c4 -2 4 -4 4 -8v-52c0 -4 -3 -5 -7 -3c-32 20 -70 29 -115 29
c-80 0 -104 -44 -104 -79c0 -38 18 -64 95 -95c130 -52 154 -101 154 -164c0 -77 -56 -140 -176 -140zM581 -9c-56 0 -101 10 -137 31c-4 2 -4 5 -4 9v54c0 4 2 6 6 4c42 -30 93 -41 137 -41c81 0 108 39 108 79s-17 70 -115 110c-104 43 -131 89 -131 150
c1 79 65 139 168 139c50 0 91 -8 117 -23c4 -2 4 -4 4 -8v-52c0 -4 -3 -5 -7 -3c-32 20 -70 29 -115 29c-80 0 -104 -44 -104 -79c0 -38 18 -64 95 -95c130 -52 154 -101 154 -164c0 -77 -56 -140 -176 -140z" />
    <glyph glyph-name="Thorn.sc" horiz-adv-x="465" 
d="M88 5v506c0 4 1 6 5 6h56c4 0 5 -1 5 -6v-92h87c116 0 180 -60 180 -156c0 -109 -80 -160 -189 -160l-78 1v-98c0 -4 -1 -6 -5 -6h-56c-4 0 -5 2 -5 5zM153 365v-207l77 -1c82 0 124 38 124 105c0 66 -46 104 -126 103h-75z" />
    <glyph glyph-name="uni018F.sc" horiz-adv-x="527" 
d="M71 267h340v16c-3 107 -65 183 -175 183c-54 0 -110 -10 -157 -39c-3 -2 -5 0 -5 4v49c0 3 0 6 3 8c39 22 95 38 167 38c169 0 235 -136 235 -263c0 -165 -88 -272 -227 -272c-148 0 -209 110 -209 215c0 24 2 46 4 52s6 9 24 9zM410 215h-294c-6 0 -8 -2 -8 -6
c-1 -5 -1 -8 -1 -13c0 -59 36 -146 147 -146c97 0 147 70 156 165z" />
    </font>
</defs>
</svg>
